<mxfile host="app.diagrams.net" agent="Mozilla/5.0 (Windows NT 10.0; Win64; x64) AppleWebKit/537.36 (KHTML, like Gecko) Chrome/129.0.0.0 Safari/537.36" version="24.7.17" pages="5">
  <diagram name="Page-1" id="74e2e168-ea6b-b213-b513-2b3c1d86103e">
    <mxGraphModel dx="651" dy="1546" grid="1" gridSize="10" guides="1" tooltips="1" connect="1" arrows="1" fold="1" page="1" pageScale="1" pageWidth="1100" pageHeight="850" background="none" math="0" shadow="0">
      <root>
        <mxCell id="0" />
        <mxCell id="1" parent="0" />
        <mxCell id="77e6c97f196da883-1" value="ACTION DIAGRAM" style="swimlane;html=1;childLayout=stackLayout;startSize=20;rounded=0;shadow=0;labelBackgroundColor=none;strokeWidth=1;fontFamily=Verdana;fontSize=8;align=center;movable=1;resizable=1;rotatable=1;deletable=1;editable=1;locked=0;connectable=1;" parent="1" vertex="1">
          <mxGeometry x="70" y="40" width="660" height="750" as="geometry" />
        </mxCell>
        <mxCell id="77e6c97f196da883-2" value="USER" style="swimlane;html=1;startSize=20;movable=1;resizable=1;rotatable=1;deletable=1;editable=1;locked=0;connectable=1;" parent="77e6c97f196da883-1" vertex="1">
          <mxGeometry y="20" width="180" height="730" as="geometry" />
        </mxCell>
        <mxCell id="r71Yxxhhe5SJkZiVdISP-4" value="" style="edgeStyle=orthogonalEdgeStyle;rounded=0;orthogonalLoop=1;jettySize=auto;html=1;movable=1;resizable=1;rotatable=1;deletable=1;editable=1;locked=0;connectable=1;" edge="1" parent="77e6c97f196da883-2">
          <mxGeometry relative="1" as="geometry">
            <mxPoint x="75" y="50" as="sourcePoint" />
            <mxPoint x="75" y="70" as="targetPoint" />
            <Array as="points">
              <mxPoint x="75" y="60" />
              <mxPoint x="75" y="60" />
            </Array>
          </mxGeometry>
        </mxCell>
        <mxCell id="r71Yxxhhe5SJkZiVdISP-1" value="" style="ellipse;movable=1;resizable=1;rotatable=1;deletable=1;editable=1;locked=0;connectable=1;" vertex="1" parent="77e6c97f196da883-2">
          <mxGeometry x="65" y="30" width="20" height="20" as="geometry" />
        </mxCell>
        <mxCell id="r71Yxxhhe5SJkZiVdISP-5" value="&lt;font style=&quot;font-size: 9px;&quot;&gt;click on &quot;User Preferences&quot; button&lt;/font&gt;" style="html=1;dashed=0;rounded=1;absoluteArcSize=1;arcSize=20;verticalAlign=middle;align=center;whiteSpace=wrap;" vertex="1" parent="77e6c97f196da883-2">
          <mxGeometry x="15" y="70" width="120" height="30" as="geometry" />
        </mxCell>
        <mxCell id="92CKUUzD8qVGjsgXedzM-3" value="" style="edgeStyle=orthogonalEdgeStyle;rounded=0;orthogonalLoop=1;jettySize=auto;html=1;" edge="1" parent="77e6c97f196da883-2" source="r71Yxxhhe5SJkZiVdISP-12" target="92CKUUzD8qVGjsgXedzM-1">
          <mxGeometry relative="1" as="geometry" />
        </mxCell>
        <mxCell id="r71Yxxhhe5SJkZiVdISP-12" value="&lt;font style=&quot;font-size: 10px;&quot;&gt;Notifications sound&lt;/font&gt;" style="html=1;dashed=0;rounded=1;absoluteArcSize=1;arcSize=20;verticalAlign=middle;align=center;whiteSpace=wrap;" vertex="1" parent="77e6c97f196da883-2">
          <mxGeometry x="20" y="110" width="120" height="20" as="geometry" />
        </mxCell>
        <mxCell id="92CKUUzD8qVGjsgXedzM-1" value="&lt;font style=&quot;font-size: 10px;&quot;&gt;Update Profile settings&lt;/font&gt;" style="html=1;dashed=0;rounded=1;absoluteArcSize=1;arcSize=20;verticalAlign=middle;align=center;whiteSpace=wrap;" vertex="1" parent="77e6c97f196da883-2">
          <mxGeometry x="20" y="150" width="120" height="20" as="geometry" />
        </mxCell>
        <mxCell id="77e6c97f196da883-3" value="UI" style="swimlane;html=1;startSize=20;movable=1;resizable=1;rotatable=1;deletable=1;editable=1;locked=0;connectable=1;" parent="77e6c97f196da883-1" vertex="1">
          <mxGeometry x="180" y="20" width="160" height="730" as="geometry" />
        </mxCell>
        <mxCell id="r71Yxxhhe5SJkZiVdISP-8" value="&lt;font style=&quot;font-size: 11px;&quot;&gt;Show user&amp;nbsp;Preferences&lt;/font&gt;" style="html=1;dashed=0;rounded=1;absoluteArcSize=1;arcSize=20;verticalAlign=middle;align=center;whiteSpace=wrap;" vertex="1" parent="77e6c97f196da883-3">
          <mxGeometry x="18" y="70" width="124" height="20" as="geometry" />
        </mxCell>
        <mxCell id="77e6c97f196da883-4" value="SYSTEM" style="swimlane;html=1;startSize=20;movable=1;resizable=1;rotatable=1;deletable=1;editable=1;locked=0;connectable=1;" parent="77e6c97f196da883-1" vertex="1">
          <mxGeometry x="340" y="20" width="160" height="730" as="geometry" />
        </mxCell>
        <mxCell id="77e6c97f196da883-5" value="ADMIN" style="swimlane;html=1;startSize=20;movable=1;resizable=1;rotatable=1;deletable=1;editable=1;locked=0;connectable=1;" parent="77e6c97f196da883-1" vertex="1">
          <mxGeometry x="500" y="20" width="160" height="730" as="geometry" />
        </mxCell>
        <mxCell id="r71Yxxhhe5SJkZiVdISP-16" value="" style="edgeStyle=orthogonalEdgeStyle;rounded=0;orthogonalLoop=1;jettySize=auto;html=1;exitX=0.659;exitY=1.061;exitDx=0;exitDy=0;exitPerimeter=0;" edge="1" parent="77e6c97f196da883-1" source="r71Yxxhhe5SJkZiVdISP-8">
          <mxGeometry relative="1" as="geometry">
            <mxPoint x="200" y="140" as="sourcePoint" />
            <mxPoint x="140" y="140" as="targetPoint" />
            <Array as="points">
              <mxPoint x="280" y="140" />
            </Array>
          </mxGeometry>
        </mxCell>
        <mxCell id="92CKUUzD8qVGjsgXedzM-7" value="" style="edgeStyle=orthogonalEdgeStyle;rounded=0;orthogonalLoop=1;jettySize=auto;html=1;" edge="1" parent="77e6c97f196da883-1" source="r71Yxxhhe5SJkZiVdISP-5" target="r71Yxxhhe5SJkZiVdISP-8">
          <mxGeometry relative="1" as="geometry" />
        </mxCell>
        <mxCell id="92CKUUzD8qVGjsgXedzM-9" value="&lt;div style=&quot;&quot;&gt;&lt;b&gt;&lt;span style=&quot;background-color: initial;&quot;&gt;### 1. **Notification Settings**&lt;/span&gt;&lt;br&gt;&lt;/b&gt;&lt;/div&gt;&lt;div style=&quot;&quot;&gt;&lt;span style=&quot;background-color: initial;&quot;&gt;&lt;br&gt;&lt;/span&gt;&lt;/div&gt;&lt;div style=&quot;&quot;&gt;&lt;span style=&quot;background-color: initial;&quot;&gt;- **Push Notifications**:&amp;nbsp;&lt;/span&gt;&lt;br&gt;&lt;/div&gt;&lt;div style=&quot;&quot;&gt;&amp;nbsp; - On/Off toggle for receiving general notifications.&lt;/div&gt;&lt;div style=&quot;&quot;&gt;&amp;nbsp; - Time-sensitive notifications (urgent events, updates).&lt;/div&gt;&lt;div style=&quot;&quot;&gt;- **Frequency of Notifications**:&lt;/div&gt;&lt;div style=&quot;&quot;&gt;&amp;nbsp; - Immediate (as soon as an event occurs).&lt;/div&gt;&lt;div style=&quot;&quot;&gt;&amp;nbsp; - Daily summary (all notifications in one batch).&lt;/div&gt;&lt;div style=&quot;&quot;&gt;&amp;nbsp; - Weekly summary.&lt;/div&gt;&lt;div style=&quot;&quot;&gt;&lt;br&gt;&lt;/div&gt;&lt;div style=&quot;&quot;&gt;- **Notification Types**:&lt;/div&gt;&lt;div style=&quot;&quot;&gt;&amp;nbsp; - Exploration updates (e.g., nearby points of interest).&lt;/div&gt;&lt;div style=&quot;&quot;&gt;&amp;nbsp; - Friendsâ€™ activities.&lt;/div&gt;&lt;div style=&quot;&quot;&gt;&amp;nbsp; - Social media interactions.&lt;/div&gt;&lt;div style=&quot;&quot;&gt;&amp;nbsp; - Upcoming trips and ticket reminders.&lt;/div&gt;&lt;div style=&quot;&quot;&gt;&amp;nbsp; - Rewards/Discounts notifications.&lt;/div&gt;&lt;div style=&quot;&quot;&gt;&amp;nbsp; - Quizzes/Challenge updates.&lt;/div&gt;" style="text;strokeColor=none;align=left;fillColor=none;html=1;verticalAlign=middle;whiteSpace=wrap;rounded=0;" vertex="1" parent="1">
          <mxGeometry x="20" y="-620" width="330" height="250" as="geometry" />
        </mxCell>
        <mxCell id="92CKUUzD8qVGjsgXedzM-10" value="&lt;div style=&quot;&quot;&gt;&lt;div&gt;&lt;b&gt;### 2. **Voice Guide Choices**&lt;/b&gt;&lt;/div&gt;&lt;div&gt;&lt;br&gt;&lt;/div&gt;&lt;div&gt;Users can customize how the app provides voice guidance during exploration.&lt;/div&gt;&lt;div&gt;- **Voice Language**:&amp;nbsp;&lt;/div&gt;&lt;div&gt;&amp;nbsp; - Selection of different languages for voice guidance.&lt;/div&gt;&lt;div&gt;- **Voice Type**:&amp;nbsp;&lt;/div&gt;&lt;div&gt;&amp;nbsp; - Male/Female/Non-binary voices.&lt;/div&gt;&lt;div&gt;&amp;nbsp; - Celebrity or unique voices (if available).&lt;/div&gt;&lt;div&gt;- **Speed of Speech**:&lt;/div&gt;&lt;div&gt;&amp;nbsp; - Slow, Normal, Fast.&lt;/div&gt;&lt;div&gt;- **Volume Control**:&lt;/div&gt;&lt;div&gt;&amp;nbsp; - Adjustable volume for in-app guidance.&lt;/div&gt;&lt;div&gt;- **Type of Instructions**:&lt;/div&gt;&lt;div&gt;&amp;nbsp; - Detailed (turn-by-turn with additional context).&lt;/div&gt;&lt;div&gt;&amp;nbsp; - Summary (only the essential directions).&lt;/div&gt;&lt;div&gt;&amp;nbsp; - Fun facts along the way (touristic insights).&lt;/div&gt;&lt;/div&gt;" style="text;strokeColor=none;align=left;fillColor=none;html=1;verticalAlign=middle;whiteSpace=wrap;rounded=0;" vertex="1" parent="1">
          <mxGeometry x="20" y="-310" width="330" height="240" as="geometry" />
        </mxCell>
        <mxCell id="92CKUUzD8qVGjsgXedzM-11" value="&lt;div style=&quot;&quot;&gt;&lt;b&gt;### 3. **Choose Interests**&lt;/b&gt;&lt;/div&gt;&lt;div style=&quot;&quot;&gt;&lt;b&gt;&lt;br&gt;&lt;/b&gt;&lt;/div&gt;&lt;div style=&quot;&quot;&gt;This section helps the app tailor recommendations and activities based on user interests.&lt;/div&gt;&lt;div style=&quot;&quot;&gt;- **Categories of Interest** (with checkboxes or sliders to choose importance):&lt;/div&gt;&lt;div style=&quot;&quot;&gt;&amp;nbsp; - History.&lt;/div&gt;&lt;div style=&quot;&quot;&gt;&amp;nbsp; - Architecture.&lt;/div&gt;&lt;div style=&quot;&quot;&gt;&amp;nbsp; - Nature (Parks, Mountains, Lakes).&lt;/div&gt;&lt;div style=&quot;&quot;&gt;&amp;nbsp; - Art &amp;amp; Museums.&lt;/div&gt;&lt;div style=&quot;&quot;&gt;&amp;nbsp; - Culture (Theater, Festivals, Local customs).&lt;/div&gt;&lt;div style=&quot;&quot;&gt;&amp;nbsp; - Sports &amp;amp; Outdoor Activities (e.g., hiking, cycling, water sports).&lt;/div&gt;&lt;div style=&quot;&quot;&gt;&amp;nbsp; - Shopping &amp;amp; Souvenirs.&lt;/div&gt;&lt;div style=&quot;&quot;&gt;&amp;nbsp; - Music &amp;amp; Entertainment.&lt;/div&gt;&lt;div style=&quot;&quot;&gt;- **Priority**:&lt;/div&gt;&lt;div style=&quot;&quot;&gt;&amp;nbsp; - Users can rate how important each interest is (High, Medium, Low).&lt;/div&gt;" style="text;strokeColor=none;align=left;fillColor=none;html=1;verticalAlign=middle;whiteSpace=wrap;rounded=0;" vertex="1" parent="1">
          <mxGeometry x="370" y="-610" width="380" height="230" as="geometry" />
        </mxCell>
        <mxCell id="92CKUUzD8qVGjsgXedzM-12" value="&lt;div style=&quot;&quot;&gt;&lt;div&gt;&lt;b&gt;### 4. **Choose Activities**&lt;/b&gt;&lt;/div&gt;&lt;div&gt;&lt;br&gt;&lt;/div&gt;&lt;div&gt;&lt;br&gt;&lt;/div&gt;&lt;div&gt;- **Outdoor Activities**:&lt;/div&gt;&lt;div&gt;&amp;nbsp; - Walking tours.&lt;/div&gt;&lt;div&gt;&amp;nbsp; - Bike tours.&lt;/div&gt;&lt;div&gt;&amp;nbsp; - Nature trails.&lt;/div&gt;&lt;div&gt;&amp;nbsp; - Sports (cycling, hiking, climbing, etc.).&lt;/div&gt;&lt;div&gt;- **Cultural Activities**:&lt;/div&gt;&lt;div&gt;&amp;nbsp; - Museum visits.&lt;/div&gt;&lt;div&gt;&amp;nbsp; - Historical site tours.&lt;/div&gt;&lt;div&gt;&amp;nbsp; - Local festivals or events.&lt;/div&gt;&lt;div&gt;- **Leisure Activities**:&lt;/div&gt;&lt;div&gt;&amp;nbsp; - Shopping trips.&lt;/div&gt;&lt;div&gt;&amp;nbsp; - Relaxation areas (parks, lakes).&lt;/div&gt;&lt;div&gt;&amp;nbsp; - Spa or wellness centers.&lt;/div&gt;&lt;div&gt;- **Adventurous Activities**:&lt;/div&gt;&lt;div&gt;&amp;nbsp; - Treasure hunts.&lt;/div&gt;&lt;div&gt;&amp;nbsp; - Quizzes and challenges.&lt;/div&gt;&lt;div&gt;&amp;nbsp; - Extreme sports (if available).&lt;/div&gt;&lt;/div&gt;" style="text;strokeColor=none;align=left;fillColor=none;html=1;verticalAlign=middle;whiteSpace=wrap;rounded=0;" vertex="1" parent="1">
          <mxGeometry x="380" y="-350" width="270" height="290" as="geometry" />
        </mxCell>
        <mxCell id="92CKUUzD8qVGjsgXedzM-13" value="&lt;div style=&quot;&quot;&gt;&lt;div&gt;&lt;b&gt;&lt;span style=&quot;background-color: initial;&quot;&gt;### 6. **Put Health Info**&lt;/span&gt;&lt;br&gt;&lt;/b&gt;&lt;/div&gt;&lt;div&gt;&lt;span style=&quot;background-color: initial;&quot;&gt;&lt;br&gt;&lt;/span&gt;&lt;/div&gt;&lt;div&gt;&lt;span style=&quot;background-color: initial;&quot;&gt;- **Health Conditions**:&lt;/span&gt;&lt;br&gt;&lt;/div&gt;&lt;div&gt;&amp;nbsp; - Asthma.&lt;/div&gt;&lt;div&gt;&amp;nbsp; - Heart conditions.&lt;/div&gt;&lt;div&gt;&amp;nbsp; - Mobility issues (requiring routes with accessible paths).&lt;/div&gt;&lt;div&gt;- **Physical Fitness Level**:&lt;/div&gt;&lt;div&gt;&amp;nbsp; - Sedentary.&lt;/div&gt;&lt;div&gt;&amp;nbsp; - Moderate activity.&lt;/div&gt;&lt;div&gt;&amp;nbsp; - Highly active.&lt;/div&gt;&lt;div&gt;- **Preferred Activity Intensity**:&lt;/div&gt;&lt;div&gt;&amp;nbsp; - Easy-going (slow-paced walking, relaxing activities).&lt;/div&gt;&lt;div&gt;&amp;nbsp; - Moderate (bike rides, light hikes).&lt;/div&gt;&lt;div&gt;&amp;nbsp; - Adventurous (long hikes, demanding physical activities).&lt;/div&gt;&lt;div&gt;- **Medical Emergencies**:&lt;/div&gt;&lt;div&gt;&amp;nbsp; - Emergency contact info.&lt;/div&gt;&lt;div&gt;&amp;nbsp; - First aid or health assistance preferences (should an emergency occur).&lt;/div&gt;&lt;div&gt;&lt;br&gt;&lt;/div&gt;&lt;/div&gt;" style="text;strokeColor=none;align=left;fillColor=none;html=1;verticalAlign=middle;whiteSpace=wrap;rounded=0;" vertex="1" parent="1">
          <mxGeometry x="650" y="-280" width="410" height="230" as="geometry" />
        </mxCell>
        <mxCell id="92CKUUzD8qVGjsgXedzM-14" value="&lt;div style=&quot;&quot;&gt;&lt;div&gt;&lt;b&gt;### 5. **Choose Food &amp;amp; Drink Preferences**&lt;/b&gt;&lt;/div&gt;&lt;div&gt;&lt;span style=&quot;background-color: initial;&quot;&gt;&lt;br&gt;&lt;/span&gt;&lt;/div&gt;&lt;div&gt;&lt;span style=&quot;background-color: initial;&quot;&gt;- **Dietary Preferences**:&lt;/span&gt;&lt;br&gt;&lt;/div&gt;&lt;div&gt;&amp;nbsp; - Vegetarian.&lt;/div&gt;&lt;div&gt;&amp;nbsp; - Vegan.&lt;/div&gt;&lt;div&gt;&amp;nbsp; - Gluten-free.&lt;/div&gt;&lt;div&gt;&amp;nbsp; - Dairy-free.&lt;/div&gt;&lt;div&gt;&amp;nbsp; - Pescatarian.&lt;/div&gt;&lt;div&gt;&amp;nbsp; - No preference.&lt;/div&gt;&lt;div&gt;- **Cuisine Preferences**:&lt;/div&gt;&lt;div&gt;&amp;nbsp; - Local cuisine.&lt;/div&gt;&lt;div&gt;&amp;nbsp; - International cuisine (Italian, Chinese, Indian, etc.).&lt;/div&gt;&lt;div&gt;&amp;nbsp; - Street food.&lt;/div&gt;&lt;div&gt;&amp;nbsp; - Fine dining.&lt;/div&gt;&lt;div&gt;- **Food Allergies**:&lt;/div&gt;&lt;div&gt;&amp;nbsp; - Users can input specific food allergies (nuts, shellfish, etc.).&lt;/div&gt;&lt;div&gt;- **Favorite Drinks**:&lt;/div&gt;&lt;div&gt;&amp;nbsp; - Coffee, Tea, Juices, Soft drinks.&lt;/div&gt;&lt;div&gt;&amp;nbsp; - Alcoholic beverages (beer, wine, cocktails)&lt;/div&gt;&lt;/div&gt;" style="text;strokeColor=none;align=left;fillColor=none;html=1;verticalAlign=middle;whiteSpace=wrap;rounded=0;" vertex="1" parent="1">
          <mxGeometry x="810" y="-630" width="270" height="310" as="geometry" />
        </mxCell>
      </root>
    </mxGraphModel>
  </diagram>
  <diagram id="CPEC-WgBerv0RcOLH95G" name="Action Diagram">
    <mxGraphModel dx="5348" dy="3576" grid="1" gridSize="10" guides="1" tooltips="1" connect="1" arrows="1" fold="1" page="1" pageScale="1" pageWidth="827" pageHeight="1169" math="0" shadow="0">
      <root>
        <mxCell id="0" />
        <mxCell id="1" parent="0" />
        <UserObject label="" plantUmlData="{&#xa;  &quot;data&quot;: &quot;@startuml\nstart\n\n:Open User Profile Menu;\n\nif (Select Notification Settings?) then (yes)\n  :Set Push Notification Preference (On/Off);\n  :Set Notification Frequency;\n  :Set Notification Types;\n  :Save Notification Settings;\n  :Return to Profile Menu;\nelse (no)\n  if (Select Voice Guide Choices?) then (yes)\n    :Choose Voice Language;\n    :Choose Voice Type (Male/Female);\n    :Adjust Speech Speed &amp; Volume;\n    :Set Type of Instructions (Detailed/Summary);\n    :Save Voice Guide Settings;\n    :Return to Profile Menu;\n  else (no)\n    if (Select Interests?) then (yes)\n      :Choose Interest Categories (e.g., History, Art);\n      :Set Interest Priority (High/Medium/Low);\n      :Save Interests;\n      :Return to Profile Menu;\n    else (no)\n      if (Select Activities?) then (yes)\n        :Choose Preferred Activities (e.g., Biking, Museums);\n        :Save Activity Preferences;\n        :Return to Profile Menu;\n      else (no)\n        if (Select Food &amp; Drink Preferences?) then (yes)\n          :Choose Dietary Preferences (e.g., Vegan);\n          :Input Food Allergies;\n          :Select Favorite Drinks;\n          :Save Food &amp; Drink Preferences;\n          :Return to Profile Menu;\n        else (no)\n          if (Enter Health Info?) then (yes)\n            :Input Health Conditions (e.g., Asthma);\n            :Select Fitness Level;\n            :Save Health Info;\n            :Return to Profile Menu;\n          else (no)\n            :No Changes Made;\n            :Return to Profile Menu;\n          endif\n        endif\n      endif\n    endif\n  endif\nendif\n\n:Exit Settings;\n\nstop\n@enduml\n&quot;,&#xa;  &quot;format&quot;: &quot;svg&quot;&#xa;}" id="1cFzT43rTLXFV8MMpM0W-1">
          <mxCell style="shape=image;noLabel=1;verticalAlign=top;aspect=fixed;imageAspect=0;image=data:image/svg+xml,PD94bWwgdmVyc2lvbj0iMS4wIiBlbmNvZGluZz0idXMtYXNjaWkiIHN0YW5kYWxvbmU9Im5vIj8+PHN2ZyB4bWxucz0iaHR0cDovL3d3dy53My5vcmcvMjAwMC9zdmciIHhtbG5zOnhsaW5rPSJodHRwOi8vd3d3LnczLm9yZy8xOTk5L3hsaW5rIiBjb250ZW50U3R5bGVUeXBlPSJ0ZXh0L2NzcyIgaGVpZ2h0PSI4MzJweCIgcHJlc2VydmVBc3BlY3RSYXRpbz0ibm9uZSIgc3R5bGU9IndpZHRoOjIxMThweDtoZWlnaHQ6ODMycHg7YmFja2dyb3VuZDojRkZGRkZGOyIgdmVyc2lvbj0iMS4xIiB2aWV3Qm94PSIwIDAgMjExOCA4MzIiIHdpZHRoPSIyMTE4cHgiIHpvb21BbmRQYW49Im1hZ25pZnkiPjxkZWZzLz48Zz48ZWxsaXBzZSBjeD0iNDY2LjU2MjUiIGN5PSIyMCIgZmlsbD0iIzIyMjIyMiIgcng9IjEwIiByeT0iMTAiIHN0eWxlPSJzdHJva2U6IzIyMjIyMjtzdHJva2Utd2lkdGg6MS4wOyIvPjxyZWN0IGZpbGw9IiNGMUYxRjEiIGhlaWdodD0iMzIuODQzOCIgcng9IjEyLjUiIHJ5PSIxMi41IiBzdHlsZT0ic3Ryb2tlOiMxODE4MTg7c3Ryb2tlLXdpZHRoOjAuNTsiIHdpZHRoPSIxNjgiIHg9IjM4Mi41NjI1IiB5PSI1MCIvPjx0ZXh0IGZpbGw9IiMwMDAwMDAiIGZvbnQtZmFtaWx5PSJzYW5zLXNlcmlmIiBmb250LXNpemU9IjEyIiBsZW5ndGhBZGp1c3Q9InNwYWNpbmciIHRleHRMZW5ndGg9IjE0OCIgeD0iMzkyLjU2MjUiIHk9IjcxLjM0MzgiPk9wZW4gVXNlciBQcm9maWxlIE1lbnU8L3RleHQ+PHBvbHlnb24gZmlsbD0iI0YxRjFGMSIgcG9pbnRzPSIzNzkuNTYyNSwxMDIuODQzOCw1NTMuNTYyNSwxMDIuODQzOCw1NjUuNTYyNSwxMTQuODQzOCw1NTMuNTYyNSwxMjYuODQzOCwzNzkuNTYyNSwxMjYuODQzOCwzNjcuNTYyNSwxMTQuODQzOCwzNzkuNTYyNSwxMDIuODQzOCIgc3R5bGU9InN0cm9rZTojMTgxODE4O3N0cm9rZS13aWR0aDowLjU7Ii8+PHRleHQgZmlsbD0iIzAwMDAwMCIgZm9udC1mYW1pbHk9InNhbnMtc2VyaWYiIGZvbnQtc2l6ZT0iMTEiIGxlbmd0aEFkanVzdD0ic3BhY2luZyIgdGV4dExlbmd0aD0iMTc0IiB4PSIzNzkuNTYyNSIgeT0iMTE5LjM1NTUiPlNlbGVjdCBOb3RpZmljYXRpb24gU2V0dGluZ3M/PC90ZXh0Pjx0ZXh0IGZpbGw9IiMwMDAwMDAiIGZvbnQtZmFtaWx5PSJzYW5zLXNlcmlmIiBmb250LXNpemU9IjExIiBsZW5ndGhBZGp1c3Q9InNwYWNpbmciIHRleHRMZW5ndGg9IjE4IiB4PSIzNDkuNTYyNSIgeT0iMTEzLjQ2ODgiPnllczwvdGV4dD48dGV4dCBmaWxsPSIjMDAwMDAwIiBmb250LWZhbWlseT0ic2Fucy1zZXJpZiIgZm9udC1zaXplPSIxMSIgbGVuZ3RoQWRqdXN0PSJzcGFjaW5nIiB0ZXh0TGVuZ3RoPSIxMiIgeD0iNTY1LjU2MjUiIHk9IjExMy40Njg4Ij5ubzwvdGV4dD48cmVjdCBmaWxsPSIjRjFGMUYxIiBoZWlnaHQ9IjMyLjg0MzgiIHJ4PSIxMi41IiByeT0iMTIuNSIgc3R5bGU9InN0cm9rZTojMTgxODE4O3N0cm9rZS13aWR0aDowLjU7IiB3aWR0aD0iMjg5IiB4PSIxMSIgeT0iMTM2Ljg0MzgiLz48dGV4dCBmaWxsPSIjMDAwMDAwIiBmb250LWZhbWlseT0ic2Fucy1zZXJpZiIgZm9udC1zaXplPSIxMiIgbGVuZ3RoQWRqdXN0PSJzcGFjaW5nIiB0ZXh0TGVuZ3RoPSIyNjkiIHg9IjIxIiB5PSIxNTguMTg3NSI+U2V0IFB1c2ggTm90aWZpY2F0aW9uIFByZWZlcmVuY2UgKE9uL09mZik8L3RleHQ+PHJlY3QgZmlsbD0iI0YxRjFGMSIgaGVpZ2h0PSIzMi44NDM4IiByeD0iMTIuNSIgcnk9IjEyLjUiIHN0eWxlPSJzdHJva2U6IzE4MTgxODtzdHJva2Utd2lkdGg6MC41OyIgd2lkdGg9IjE5MCIgeD0iNjAuNSIgeT0iMjA0LjY4NzUiLz48dGV4dCBmaWxsPSIjMDAwMDAwIiBmb250LWZhbWlseT0ic2Fucy1zZXJpZiIgZm9udC1zaXplPSIxMiIgbGVuZ3RoQWRqdXN0PSJzcGFjaW5nIiB0ZXh0TGVuZ3RoPSIxNzAiIHg9IjcwLjUiIHk9IjIyNi4wMzEzIj5TZXQgTm90aWZpY2F0aW9uIEZyZXF1ZW5jeTwvdGV4dD48cmVjdCBmaWxsPSIjRjFGMUYxIiBoZWlnaHQ9IjMyLjg0MzgiIHJ4PSIxMi41IiByeT0iMTIuNSIgc3R5bGU9InN0cm9rZTojMTgxODE4O3N0cm9rZS13aWR0aDowLjU7IiB3aWR0aD0iMTYzIiB4PSI3NCIgeT0iMjcyLjUzMTMiLz48dGV4dCBmaWxsPSIjMDAwMDAwIiBmb250LWZhbWlseT0ic2Fucy1zZXJpZiIgZm9udC1zaXplPSIxMiIgbGVuZ3RoQWRqdXN0PSJzcGFjaW5nIiB0ZXh0TGVuZ3RoPSIxNDMiIHg9Ijg0IiB5PSIyOTMuODc1Ij5TZXQgTm90aWZpY2F0aW9uIFR5cGVzPC90ZXh0PjxyZWN0IGZpbGw9IiNGMUYxRjEiIGhlaWdodD0iMzIuODQzOCIgcng9IjEyLjUiIHJ5PSIxMi41IiBzdHlsZT0ic3Ryb2tlOiMxODE4MTg7c3Ryb2tlLXdpZHRoOjAuNTsiIHdpZHRoPSIxOTAiIHg9IjYwLjUiIHk9IjM0MC4zNzUiLz48dGV4dCBmaWxsPSIjMDAwMDAwIiBmb250LWZhbWlseT0ic2Fucy1zZXJpZiIgZm9udC1zaXplPSIxMiIgbGVuZ3RoQWRqdXN0PSJzcGFjaW5nIiB0ZXh0TGVuZ3RoPSIxNzAiIHg9IjcwLjUiIHk9IjM2MS43MTg4Ij5TYXZlIE5vdGlmaWNhdGlvbiBTZXR0aW5nczwvdGV4dD48cmVjdCBmaWxsPSIjRjFGMUYxIiBoZWlnaHQ9IjMyLjg0MzgiIHJ4PSIxMi41IiByeT0iMTIuNSIgc3R5bGU9InN0cm9rZTojMTgxODE4O3N0cm9rZS13aWR0aDowLjU7IiB3aWR0aD0iMTY2IiB4PSI3Mi41IiB5PSI0MDguMjE4OCIvPjx0ZXh0IGZpbGw9IiMwMDAwMDAiIGZvbnQtZmFtaWx5PSJzYW5zLXNlcmlmIiBmb250LXNpemU9IjEyIiBsZW5ndGhBZGp1c3Q9InNwYWNpbmciIHRleHRMZW5ndGg9IjE0NiIgeD0iODIuNSIgeT0iNDI5LjU2MjUiPlJldHVybiB0byBQcm9maWxlIE1lbnU8L3RleHQ+PHBvbHlnb24gZmlsbD0iI0YxRjFGMSIgcG9pbnRzPSI2OTYuNjI1LDEzNi44NDM4LDg1OC42MjUsMTM2Ljg0MzgsODcwLjYyNSwxNDguODQzOCw4NTguNjI1LDE2MC44NDM4LDY5Ni42MjUsMTYwLjg0MzgsNjg0LjYyNSwxNDguODQzOCw2OTYuNjI1LDEzNi44NDM4IiBzdHlsZT0ic3Ryb2tlOiMxODE4MTg7c3Ryb2tlLXdpZHRoOjAuNTsiLz48dGV4dCBmaWxsPSIjMDAwMDAwIiBmb250LWZhbWlseT0ic2Fucy1zZXJpZiIgZm9udC1zaXplPSIxMSIgbGVuZ3RoQWRqdXN0PSJzcGFjaW5nIiB0ZXh0TGVuZ3RoPSIxNjIiIHg9IjY5Ni42MjUiIHk9IjE1My4zNTU1Ij5TZWxlY3QgVm9pY2UgR3VpZGUgQ2hvaWNlcz88L3RleHQ+PHRleHQgZmlsbD0iIzAwMDAwMCIgZm9udC1mYW1pbHk9InNhbnMtc2VyaWYiIGZvbnQtc2l6ZT0iMTEiIGxlbmd0aEFkanVzdD0ic3BhY2luZyIgdGV4dExlbmd0aD0iMTgiIHg9IjY2Ni42MjUiIHk9IjE0Ny40Njg4Ij55ZXM8L3RleHQ+PHRleHQgZmlsbD0iIzAwMDAwMCIgZm9udC1mYW1pbHk9InNhbnMtc2VyaWYiIGZvbnQtc2l6ZT0iMTEiIGxlbmd0aEFkanVzdD0ic3BhY2luZyIgdGV4dExlbmd0aD0iMTIiIHg9Ijg3MC42MjUiIHk9IjE0Ny40Njg4Ij5ubzwvdGV4dD48cmVjdCBmaWxsPSIjRjFGMUYxIiBoZWlnaHQ9IjMyLjg0MzgiIHJ4PSIxMi41IiByeT0iMTIuNSIgc3R5bGU9InN0cm9rZTojMTgxODE4O3N0cm9rZS13aWR0aDowLjU7IiB3aWR0aD0iMTYyIiB4PSIzODAiIHk9IjE3MC44NDM4Ii8+PHRleHQgZmlsbD0iIzAwMDAwMCIgZm9udC1mYW1pbHk9InNhbnMtc2VyaWYiIGZvbnQtc2l6ZT0iMTIiIGxlbmd0aEFkanVzdD0ic3BhY2luZyIgdGV4dExlbmd0aD0iMTQyIiB4PSIzOTAiIHk9IjE5Mi4xODc1Ij5DaG9vc2UgVm9pY2UgTGFuZ3VhZ2U8L3RleHQ+PHJlY3QgZmlsbD0iI0YxRjFGMSIgaGVpZ2h0PSIzMi44NDM4IiByeD0iMTIuNSIgcnk9IjEyLjUiIHN0eWxlPSJzdHJva2U6IzE4MTgxODtzdHJva2Utd2lkdGg6MC41OyIgd2lkdGg9IjIyNSIgeD0iMzQ4LjUiIHk9IjIzOC42ODc1Ii8+PHRleHQgZmlsbD0iIzAwMDAwMCIgZm9udC1mYW1pbHk9InNhbnMtc2VyaWYiIGZvbnQtc2l6ZT0iMTIiIGxlbmd0aEFkanVzdD0ic3BhY2luZyIgdGV4dExlbmd0aD0iMjA1IiB4PSIzNTguNSIgeT0iMjYwLjAzMTMiPkNob29zZSBWb2ljZSBUeXBlIChNYWxlL0ZlbWFsZSk8L3RleHQ+PHJlY3QgZmlsbD0iI0YxRjFGMSIgaGVpZ2h0PSIzMi44NDM4IiByeD0iMTIuNSIgcnk9IjEyLjUiIHN0eWxlPSJzdHJva2U6IzE4MTgxODtzdHJva2Utd2lkdGg6MC41OyIgd2lkdGg9IjIwNyIgeD0iMzU3LjUiIHk9IjMwNi41MzEzIi8+PHRleHQgZmlsbD0iIzAwMDAwMCIgZm9udC1mYW1pbHk9InNhbnMtc2VyaWYiIGZvbnQtc2l6ZT0iMTIiIGxlbmd0aEFkanVzdD0ic3BhY2luZyIgdGV4dExlbmd0aD0iMTg3IiB4PSIzNjcuNSIgeT0iMzI3Ljg3NSI+QWRqdXN0IFNwZWVjaCBTcGVlZCAmYW1wOyBWb2x1bWU8L3RleHQ+PHJlY3QgZmlsbD0iI0YxRjFGMSIgaGVpZ2h0PSIzMi44NDM4IiByeD0iMTIuNSIgcnk9IjEyLjUiIHN0eWxlPSJzdHJva2U6IzE4MTgxODtzdHJva2Utd2lkdGg6MC41OyIgd2lkdGg9IjMwMiIgeD0iMzEwIiB5PSIzNzQuMzc1Ii8+PHRleHQgZmlsbD0iIzAwMDAwMCIgZm9udC1mYW1pbHk9InNhbnMtc2VyaWYiIGZvbnQtc2l6ZT0iMTIiIGxlbmd0aEFkanVzdD0ic3BhY2luZyIgdGV4dExlbmd0aD0iMjgyIiB4PSIzMjAiIHk9IjM5NS43MTg4Ij5TZXQgVHlwZSBvZiBJbnN0cnVjdGlvbnMgKERldGFpbGVkL1N1bW1hcnkpPC90ZXh0PjxyZWN0IGZpbGw9IiNGMUYxRjEiIGhlaWdodD0iMzIuODQzOCIgcng9IjEyLjUiIHJ5PSIxMi41IiBzdHlsZT0ic3Ryb2tlOiMxODE4MTg7c3Ryb2tlLXdpZHRoOjAuNTsiIHdpZHRoPSIxODYiIHg9IjM2OCIgeT0iNDQyLjIxODgiLz48dGV4dCBmaWxsPSIjMDAwMDAwIiBmb250LWZhbWlseT0ic2Fucy1zZXJpZiIgZm9udC1zaXplPSIxMiIgbGVuZ3RoQWRqdXN0PSJzcGFjaW5nIiB0ZXh0TGVuZ3RoPSIxNjYiIHg9IjM3OCIgeT0iNDYzLjU2MjUiPlNhdmUgVm9pY2UgR3VpZGUgU2V0dGluZ3M8L3RleHQ+PHJlY3QgZmlsbD0iI0YxRjFGMSIgaGVpZ2h0PSIzMi44NDM4IiByeD0iMTIuNSIgcnk9IjEyLjUiIHN0eWxlPSJzdHJva2U6IzE4MTgxODtzdHJva2Utd2lkdGg6MC41OyIgd2lkdGg9IjE2NiIgeD0iMzc4IiB5PSI1MTAuMDYyNSIvPjx0ZXh0IGZpbGw9IiMwMDAwMDAiIGZvbnQtZmFtaWx5PSJzYW5zLXNlcmlmIiBmb250LXNpemU9IjEyIiBsZW5ndGhBZGp1c3Q9InNwYWNpbmciIHRleHRMZW5ndGg9IjE0NiIgeD0iMzg4IiB5PSI1MzEuNDA2MyI+UmV0dXJuIHRvIFByb2ZpbGUgTWVudTwvdGV4dD48cG9seWdvbiBmaWxsPSIjRjFGMUYxIiBwb2ludHM9IjEwNDMuMjUsMTcwLjg0MzgsMTE0NS4yNSwxNzAuODQzOCwxMTU3LjI1LDE4Mi44NDM4LDExNDUuMjUsMTk0Ljg0MzgsMTA0My4yNSwxOTQuODQzOCwxMDMxLjI1LDE4Mi44NDM4LDEwNDMuMjUsMTcwLjg0MzgiIHN0eWxlPSJzdHJva2U6IzE4MTgxODtzdHJva2Utd2lkdGg6MC41OyIvPjx0ZXh0IGZpbGw9IiMwMDAwMDAiIGZvbnQtZmFtaWx5PSJzYW5zLXNlcmlmIiBmb250LXNpemU9IjExIiBsZW5ndGhBZGp1c3Q9InNwYWNpbmciIHRleHRMZW5ndGg9IjEwMiIgeD0iMTA0My4yNSIgeT0iMTg3LjM1NTUiPlNlbGVjdCBJbnRlcmVzdHM/PC90ZXh0Pjx0ZXh0IGZpbGw9IiMwMDAwMDAiIGZvbnQtZmFtaWx5PSJzYW5zLXNlcmlmIiBmb250LXNpemU9IjExIiBsZW5ndGhBZGp1c3Q9InNwYWNpbmciIHRleHRMZW5ndGg9IjE4IiB4PSIxMDEzLjI1IiB5PSIxODEuNDY4OCI+eWVzPC90ZXh0Pjx0ZXh0IGZpbGw9IiMwMDAwMDAiIGZvbnQtZmFtaWx5PSJzYW5zLXNlcmlmIiBmb250LXNpemU9IjExIiBsZW5ndGhBZGp1c3Q9InNwYWNpbmciIHRleHRMZW5ndGg9IjEyIiB4PSIxMTU3LjI1IiB5PSIxODEuNDY4OCI+bm88L3RleHQ+PHJlY3QgZmlsbD0iI0YxRjFGMSIgaGVpZ2h0PSIzMi44NDM4IiByeD0iMTIuNSIgcnk9IjEyLjUiIHN0eWxlPSJzdHJva2U6IzE4MTgxODtzdHJva2Utd2lkdGg6MC41OyIgd2lkdGg9IjMzMCIgeD0iNjIyIiB5PSIyMDQuODQzOCIvPjx0ZXh0IGZpbGw9IiMwMDAwMDAiIGZvbnQtZmFtaWx5PSJzYW5zLXNlcmlmIiBmb250LXNpemU9IjEyIiBsZW5ndGhBZGp1c3Q9InNwYWNpbmciIHRleHRMZW5ndGg9IjMxMCIgeD0iNjMyIiB5PSIyMjYuMTg3NSI+Q2hvb3NlIEludGVyZXN0IENhdGVnb3JpZXMgKGUuZy4sIEhpc3RvcnksIEFydCk8L3RleHQ+PHJlY3QgZmlsbD0iI0YxRjFGMSIgaGVpZ2h0PSIzMi44NDM4IiByeD0iMTIuNSIgcnk9IjEyLjUiIHN0eWxlPSJzdHJva2U6IzE4MTgxODtzdHJva2Utd2lkdGg6MC41OyIgd2lkdGg9IjI3NiIgeD0iNjQ5IiB5PSIyNzIuNjg3NSIvPjx0ZXh0IGZpbGw9IiMwMDAwMDAiIGZvbnQtZmFtaWx5PSJzYW5zLXNlcmlmIiBmb250LXNpemU9IjEyIiBsZW5ndGhBZGp1c3Q9InNwYWNpbmciIHRleHRMZW5ndGg9IjI1NiIgeD0iNjU5IiB5PSIyOTQuMDMxMyI+U2V0IEludGVyZXN0IFByaW9yaXR5IChIaWdoL01lZGl1bS9Mb3cpPC90ZXh0PjxyZWN0IGZpbGw9IiNGMUYxRjEiIGhlaWdodD0iMzIuODQzOCIgcng9IjEyLjUiIHJ5PSIxMi41IiBzdHlsZT0ic3Ryb2tlOiMxODE4MTg7c3Ryb2tlLXdpZHRoOjAuNTsiIHdpZHRoPSIxMTQiIHg9IjczMCIgeT0iMzQwLjUzMTMiLz48dGV4dCBmaWxsPSIjMDAwMDAwIiBmb250LWZhbWlseT0ic2Fucy1zZXJpZiIgZm9udC1zaXplPSIxMiIgbGVuZ3RoQWRqdXN0PSJzcGFjaW5nIiB0ZXh0TGVuZ3RoPSI5NCIgeD0iNzQwIiB5PSIzNjEuODc1Ij5TYXZlIEludGVyZXN0czwvdGV4dD48cmVjdCBmaWxsPSIjRjFGMUYxIiBoZWlnaHQ9IjMyLjg0MzgiIHJ4PSIxMi41IiByeT0iMTIuNSIgc3R5bGU9InN0cm9rZTojMTgxODE4O3N0cm9rZS13aWR0aDowLjU7IiB3aWR0aD0iMTY2IiB4PSI3MDQiIHk9IjQwOC4zNzUiLz48dGV4dCBmaWxsPSIjMDAwMDAwIiBmb250LWZhbWlseT0ic2Fucy1zZXJpZiIgZm9udC1zaXplPSIxMiIgbGVuZ3RoQWRqdXN0PSJzcGFjaW5nIiB0ZXh0TGVuZ3RoPSIxNDYiIHg9IjcxNCIgeT0iNDI5LjcxODgiPlJldHVybiB0byBQcm9maWxlIE1lbnU8L3RleHQ+PHBvbHlnb24gZmlsbD0iI0YxRjFGMSIgcG9pbnRzPSIxMzU3LDIwNC44NDM4LDE0NjUsMjA0Ljg0MzgsMTQ3NywyMTYuODQzOCwxNDY1LDIyOC44NDM4LDEzNTcsMjI4Ljg0MzgsMTM0NSwyMTYuODQzOCwxMzU3LDIwNC44NDM4IiBzdHlsZT0ic3Ryb2tlOiMxODE4MTg7c3Ryb2tlLXdpZHRoOjAuNTsiLz48dGV4dCBmaWxsPSIjMDAwMDAwIiBmb250LWZhbWlseT0ic2Fucy1zZXJpZiIgZm9udC1zaXplPSIxMSIgbGVuZ3RoQWRqdXN0PSJzcGFjaW5nIiB0ZXh0TGVuZ3RoPSIxMDgiIHg9IjEzNTciIHk9IjIyMS4zNTU1Ij5TZWxlY3QgQWN0aXZpdGllcz88L3RleHQ+PHRleHQgZmlsbD0iIzAwMDAwMCIgZm9udC1mYW1pbHk9InNhbnMtc2VyaWYiIGZvbnQtc2l6ZT0iMTEiIGxlbmd0aEFkanVzdD0ic3BhY2luZyIgdGV4dExlbmd0aD0iMTgiIHg9IjEzMjciIHk9IjIxNS40Njg4Ij55ZXM8L3RleHQ+PHRleHQgZmlsbD0iIzAwMDAwMCIgZm9udC1mYW1pbHk9InNhbnMtc2VyaWYiIGZvbnQtc2l6ZT0iMTEiIGxlbmd0aEFkanVzdD0ic3BhY2luZyIgdGV4dExlbmd0aD0iMTIiIHg9IjE0NzciIHk9IjIxNS40Njg4Ij5ubzwvdGV4dD48cmVjdCBmaWxsPSIjRjFGMUYxIiBoZWlnaHQ9IjMyLjg0MzgiIHJ4PSIxMi41IiByeT0iMTIuNSIgc3R5bGU9InN0cm9rZTojMTgxODE4O3N0cm9rZS13aWR0aDowLjU7IiB3aWR0aD0iMzU1IiB4PSI5NjIiIHk9IjIzOC44NDM4Ii8+PHRleHQgZmlsbD0iIzAwMDAwMCIgZm9udC1mYW1pbHk9InNhbnMtc2VyaWYiIGZvbnQtc2l6ZT0iMTIiIGxlbmd0aEFkanVzdD0ic3BhY2luZyIgdGV4dExlbmd0aD0iMzM1IiB4PSI5NzIiIHk9IjI2MC4xODc1Ij5DaG9vc2UgUHJlZmVycmVkIEFjdGl2aXRpZXMgKGUuZy4sIEJpa2luZywgTXVzZXVtcyk8L3RleHQ+PHJlY3QgZmlsbD0iI0YxRjFGMSIgaGVpZ2h0PSIzMi44NDM4IiByeD0iMTIuNSIgcnk9IjEyLjUiIHN0eWxlPSJzdHJva2U6IzE4MTgxODtzdHJva2Utd2lkdGg6MC41OyIgd2lkdGg9IjE4NiIgeD0iMTA0Ni41IiB5PSIzMDYuNjg3NSIvPjx0ZXh0IGZpbGw9IiMwMDAwMDAiIGZvbnQtZmFtaWx5PSJzYW5zLXNlcmlmIiBmb250LXNpemU9IjEyIiBsZW5ndGhBZGp1c3Q9InNwYWNpbmciIHRleHRMZW5ndGg9IjE2NiIgeD0iMTA1Ni41IiB5PSIzMjguMDMxMyI+U2F2ZSBBY3Rpdml0eSBQcmVmZXJlbmNlczwvdGV4dD48cmVjdCBmaWxsPSIjRjFGMUYxIiBoZWlnaHQ9IjMyLjg0MzgiIHJ4PSIxMi41IiByeT0iMTIuNSIgc3R5bGU9InN0cm9rZTojMTgxODE4O3N0cm9rZS13aWR0aDowLjU7IiB3aWR0aD0iMTY2IiB4PSIxMDU2LjUiIHk9IjM3NC41MzEzIi8+PHRleHQgZmlsbD0iIzAwMDAwMCIgZm9udC1mYW1pbHk9InNhbnMtc2VyaWYiIGZvbnQtc2l6ZT0iMTIiIGxlbmd0aEFkanVzdD0ic3BhY2luZyIgdGV4dExlbmd0aD0iMTQ2IiB4PSIxMDY2LjUiIHk9IjM5NS44NzUiPlJldHVybiB0byBQcm9maWxlIE1lbnU8L3RleHQ+PHBvbHlnb24gZmlsbD0iI0YxRjFGMSIgcG9pbnRzPSIxNTk3LDIzOC44NDM4LDE3ODksMjM4Ljg0MzgsMTgwMSwyNTAuODQzOCwxNzg5LDI2Mi44NDM4LDE1OTcsMjYyLjg0MzgsMTU4NSwyNTAuODQzOCwxNTk3LDIzOC44NDM4IiBzdHlsZT0ic3Ryb2tlOiMxODE4MTg7c3Ryb2tlLXdpZHRoOjAuNTsiLz48dGV4dCBmaWxsPSIjMDAwMDAwIiBmb250LWZhbWlseT0ic2Fucy1zZXJpZiIgZm9udC1zaXplPSIxMSIgbGVuZ3RoQWRqdXN0PSJzcGFjaW5nIiB0ZXh0TGVuZ3RoPSIxOTIiIHg9IjE1OTciIHk9IjI1NS4zNTU1Ij5TZWxlY3QgRm9vZCAmYW1wOyBEcmluayBQcmVmZXJlbmNlcz88L3RleHQ+PHRleHQgZmlsbD0iIzAwMDAwMCIgZm9udC1mYW1pbHk9InNhbnMtc2VyaWYiIGZvbnQtc2l6ZT0iMTEiIGxlbmd0aEFkanVzdD0ic3BhY2luZyIgdGV4dExlbmd0aD0iMTgiIHg9IjE1NjciIHk9IjI0OS40Njg4Ij55ZXM8L3RleHQ+PHRleHQgZmlsbD0iIzAwMDAwMCIgZm9udC1mYW1pbHk9InNhbnMtc2VyaWYiIGZvbnQtc2l6ZT0iMTEiIGxlbmd0aEFkanVzdD0ic3BhY2luZyIgdGV4dExlbmd0aD0iMTIiIHg9IjE4MDEiIHk9IjI0OS40Njg4Ij5ubzwvdGV4dD48cmVjdCBmaWxsPSIjRjFGMUYxIiBoZWlnaHQ9IjMyLjg0MzgiIHJ4PSIxMi41IiByeT0iMTIuNSIgc3R5bGU9InN0cm9rZTojMTgxODE4O3N0cm9rZS13aWR0aDowLjU7IiB3aWR0aD0iMjg3IiB4PSIxMzM2LjUiIHk9IjI3Mi44NDM4Ii8+PHRleHQgZmlsbD0iIzAwMDAwMCIgZm9udC1mYW1pbHk9InNhbnMtc2VyaWYiIGZvbnQtc2l6ZT0iMTIiIGxlbmd0aEFkanVzdD0ic3BhY2luZyIgdGV4dExlbmd0aD0iMjY3IiB4PSIxMzQ2LjUiIHk9IjI5NC4xODc1Ij5DaG9vc2UgRGlldGFyeSBQcmVmZXJlbmNlcyAoZS5nLiwgVmVnYW4pPC90ZXh0PjxyZWN0IGZpbGw9IiNGMUYxRjEiIGhlaWdodD0iMzIuODQzOCIgcng9IjEyLjUiIHJ5PSIxMi41IiBzdHlsZT0ic3Ryb2tlOiMxODE4MTg7c3Ryb2tlLXdpZHRoOjAuNTsiIHdpZHRoPSIxNTIiIHg9IjE0MDQiIHk9IjM0MC42ODc1Ii8+PHRleHQgZmlsbD0iIzAwMDAwMCIgZm9udC1mYW1pbHk9InNhbnMtc2VyaWYiIGZvbnQtc2l6ZT0iMTIiIGxlbmd0aEFkanVzdD0ic3BhY2luZyIgdGV4dExlbmd0aD0iMTMyIiB4PSIxNDE0IiB5PSIzNjIuMDMxMyI+SW5wdXQgRm9vZCBBbGxlcmdpZXM8L3RleHQ+PHJlY3QgZmlsbD0iI0YxRjFGMSIgaGVpZ2h0PSIzMi44NDM4IiByeD0iMTIuNSIgcnk9IjEyLjUiIHN0eWxlPSJzdHJva2U6IzE4MTgxODtzdHJva2Utd2lkdGg6MC41OyIgd2lkdGg9IjE2NCIgeD0iMTM5OCIgeT0iNDA4LjUzMTMiLz48dGV4dCBmaWxsPSIjMDAwMDAwIiBmb250LWZhbWlseT0ic2Fucy1zZXJpZiIgZm9udC1zaXplPSIxMiIgbGVuZ3RoQWRqdXN0PSJzcGFjaW5nIiB0ZXh0TGVuZ3RoPSIxNDQiIHg9IjE0MDgiIHk9IjQyOS44NzUiPlNlbGVjdCBGYXZvcml0ZSBEcmlua3M8L3RleHQ+PHJlY3QgZmlsbD0iI0YxRjFGMSIgaGVpZ2h0PSIzMi44NDM4IiByeD0iMTIuNSIgcnk9IjEyLjUiIHN0eWxlPSJzdHJva2U6IzE4MTgxODtzdHJva2Utd2lkdGg6MC41OyIgd2lkdGg9IjIxNCIgeD0iMTM3MyIgeT0iNDc2LjM3NSIvPjx0ZXh0IGZpbGw9IiMwMDAwMDAiIGZvbnQtZmFtaWx5PSJzYW5zLXNlcmlmIiBmb250LXNpemU9IjEyIiBsZW5ndGhBZGp1c3Q9InNwYWNpbmciIHRleHRMZW5ndGg9IjE5NCIgeD0iMTM4MyIgeT0iNDk3LjcxODgiPlNhdmUgRm9vZCAmYW1wOyBEcmluayBQcmVmZXJlbmNlczwvdGV4dD48cmVjdCBmaWxsPSIjRjFGMUYxIiBoZWlnaHQ9IjMyLjg0MzgiIHJ4PSIxMi41IiByeT0iMTIuNSIgc3R5bGU9InN0cm9rZTojMTgxODE4O3N0cm9rZS13aWR0aDowLjU7IiB3aWR0aD0iMTY2IiB4PSIxMzk3IiB5PSI1NDQuMjE4OCIvPjx0ZXh0IGZpbGw9IiMwMDAwMDAiIGZvbnQtZmFtaWx5PSJzYW5zLXNlcmlmIiBmb250LXNpemU9IjEyIiBsZW5ndGhBZGp1c3Q9InNwYWNpbmciIHRleHRMZW5ndGg9IjE0NiIgeD0iMTQwNyIgeT0iNTY1LjU2MjUiPlJldHVybiB0byBQcm9maWxlIE1lbnU8L3RleHQ+PHBvbHlnb24gZmlsbD0iI0YxRjFGMSIgcG9pbnRzPSIxODUyLDI3Mi44NDM4LDE5NjAsMjcyLjg0MzgsMTk3MiwyODQuODQzOCwxOTYwLDI5Ni44NDM4LDE4NTIsMjk2Ljg0MzgsMTg0MCwyODQuODQzOCwxODUyLDI3Mi44NDM4IiBzdHlsZT0ic3Ryb2tlOiMxODE4MTg7c3Ryb2tlLXdpZHRoOjAuNTsiLz48dGV4dCBmaWxsPSIjMDAwMDAwIiBmb250LWZhbWlseT0ic2Fucy1zZXJpZiIgZm9udC1zaXplPSIxMSIgbGVuZ3RoQWRqdXN0PSJzcGFjaW5nIiB0ZXh0TGVuZ3RoPSIxMDgiIHg9IjE4NTIiIHk9IjI4OS4zNTU1Ij5FbnRlciBIZWFsdGggSW5mbz88L3RleHQ+PHRleHQgZmlsbD0iIzAwMDAwMCIgZm9udC1mYW1pbHk9InNhbnMtc2VyaWYiIGZvbnQtc2l6ZT0iMTEiIGxlbmd0aEFkanVzdD0ic3BhY2luZyIgdGV4dExlbmd0aD0iMTgiIHg9IjE4MjIiIHk9IjI4My40Njg4Ij55ZXM8L3RleHQ+PHRleHQgZmlsbD0iIzAwMDAwMCIgZm9udC1mYW1pbHk9InNhbnMtc2VyaWYiIGZvbnQtc2l6ZT0iMTEiIGxlbmd0aEFkanVzdD0ic3BhY2luZyIgdGV4dExlbmd0aD0iMTIiIHg9IjE5NzIiIHk9IjI4My40Njg4Ij5ubzwvdGV4dD48cmVjdCBmaWxsPSIjRjFGMUYxIiBoZWlnaHQ9IjMyLjg0MzgiIHJ4PSIxMi41IiByeT0iMTIuNSIgc3R5bGU9InN0cm9rZTojMTgxODE4O3N0cm9rZS13aWR0aDowLjU7IiB3aWR0aD0iMjY4IiB4PSIxNjUzLjUiIHk9IjMwNi44NDM4Ii8+PHRleHQgZmlsbD0iIzAwMDAwMCIgZm9udC1mYW1pbHk9InNhbnMtc2VyaWYiIGZvbnQtc2l6ZT0iMTIiIGxlbmd0aEFkanVzdD0ic3BhY2luZyIgdGV4dExlbmd0aD0iMjQ4IiB4PSIxNjYzLjUiIHk9IjMyOC4xODc1Ij5JbnB1dCBIZWFsdGggQ29uZGl0aW9ucyAoZS5nLiwgQXN0aG1hKTwvdGV4dD48cmVjdCBmaWxsPSIjRjFGMUYxIiBoZWlnaHQ9IjMyLjg0MzgiIHJ4PSIxMi41IiByeT0iMTIuNSIgc3R5bGU9InN0cm9rZTojMTgxODE4O3N0cm9rZS13aWR0aDowLjU7IiB3aWR0aD0iMTUwIiB4PSIxNzEyLjUiIHk9IjM3NC42ODc1Ii8+PHRleHQgZmlsbD0iIzAwMDAwMCIgZm9udC1mYW1pbHk9InNhbnMtc2VyaWYiIGZvbnQtc2l6ZT0iMTIiIGxlbmd0aEFkanVzdD0ic3BhY2luZyIgdGV4dExlbmd0aD0iMTMwIiB4PSIxNzIyLjUiIHk9IjM5Ni4wMzEzIj5TZWxlY3QgRml0bmVzcyBMZXZlbDwvdGV4dD48cmVjdCBmaWxsPSIjRjFGMUYxIiBoZWlnaHQ9IjMyLjg0MzgiIHJ4PSIxMi41IiByeT0iMTIuNSIgc3R5bGU9InN0cm9rZTojMTgxODE4O3N0cm9rZS13aWR0aDowLjU7IiB3aWR0aD0iMTI2IiB4PSIxNzI0LjUiIHk9IjQ0Mi41MzEzIi8+PHRleHQgZmlsbD0iIzAwMDAwMCIgZm9udC1mYW1pbHk9InNhbnMtc2VyaWYiIGZvbnQtc2l6ZT0iMTIiIGxlbmd0aEFkanVzdD0ic3BhY2luZyIgdGV4dExlbmd0aD0iMTA2IiB4PSIxNzM0LjUiIHk9IjQ2My44NzUiPlNhdmUgSGVhbHRoIEluZm88L3RleHQ+PHJlY3QgZmlsbD0iI0YxRjFGMSIgaGVpZ2h0PSIzMi44NDM4IiByeD0iMTIuNSIgcnk9IjEyLjUiIHN0eWxlPSJzdHJva2U6IzE4MTgxODtzdHJva2Utd2lkdGg6MC41OyIgd2lkdGg9IjE2NiIgeD0iMTcwNC41IiB5PSI1MTAuMzc1Ii8+PHRleHQgZmlsbD0iIzAwMDAwMCIgZm9udC1mYW1pbHk9InNhbnMtc2VyaWYiIGZvbnQtc2l6ZT0iMTIiIGxlbmd0aEFkanVzdD0ic3BhY2luZyIgdGV4dExlbmd0aD0iMTQ2IiB4PSIxNzE0LjUiIHk9IjUzMS43MTg4Ij5SZXR1cm4gdG8gUHJvZmlsZSBNZW51PC90ZXh0PjxyZWN0IGZpbGw9IiNGMUYxRjEiIGhlaWdodD0iMzIuODQzOCIgcng9IjEyLjUiIHJ5PSIxMi41IiBzdHlsZT0ic3Ryb2tlOiMxODE4MTg7c3Ryb2tlLXdpZHRoOjAuNTsiIHdpZHRoPSIxMjMiIHg9IjE5NjMiIHk9IjMwNi44NDM4Ii8+PHRleHQgZmlsbD0iIzAwMDAwMCIgZm9udC1mYW1pbHk9InNhbnMtc2VyaWYiIGZvbnQtc2l6ZT0iMTIiIGxlbmd0aEFkanVzdD0ic3BhY2luZyIgdGV4dExlbmd0aD0iMTAzIiB4PSIxOTczIiB5PSIzMjguMTg3NSI+Tm8gQ2hhbmdlcyBNYWRlPC90ZXh0PjxyZWN0IGZpbGw9IiNGMUYxRjEiIGhlaWdodD0iMzIuODQzOCIgcng9IjEyLjUiIHJ5PSIxMi41IiBzdHlsZT0ic3Ryb2tlOiMxODE4MTg7c3Ryb2tlLXdpZHRoOjAuNTsiIHdpZHRoPSIxNjYiIHg9IjE5NDEuNSIgeT0iMzc0LjY4NzUiLz48dGV4dCBmaWxsPSIjMDAwMDAwIiBmb250LWZhbWlseT0ic2Fucy1zZXJpZiIgZm9udC1zaXplPSIxMiIgbGVuZ3RoQWRqdXN0PSJzcGFjaW5nIiB0ZXh0TGVuZ3RoPSIxNDYiIHg9IjE5NTEuNSIgeT0iMzk2LjAzMTMiPlJldHVybiB0byBQcm9maWxlIE1lbnU8L3RleHQ+PHBvbHlnb24gZmlsbD0iI0YxRjFGMSIgcG9pbnRzPSIxOTA2LDU0OS4yMTg4LDE5MTgsNTYxLjIxODgsMTkwNiw1NzMuMjE4OCwxODk0LDU2MS4yMTg4LDE5MDYsNTQ5LjIxODgiIHN0eWxlPSJzdHJva2U6IzE4MTgxODtzdHJva2Utd2lkdGg6MC41OyIvPjxwb2x5Z29uIGZpbGw9IiNGMUYxRjEiIHBvaW50cz0iMTY5Myw1ODMuMDYyNSwxNzA1LDU5NS4wNjI1LDE2OTMsNjA3LjA2MjUsMTY4MSw1OTUuMDYyNSwxNjkzLDU4My4wNjI1IiBzdHlsZT0ic3Ryb2tlOiMxODE4MTg7c3Ryb2tlLXdpZHRoOjAuNTsiLz48cG9seWdvbiBmaWxsPSIjRjFGMUYxIiBwb2ludHM9IjE0MTEsNjEzLjA2MjUsMTQyMyw2MjUuMDYyNSwxNDExLDYzNy4wNjI1LDEzOTksNjI1LjA2MjUsMTQxMSw2MTMuMDYyNSIgc3R5bGU9InN0cm9rZTojMTgxODE4O3N0cm9rZS13aWR0aDowLjU7Ii8+PHBvbHlnb24gZmlsbD0iI0YxRjFGMSIgcG9pbnRzPSIxMDk0LjI1LDY0My4wNjI1LDExMDYuMjUsNjU1LjA2MjUsMTA5NC4yNSw2NjcuMDYyNSwxMDgyLjI1LDY1NS4wNjI1LDEwOTQuMjUsNjQzLjA2MjUiIHN0eWxlPSJzdHJva2U6IzE4MTgxODtzdHJva2Utd2lkdGg6MC41OyIvPjxwb2x5Z29uIGZpbGw9IiNGMUYxRjEiIHBvaW50cz0iNzc3LjYyNSw2NzMuMDYyNSw3ODkuNjI1LDY4NS4wNjI1LDc3Ny42MjUsNjk3LjA2MjUsNzY1LjYyNSw2ODUuMDYyNSw3NzcuNjI1LDY3My4wNjI1IiBzdHlsZT0ic3Ryb2tlOiMxODE4MTg7c3Ryb2tlLXdpZHRoOjAuNTsiLz48cG9seWdvbiBmaWxsPSIjRjFGMUYxIiBwb2ludHM9IjQ2Ni41NjI1LDcwMy4wNjI1LDQ3OC41NjI1LDcxNS4wNjI1LDQ2Ni41NjI1LDcyNy4wNjI1LDQ1NC41NjI1LDcxNS4wNjI1LDQ2Ni41NjI1LDcwMy4wNjI1IiBzdHlsZT0ic3Ryb2tlOiMxODE4MTg7c3Ryb2tlLXdpZHRoOjAuNTsiLz48cmVjdCBmaWxsPSIjRjFGMUYxIiBoZWlnaHQ9IjMyLjg0MzgiIHJ4PSIxMi41IiByeT0iMTIuNSIgc3R5bGU9InN0cm9rZTojMTgxODE4O3N0cm9rZS13aWR0aDowLjU7IiB3aWR0aD0iMTA0IiB4PSI0MTQuNTYyNSIgeT0iNzQ3LjA2MjUiLz48dGV4dCBmaWxsPSIjMDAwMDAwIiBmb250LWZhbWlseT0ic2Fucy1zZXJpZiIgZm9udC1zaXplPSIxMiIgbGVuZ3RoQWRqdXN0PSJzcGFjaW5nIiB0ZXh0TGVuZ3RoPSI4NCIgeD0iNDI0LjU2MjUiIHk9Ijc2OC40MDYzIj5FeGl0IFNldHRpbmdzPC90ZXh0PjxlbGxpcHNlIGN4PSI0NjYuNTYyNSIgY3k9IjgxMC45MDYzIiBmaWxsPSJub25lIiByeD0iMTEiIHJ5PSIxMSIgc3R5bGU9InN0cm9rZTojMjIyMjIyO3N0cm9rZS13aWR0aDoxLjA7Ii8+PGVsbGlwc2UgY3g9IjQ2Ni41NjI1IiBjeT0iODEwLjkwNjMiIGZpbGw9IiMyMjIyMjIiIHJ4PSI2IiByeT0iNiIgc3R5bGU9InN0cm9rZTojMjIyMjIyO3N0cm9rZS13aWR0aDoxLjA7Ii8+PGxpbmUgc3R5bGU9InN0cm9rZTojMTgxODE4O3N0cm9rZS13aWR0aDoxLjA7IiB4MT0iNDY2LjU2MjUiIHgyPSI0NjYuNTYyNSIgeTE9IjMwIiB5Mj0iNTAiLz48cG9seWdvbiBmaWxsPSIjMTgxODE4IiBwb2ludHM9IjQ2Mi41NjI1LDQwLDQ2Ni41NjI1LDUwLDQ3MC41NjI1LDQwLDQ2Ni41NjI1LDQ0IiBzdHlsZT0ic3Ryb2tlOiMxODE4MTg7c3Ryb2tlLXdpZHRoOjEuMDsiLz48bGluZSBzdHlsZT0ic3Ryb2tlOiMxODE4MTg7c3Ryb2tlLXdpZHRoOjEuMDsiIHgxPSIxNTUuNSIgeDI9IjE1NS41IiB5MT0iMTY5LjY4NzUiIHkyPSIyMDQuNjg3NSIvPjxwb2x5Z29uIGZpbGw9IiMxODE4MTgiIHBvaW50cz0iMTUxLjUsMTk0LjY4NzUsMTU1LjUsMjA0LjY4NzUsMTU5LjUsMTk0LjY4NzUsMTU1LjUsMTk4LjY4NzUiIHN0eWxlPSJzdHJva2U6IzE4MTgxODtzdHJva2Utd2lkdGg6MS4wOyIvPjxsaW5lIHN0eWxlPSJzdHJva2U6IzE4MTgxODtzdHJva2Utd2lkdGg6MS4wOyIgeDE9IjE1NS41IiB4Mj0iMTU1LjUiIHkxPSIyMzcuNTMxMyIgeTI9IjI3Mi41MzEzIi8+PHBvbHlnb24gZmlsbD0iIzE4MTgxOCIgcG9pbnRzPSIxNTEuNSwyNjIuNTMxMywxNTUuNSwyNzIuNTMxMywxNTkuNSwyNjIuNTMxMywxNTUuNSwyNjYuNTMxMyIgc3R5bGU9InN0cm9rZTojMTgxODE4O3N0cm9rZS13aWR0aDoxLjA7Ii8+PGxpbmUgc3R5bGU9InN0cm9rZTojMTgxODE4O3N0cm9rZS13aWR0aDoxLjA7IiB4MT0iMTU1LjUiIHgyPSIxNTUuNSIgeTE9IjMwNS4zNzUiIHkyPSIzNDAuMzc1Ii8+PHBvbHlnb24gZmlsbD0iIzE4MTgxOCIgcG9pbnRzPSIxNTEuNSwzMzAuMzc1LDE1NS41LDM0MC4zNzUsMTU5LjUsMzMwLjM3NSwxNTUuNSwzMzQuMzc1IiBzdHlsZT0ic3Ryb2tlOiMxODE4MTg7c3Ryb2tlLXdpZHRoOjEuMDsiLz48bGluZSBzdHlsZT0ic3Ryb2tlOiMxODE4MTg7c3Ryb2tlLXdpZHRoOjEuMDsiIHgxPSIxNTUuNSIgeDI9IjE1NS41IiB5MT0iMzczLjIxODgiIHkyPSI0MDguMjE4OCIvPjxwb2x5Z29uIGZpbGw9IiMxODE4MTgiIHBvaW50cz0iMTUxLjUsMzk4LjIxODgsMTU1LjUsNDA4LjIxODgsMTU5LjUsMzk4LjIxODgsMTU1LjUsNDAyLjIxODgiIHN0eWxlPSJzdHJva2U6IzE4MTgxODtzdHJva2Utd2lkdGg6MS4wOyIvPjxsaW5lIHN0eWxlPSJzdHJva2U6IzE4MTgxODtzdHJva2Utd2lkdGg6MS4wOyIgeDE9IjQ2MSIgeDI9IjQ2MSIgeTE9IjIwMy42ODc1IiB5Mj0iMjM4LjY4NzUiLz48cG9seWdvbiBmaWxsPSIjMTgxODE4IiBwb2ludHM9IjQ1NywyMjguNjg3NSw0NjEsMjM4LjY4NzUsNDY1LDIyOC42ODc1LDQ2MSwyMzIuNjg3NSIgc3R5bGU9InN0cm9rZTojMTgxODE4O3N0cm9rZS13aWR0aDoxLjA7Ii8+PGxpbmUgc3R5bGU9InN0cm9rZTojMTgxODE4O3N0cm9rZS13aWR0aDoxLjA7IiB4MT0iNDYxIiB4Mj0iNDYxIiB5MT0iMjcxLjUzMTMiIHkyPSIzMDYuNTMxMyIvPjxwb2x5Z29uIGZpbGw9IiMxODE4MTgiIHBvaW50cz0iNDU3LDI5Ni41MzEzLDQ2MSwzMDYuNTMxMyw0NjUsMjk2LjUzMTMsNDYxLDMwMC41MzEzIiBzdHlsZT0ic3Ryb2tlOiMxODE4MTg7c3Ryb2tlLXdpZHRoOjEuMDsiLz48bGluZSBzdHlsZT0ic3Ryb2tlOiMxODE4MTg7c3Ryb2tlLXdpZHRoOjEuMDsiIHgxPSI0NjEiIHgyPSI0NjEiIHkxPSIzMzkuMzc1IiB5Mj0iMzc0LjM3NSIvPjxwb2x5Z29uIGZpbGw9IiMxODE4MTgiIHBvaW50cz0iNDU3LDM2NC4zNzUsNDYxLDM3NC4zNzUsNDY1LDM2NC4zNzUsNDYxLDM2OC4zNzUiIHN0eWxlPSJzdHJva2U6IzE4MTgxODtzdHJva2Utd2lkdGg6MS4wOyIvPjxsaW5lIHN0eWxlPSJzdHJva2U6IzE4MTgxODtzdHJva2Utd2lkdGg6MS4wOyIgeDE9IjQ2MSIgeDI9IjQ2MSIgeTE9IjQwNy4yMTg4IiB5Mj0iNDQyLjIxODgiLz48cG9seWdvbiBmaWxsPSIjMTgxODE4IiBwb2ludHM9IjQ1Nyw0MzIuMjE4OCw0NjEsNDQyLjIxODgsNDY1LDQzMi4yMTg4LDQ2MSw0MzYuMjE4OCIgc3R5bGU9InN0cm9rZTojMTgxODE4O3N0cm9rZS13aWR0aDoxLjA7Ii8+PGxpbmUgc3R5bGU9InN0cm9rZTojMTgxODE4O3N0cm9rZS13aWR0aDoxLjA7IiB4MT0iNDYxIiB4Mj0iNDYxIiB5MT0iNDc1LjA2MjUiIHkyPSI1MTAuMDYyNSIvPjxwb2x5Z29uIGZpbGw9IiMxODE4MTgiIHBvaW50cz0iNDU3LDUwMC4wNjI1LDQ2MSw1MTAuMDYyNSw0NjUsNTAwLjA2MjUsNDYxLDUwNC4wNjI1IiBzdHlsZT0ic3Ryb2tlOiMxODE4MTg7c3Ryb2tlLXdpZHRoOjEuMDsiLz48bGluZSBzdHlsZT0ic3Ryb2tlOiMxODE4MTg7c3Ryb2tlLXdpZHRoOjEuMDsiIHgxPSI3ODciIHgyPSI3ODciIHkxPSIyMzcuNjg3NSIgeTI9IjI3Mi42ODc1Ii8+PHBvbHlnb24gZmlsbD0iIzE4MTgxOCIgcG9pbnRzPSI3ODMsMjYyLjY4NzUsNzg3LDI3Mi42ODc1LDc5MSwyNjIuNjg3NSw3ODcsMjY2LjY4NzUiIHN0eWxlPSJzdHJva2U6IzE4MTgxODtzdHJva2Utd2lkdGg6MS4wOyIvPjxsaW5lIHN0eWxlPSJzdHJva2U6IzE4MTgxODtzdHJva2Utd2lkdGg6MS4wOyIgeDE9Ijc4NyIgeDI9Ijc4NyIgeTE9IjMwNS41MzEzIiB5Mj0iMzQwLjUzMTMiLz48cG9seWdvbiBmaWxsPSIjMTgxODE4IiBwb2ludHM9Ijc4MywzMzAuNTMxMyw3ODcsMzQwLjUzMTMsNzkxLDMzMC41MzEzLDc4NywzMzQuNTMxMyIgc3R5bGU9InN0cm9rZTojMTgxODE4O3N0cm9rZS13aWR0aDoxLjA7Ii8+PGxpbmUgc3R5bGU9InN0cm9rZTojMTgxODE4O3N0cm9rZS13aWR0aDoxLjA7IiB4MT0iNzg3IiB4Mj0iNzg3IiB5MT0iMzczLjM3NSIgeTI9IjQwOC4zNzUiLz48cG9seWdvbiBmaWxsPSIjMTgxODE4IiBwb2ludHM9Ijc4MywzOTguMzc1LDc4Nyw0MDguMzc1LDc5MSwzOTguMzc1LDc4Nyw0MDIuMzc1IiBzdHlsZT0ic3Ryb2tlOiMxODE4MTg7c3Ryb2tlLXdpZHRoOjEuMDsiLz48bGluZSBzdHlsZT0ic3Ryb2tlOiMxODE4MTg7c3Ryb2tlLXdpZHRoOjEuMDsiIHgxPSIxMTM5LjUiIHgyPSIxMTM5LjUiIHkxPSIyNzEuNjg3NSIgeTI9IjMwNi42ODc1Ii8+PHBvbHlnb24gZmlsbD0iIzE4MTgxOCIgcG9pbnRzPSIxMTM1LjUsMjk2LjY4NzUsMTEzOS41LDMwNi42ODc1LDExNDMuNSwyOTYuNjg3NSwxMTM5LjUsMzAwLjY4NzUiIHN0eWxlPSJzdHJva2U6IzE4MTgxODtzdHJva2Utd2lkdGg6MS4wOyIvPjxsaW5lIHN0eWxlPSJzdHJva2U6IzE4MTgxODtzdHJva2Utd2lkdGg6MS4wOyIgeDE9IjExMzkuNSIgeDI9IjExMzkuNSIgeTE9IjMzOS41MzEzIiB5Mj0iMzc0LjUzMTMiLz48cG9seWdvbiBmaWxsPSIjMTgxODE4IiBwb2ludHM9IjExMzUuNSwzNjQuNTMxMywxMTM5LjUsMzc0LjUzMTMsMTE0My41LDM2NC41MzEzLDExMzkuNSwzNjguNTMxMyIgc3R5bGU9InN0cm9rZTojMTgxODE4O3N0cm9rZS13aWR0aDoxLjA7Ii8+PGxpbmUgc3R5bGU9InN0cm9rZTojMTgxODE4O3N0cm9rZS13aWR0aDoxLjA7IiB4MT0iMTQ4MCIgeDI9IjE0ODAiIHkxPSIzMDUuNjg3NSIgeTI9IjM0MC42ODc1Ii8+PHBvbHlnb24gZmlsbD0iIzE4MTgxOCIgcG9pbnRzPSIxNDc2LDMzMC42ODc1LDE0ODAsMzQwLjY4NzUsMTQ4NCwzMzAuNjg3NSwxNDgwLDMzNC42ODc1IiBzdHlsZT0ic3Ryb2tlOiMxODE4MTg7c3Ryb2tlLXdpZHRoOjEuMDsiLz48bGluZSBzdHlsZT0ic3Ryb2tlOiMxODE4MTg7c3Ryb2tlLXdpZHRoOjEuMDsiIHgxPSIxNDgwIiB4Mj0iMTQ4MCIgeTE9IjM3My41MzEzIiB5Mj0iNDA4LjUzMTMiLz48cG9seWdvbiBmaWxsPSIjMTgxODE4IiBwb2ludHM9IjE0NzYsMzk4LjUzMTMsMTQ4MCw0MDguNTMxMywxNDg0LDM5OC41MzEzLDE0ODAsNDAyLjUzMTMiIHN0eWxlPSJzdHJva2U6IzE4MTgxODtzdHJva2Utd2lkdGg6MS4wOyIvPjxsaW5lIHN0eWxlPSJzdHJva2U6IzE4MTgxODtzdHJva2Utd2lkdGg6MS4wOyIgeDE9IjE0ODAiIHgyPSIxNDgwIiB5MT0iNDQxLjM3NSIgeTI9IjQ3Ni4zNzUiLz48cG9seWdvbiBmaWxsPSIjMTgxODE4IiBwb2ludHM9IjE0NzYsNDY2LjM3NSwxNDgwLDQ3Ni4zNzUsMTQ4NCw0NjYuMzc1LDE0ODAsNDcwLjM3NSIgc3R5bGU9InN0cm9rZTojMTgxODE4O3N0cm9rZS13aWR0aDoxLjA7Ii8+PGxpbmUgc3R5bGU9InN0cm9rZTojMTgxODE4O3N0cm9rZS13aWR0aDoxLjA7IiB4MT0iMTQ4MCIgeDI9IjE0ODAiIHkxPSI1MDkuMjE4OCIgeTI9IjU0NC4yMTg4Ii8+PHBvbHlnb24gZmlsbD0iIzE4MTgxOCIgcG9pbnRzPSIxNDc2LDUzNC4yMTg4LDE0ODAsNTQ0LjIxODgsMTQ4NCw1MzQuMjE4OCwxNDgwLDUzOC4yMTg4IiBzdHlsZT0ic3Ryb2tlOiMxODE4MTg7c3Ryb2tlLXdpZHRoOjEuMDsiLz48bGluZSBzdHlsZT0ic3Ryb2tlOiMxODE4MTg7c3Ryb2tlLXdpZHRoOjEuMDsiIHgxPSIxNzg3LjUiIHgyPSIxNzg3LjUiIHkxPSIzMzkuNjg3NSIgeTI9IjM3NC42ODc1Ii8+PHBvbHlnb24gZmlsbD0iIzE4MTgxOCIgcG9pbnRzPSIxNzgzLjUsMzY0LjY4NzUsMTc4Ny41LDM3NC42ODc1LDE3OTEuNSwzNjQuNjg3NSwxNzg3LjUsMzY4LjY4NzUiIHN0eWxlPSJzdHJva2U6IzE4MTgxODtzdHJva2Utd2lkdGg6MS4wOyIvPjxsaW5lIHN0eWxlPSJzdHJva2U6IzE4MTgxODtzdHJva2Utd2lkdGg6MS4wOyIgeDE9IjE3ODcuNSIgeDI9IjE3ODcuNSIgeTE9IjQwNy41MzEzIiB5Mj0iNDQyLjUzMTMiLz48cG9seWdvbiBmaWxsPSIjMTgxODE4IiBwb2ludHM9IjE3ODMuNSw0MzIuNTMxMywxNzg3LjUsNDQyLjUzMTMsMTc5MS41LDQzMi41MzEzLDE3ODcuNSw0MzYuNTMxMyIgc3R5bGU9InN0cm9rZTojMTgxODE4O3N0cm9rZS13aWR0aDoxLjA7Ii8+PGxpbmUgc3R5bGU9InN0cm9rZTojMTgxODE4O3N0cm9rZS13aWR0aDoxLjA7IiB4MT0iMTc4Ny41IiB4Mj0iMTc4Ny41IiB5MT0iNDc1LjM3NSIgeTI9IjUxMC4zNzUiLz48cG9seWdvbiBmaWxsPSIjMTgxODE4IiBwb2ludHM9IjE3ODMuNSw1MDAuMzc1LDE3ODcuNSw1MTAuMzc1LDE3OTEuNSw1MDAuMzc1LDE3ODcuNSw1MDQuMzc1IiBzdHlsZT0ic3Ryb2tlOiMxODE4MTg7c3Ryb2tlLXdpZHRoOjEuMDsiLz48bGluZSBzdHlsZT0ic3Ryb2tlOiMxODE4MTg7c3Ryb2tlLXdpZHRoOjEuMDsiIHgxPSIyMDI0LjUiIHgyPSIyMDI0LjUiIHkxPSIzMzkuNjg3NSIgeTI9IjM3NC42ODc1Ii8+PHBvbHlnb24gZmlsbD0iIzE4MTgxOCIgcG9pbnRzPSIyMDIwLjUsMzY0LjY4NzUsMjAyNC41LDM3NC42ODc1LDIwMjguNSwzNjQuNjg3NSwyMDI0LjUsMzY4LjY4NzUiIHN0eWxlPSJzdHJva2U6IzE4MTgxODtzdHJva2Utd2lkdGg6MS4wOyIvPjxsaW5lIHN0eWxlPSJzdHJva2U6IzE4MTgxODtzdHJva2Utd2lkdGg6MS4wOyIgeDE9IjE4NDAiIHgyPSIxNzg3LjUiIHkxPSIyODQuODQzOCIgeTI9IjI4NC44NDM4Ii8+PGxpbmUgc3R5bGU9InN0cm9rZTojMTgxODE4O3N0cm9rZS13aWR0aDoxLjA7IiB4MT0iMTc4Ny41IiB4Mj0iMTc4Ny41IiB5MT0iMjg0Ljg0MzgiIHkyPSIzMDYuODQzOCIvPjxwb2x5Z29uIGZpbGw9IiMxODE4MTgiIHBvaW50cz0iMTc4My41LDI5Ni44NDM4LDE3ODcuNSwzMDYuODQzOCwxNzkxLjUsMjk2Ljg0MzgsMTc4Ny41LDMwMC44NDM4IiBzdHlsZT0ic3Ryb2tlOiMxODE4MTg7c3Ryb2tlLXdpZHRoOjEuMDsiLz48bGluZSBzdHlsZT0ic3Ryb2tlOiMxODE4MTg7c3Ryb2tlLXdpZHRoOjEuMDsiIHgxPSIxOTcyIiB4Mj0iMjAyNC41IiB5MT0iMjg0Ljg0MzgiIHkyPSIyODQuODQzOCIvPjxsaW5lIHN0eWxlPSJzdHJva2U6IzE4MTgxODtzdHJva2Utd2lkdGg6MS4wOyIgeDE9IjIwMjQuNSIgeDI9IjIwMjQuNSIgeTE9IjI4NC44NDM4IiB5Mj0iMzA2Ljg0MzgiLz48cG9seWdvbiBmaWxsPSIjMTgxODE4IiBwb2ludHM9IjIwMjAuNSwyOTYuODQzOCwyMDI0LjUsMzA2Ljg0MzgsMjAyOC41LDI5Ni44NDM4LDIwMjQuNSwzMDAuODQzOCIgc3R5bGU9InN0cm9rZTojMTgxODE4O3N0cm9rZS13aWR0aDoxLjA7Ii8+PGxpbmUgc3R5bGU9InN0cm9rZTojMTgxODE4O3N0cm9rZS13aWR0aDoxLjA7IiB4MT0iMTc4Ny41IiB4Mj0iMTc4Ny41IiB5MT0iNTQzLjIxODgiIHkyPSI1NjEuMjE4OCIvPjxsaW5lIHN0eWxlPSJzdHJva2U6IzE4MTgxODtzdHJva2Utd2lkdGg6MS4wOyIgeDE9IjE3ODcuNSIgeDI9IjE4OTQiIHkxPSI1NjEuMjE4OCIgeTI9IjU2MS4yMTg4Ii8+PHBvbHlnb24gZmlsbD0iIzE4MTgxOCIgcG9pbnRzPSIxODg0LDU1Ny4yMTg4LDE4OTQsNTYxLjIxODgsMTg4NCw1NjUuMjE4OCwxODg4LDU2MS4yMTg4IiBzdHlsZT0ic3Ryb2tlOiMxODE4MTg7c3Ryb2tlLXdpZHRoOjEuMDsiLz48bGluZSBzdHlsZT0ic3Ryb2tlOiMxODE4MTg7c3Ryb2tlLXdpZHRoOjEuMDsiIHgxPSIyMDI0LjUiIHgyPSIyMDI0LjUiIHkxPSI0MDcuNTMxMyIgeTI9IjU2MS4yMTg4Ii8+PGxpbmUgc3R5bGU9InN0cm9rZTojMTgxODE4O3N0cm9rZS13aWR0aDoxLjA7IiB4MT0iMjAyNC41IiB4Mj0iMTkxOCIgeTE9IjU2MS4yMTg4IiB5Mj0iNTYxLjIxODgiLz48cG9seWdvbiBmaWxsPSIjMTgxODE4IiBwb2ludHM9IjE5MjgsNTU3LjIxODgsMTkxOCw1NjEuMjE4OCwxOTI4LDU2NS4yMTg4LDE5MjQsNTYxLjIxODgiIHN0eWxlPSJzdHJva2U6IzE4MTgxODtzdHJva2Utd2lkdGg6MS4wOyIvPjxsaW5lIHN0eWxlPSJzdHJva2U6IzE4MTgxODtzdHJva2Utd2lkdGg6MS4wOyIgeDE9IjE1ODUiIHgyPSIxNDgwIiB5MT0iMjUwLjg0MzgiIHkyPSIyNTAuODQzOCIvPjxsaW5lIHN0eWxlPSJzdHJva2U6IzE4MTgxODtzdHJva2Utd2lkdGg6MS4wOyIgeDE9IjE0ODAiIHgyPSIxNDgwIiB5MT0iMjUwLjg0MzgiIHkyPSIyNzIuODQzOCIvPjxwb2x5Z29uIGZpbGw9IiMxODE4MTgiIHBvaW50cz0iMTQ3NiwyNjIuODQzOCwxNDgwLDI3Mi44NDM4LDE0ODQsMjYyLjg0MzgsMTQ4MCwyNjYuODQzOCIgc3R5bGU9InN0cm9rZTojMTgxODE4O3N0cm9rZS13aWR0aDoxLjA7Ii8+PGxpbmUgc3R5bGU9InN0cm9rZTojMTgxODE4O3N0cm9rZS13aWR0aDoxLjA7IiB4MT0iMTgwMSIgeDI9IjE5MDYiIHkxPSIyNTAuODQzOCIgeTI9IjI1MC44NDM4Ii8+PGxpbmUgc3R5bGU9InN0cm9rZTojMTgxODE4O3N0cm9rZS13aWR0aDoxLjA7IiB4MT0iMTkwNiIgeDI9IjE5MDYiIHkxPSIyNTAuODQzOCIgeTI9IjI3Mi44NDM4Ii8+PHBvbHlnb24gZmlsbD0iIzE4MTgxOCIgcG9pbnRzPSIxOTAyLDI2Mi44NDM4LDE5MDYsMjcyLjg0MzgsMTkxMCwyNjIuODQzOCwxOTA2LDI2Ni44NDM4IiBzdHlsZT0ic3Ryb2tlOiMxODE4MTg7c3Ryb2tlLXdpZHRoOjEuMDsiLz48bGluZSBzdHlsZT0ic3Ryb2tlOiMxODE4MTg7c3Ryb2tlLXdpZHRoOjEuMDsiIHgxPSIxNDgwIiB4Mj0iMTQ4MCIgeTE9IjU3Ny4wNjI1IiB5Mj0iNTk1LjA2MjUiLz48bGluZSBzdHlsZT0ic3Ryb2tlOiMxODE4MTg7c3Ryb2tlLXdpZHRoOjEuMDsiIHgxPSIxNDgwIiB4Mj0iMTY4MSIgeTE9IjU5NS4wNjI1IiB5Mj0iNTk1LjA2MjUiLz48cG9seWdvbiBmaWxsPSIjMTgxODE4IiBwb2ludHM9IjE2NzEsNTkxLjA2MjUsMTY4MSw1OTUuMDYyNSwxNjcxLDU5OS4wNjI1LDE2NzUsNTk1LjA2MjUiIHN0eWxlPSJzdHJva2U6IzE4MTgxODtzdHJva2Utd2lkdGg6MS4wOyIvPjxsaW5lIHN0eWxlPSJzdHJva2U6IzE4MTgxODtzdHJva2Utd2lkdGg6MS4wOyIgeDE9IjE5MDYiIHgyPSIxOTA2IiB5MT0iNTczLjIxODgiIHkyPSI1OTUuMDYyNSIvPjxsaW5lIHN0eWxlPSJzdHJva2U6IzE4MTgxODtzdHJva2Utd2lkdGg6MS4wOyIgeDE9IjE5MDYiIHgyPSIxNzA1IiB5MT0iNTk1LjA2MjUiIHkyPSI1OTUuMDYyNSIvPjxwb2x5Z29uIGZpbGw9IiMxODE4MTgiIHBvaW50cz0iMTcxNSw1OTEuMDYyNSwxNzA1LDU5NS4wNjI1LDE3MTUsNTk5LjA2MjUsMTcxMSw1OTUuMDYyNSIgc3R5bGU9InN0cm9rZTojMTgxODE4O3N0cm9rZS13aWR0aDoxLjA7Ii8+PGxpbmUgc3R5bGU9InN0cm9rZTojMTgxODE4O3N0cm9rZS13aWR0aDoxLjA7IiB4MT0iMTM0NSIgeDI9IjExMzkuNSIgeTE9IjIxNi44NDM4IiB5Mj0iMjE2Ljg0MzgiLz48bGluZSBzdHlsZT0ic3Ryb2tlOiMxODE4MTg7c3Ryb2tlLXdpZHRoOjEuMDsiIHgxPSIxMTM5LjUiIHgyPSIxMTM5LjUiIHkxPSIyMTYuODQzOCIgeTI9IjIzOC44NDM4Ii8+PHBvbHlnb24gZmlsbD0iIzE4MTgxOCIgcG9pbnRzPSIxMTM1LjUsMjI4Ljg0MzgsMTEzOS41LDIzOC44NDM4LDExNDMuNSwyMjguODQzOCwxMTM5LjUsMjMyLjg0MzgiIHN0eWxlPSJzdHJva2U6IzE4MTgxODtzdHJva2Utd2lkdGg6MS4wOyIvPjxsaW5lIHN0eWxlPSJzdHJva2U6IzE4MTgxODtzdHJva2Utd2lkdGg6MS4wOyIgeDE9IjE0NzciIHgyPSIxNjkzIiB5MT0iMjE2Ljg0MzgiIHkyPSIyMTYuODQzOCIvPjxsaW5lIHN0eWxlPSJzdHJva2U6IzE4MTgxODtzdHJva2Utd2lkdGg6MS4wOyIgeDE9IjE2OTMiIHgyPSIxNjkzIiB5MT0iMjE2Ljg0MzgiIHkyPSIyMzguODQzOCIvPjxwb2x5Z29uIGZpbGw9IiMxODE4MTgiIHBvaW50cz0iMTY4OSwyMjguODQzOCwxNjkzLDIzOC44NDM4LDE2OTcsMjI4Ljg0MzgsMTY5MywyMzIuODQzOCIgc3R5bGU9InN0cm9rZTojMTgxODE4O3N0cm9rZS13aWR0aDoxLjA7Ii8+PGxpbmUgc3R5bGU9InN0cm9rZTojMTgxODE4O3N0cm9rZS13aWR0aDoxLjA7IiB4MT0iMTEzOS41IiB4Mj0iMTEzOS41IiB5MT0iNDA3LjM3NSIgeTI9IjYyNS4wNjI1Ii8+PGxpbmUgc3R5bGU9InN0cm9rZTojMTgxODE4O3N0cm9rZS13aWR0aDoxLjA7IiB4MT0iMTEzOS41IiB4Mj0iMTM5OSIgeTE9IjYyNS4wNjI1IiB5Mj0iNjI1LjA2MjUiLz48cG9seWdvbiBmaWxsPSIjMTgxODE4IiBwb2ludHM9IjEzODksNjIxLjA2MjUsMTM5OSw2MjUuMDYyNSwxMzg5LDYyOS4wNjI1LDEzOTMsNjI1LjA2MjUiIHN0eWxlPSJzdHJva2U6IzE4MTgxODtzdHJva2Utd2lkdGg6MS4wOyIvPjxsaW5lIHN0eWxlPSJzdHJva2U6IzE4MTgxODtzdHJva2Utd2lkdGg6MS4wOyIgeDE9IjE2OTMiIHgyPSIxNjkzIiB5MT0iNjA3LjA2MjUiIHkyPSI2MjUuMDYyNSIvPjxsaW5lIHN0eWxlPSJzdHJva2U6IzE4MTgxODtzdHJva2Utd2lkdGg6MS4wOyIgeDE9IjE2OTMiIHgyPSIxNDIzIiB5MT0iNjI1LjA2MjUiIHkyPSI2MjUuMDYyNSIvPjxwb2x5Z29uIGZpbGw9IiMxODE4MTgiIHBvaW50cz0iMTQzMyw2MjEuMDYyNSwxNDIzLDYyNS4wNjI1LDE0MzMsNjI5LjA2MjUsMTQyOSw2MjUuMDYyNSIgc3R5bGU9InN0cm9rZTojMTgxODE4O3N0cm9rZS13aWR0aDoxLjA7Ii8+PGxpbmUgc3R5bGU9InN0cm9rZTojMTgxODE4O3N0cm9rZS13aWR0aDoxLjA7IiB4MT0iMTAzMS4yNSIgeDI9Ijc4NyIgeTE9IjE4Mi44NDM4IiB5Mj0iMTgyLjg0MzgiLz48bGluZSBzdHlsZT0ic3Ryb2tlOiMxODE4MTg7c3Ryb2tlLXdpZHRoOjEuMDsiIHgxPSI3ODciIHgyPSI3ODciIHkxPSIxODIuODQzOCIgeTI9IjIwNC44NDM4Ii8+PHBvbHlnb24gZmlsbD0iIzE4MTgxOCIgcG9pbnRzPSI3ODMsMTk0Ljg0MzgsNzg3LDIwNC44NDM4LDc5MSwxOTQuODQzOCw3ODcsMTk4Ljg0MzgiIHN0eWxlPSJzdHJva2U6IzE4MTgxODtzdHJva2Utd2lkdGg6MS4wOyIvPjxsaW5lIHN0eWxlPSJzdHJva2U6IzE4MTgxODtzdHJva2Utd2lkdGg6MS4wOyIgeDE9IjExNTcuMjUiIHgyPSIxNDExIiB5MT0iMTgyLjg0MzgiIHkyPSIxODIuODQzOCIvPjxsaW5lIHN0eWxlPSJzdHJva2U6IzE4MTgxODtzdHJva2Utd2lkdGg6MS4wOyIgeDE9IjE0MTEiIHgyPSIxNDExIiB5MT0iMTgyLjg0MzgiIHkyPSIyMDQuODQzOCIvPjxwb2x5Z29uIGZpbGw9IiMxODE4MTgiIHBvaW50cz0iMTQwNywxOTQuODQzOCwxNDExLDIwNC44NDM4LDE0MTUsMTk0Ljg0MzgsMTQxMSwxOTguODQzOCIgc3R5bGU9InN0cm9rZTojMTgxODE4O3N0cm9rZS13aWR0aDoxLjA7Ii8+PGxpbmUgc3R5bGU9InN0cm9rZTojMTgxODE4O3N0cm9rZS13aWR0aDoxLjA7IiB4MT0iNzg3IiB4Mj0iNzg3IiB5MT0iNDQxLjIxODgiIHkyPSI2NTUuMDYyNSIvPjxsaW5lIHN0eWxlPSJzdHJva2U6IzE4MTgxODtzdHJva2Utd2lkdGg6MS4wOyIgeDE9Ijc4NyIgeDI9IjEwODIuMjUiIHkxPSI2NTUuMDYyNSIgeTI9IjY1NS4wNjI1Ii8+PHBvbHlnb24gZmlsbD0iIzE4MTgxOCIgcG9pbnRzPSIxMDcyLjI1LDY1MS4wNjI1LDEwODIuMjUsNjU1LjA2MjUsMTA3Mi4yNSw2NTkuMDYyNSwxMDc2LjI1LDY1NS4wNjI1IiBzdHlsZT0ic3Ryb2tlOiMxODE4MTg7c3Ryb2tlLXdpZHRoOjEuMDsiLz48bGluZSBzdHlsZT0ic3Ryb2tlOiMxODE4MTg7c3Ryb2tlLXdpZHRoOjEuMDsiIHgxPSIxNDExIiB4Mj0iMTQxMSIgeTE9IjYzNy4wNjI1IiB5Mj0iNjU1LjA2MjUiLz48bGluZSBzdHlsZT0ic3Ryb2tlOiMxODE4MTg7c3Ryb2tlLXdpZHRoOjEuMDsiIHgxPSIxNDExIiB4Mj0iMTEwNi4yNSIgeTE9IjY1NS4wNjI1IiB5Mj0iNjU1LjA2MjUiLz48cG9seWdvbiBmaWxsPSIjMTgxODE4IiBwb2ludHM9IjExMTYuMjUsNjUxLjA2MjUsMTEwNi4yNSw2NTUuMDYyNSwxMTE2LjI1LDY1OS4wNjI1LDExMTIuMjUsNjU1LjA2MjUiIHN0eWxlPSJzdHJva2U6IzE4MTgxODtzdHJva2Utd2lkdGg6MS4wOyIvPjxsaW5lIHN0eWxlPSJzdHJva2U6IzE4MTgxODtzdHJva2Utd2lkdGg6MS4wOyIgeDE9IjY4NC42MjUiIHgyPSI0NjEiIHkxPSIxNDguODQzOCIgeTI9IjE0OC44NDM4Ii8+PGxpbmUgc3R5bGU9InN0cm9rZTojMTgxODE4O3N0cm9rZS13aWR0aDoxLjA7IiB4MT0iNDYxIiB4Mj0iNDYxIiB5MT0iMTQ4Ljg0MzgiIHkyPSIxNzAuODQzOCIvPjxwb2x5Z29uIGZpbGw9IiMxODE4MTgiIHBvaW50cz0iNDU3LDE2MC44NDM4LDQ2MSwxNzAuODQzOCw0NjUsMTYwLjg0MzgsNDYxLDE2NC44NDM4IiBzdHlsZT0ic3Ryb2tlOiMxODE4MTg7c3Ryb2tlLXdpZHRoOjEuMDsiLz48bGluZSBzdHlsZT0ic3Ryb2tlOiMxODE4MTg7c3Ryb2tlLXdpZHRoOjEuMDsiIHgxPSI4NzAuNjI1IiB4Mj0iMTA5NC4yNSIgeTE9IjE0OC44NDM4IiB5Mj0iMTQ4Ljg0MzgiLz48bGluZSBzdHlsZT0ic3Ryb2tlOiMxODE4MTg7c3Ryb2tlLXdpZHRoOjEuMDsiIHgxPSIxMDk0LjI1IiB4Mj0iMTA5NC4yNSIgeTE9IjE0OC44NDM4IiB5Mj0iMTcwLjg0MzgiLz48cG9seWdvbiBmaWxsPSIjMTgxODE4IiBwb2ludHM9IjEwOTAuMjUsMTYwLjg0MzgsMTA5NC4yNSwxNzAuODQzOCwxMDk4LjI1LDE2MC44NDM4LDEwOTQuMjUsMTY0Ljg0MzgiIHN0eWxlPSJzdHJva2U6IzE4MTgxODtzdHJva2Utd2lkdGg6MS4wOyIvPjxsaW5lIHN0eWxlPSJzdHJva2U6IzE4MTgxODtzdHJva2Utd2lkdGg6MS4wOyIgeDE9IjQ2MSIgeDI9IjQ2MSIgeTE9IjU0Mi45MDYzIiB5Mj0iNjg1LjA2MjUiLz48bGluZSBzdHlsZT0ic3Ryb2tlOiMxODE4MTg7c3Ryb2tlLXdpZHRoOjEuMDsiIHgxPSI0NjEiIHgyPSI3NjUuNjI1IiB5MT0iNjg1LjA2MjUiIHkyPSI2ODUuMDYyNSIvPjxwb2x5Z29uIGZpbGw9IiMxODE4MTgiIHBvaW50cz0iNzU1LjYyNSw2ODEuMDYyNSw3NjUuNjI1LDY4NS4wNjI1LDc1NS42MjUsNjg5LjA2MjUsNzU5LjYyNSw2ODUuMDYyNSIgc3R5bGU9InN0cm9rZTojMTgxODE4O3N0cm9rZS13aWR0aDoxLjA7Ii8+PGxpbmUgc3R5bGU9InN0cm9rZTojMTgxODE4O3N0cm9rZS13aWR0aDoxLjA7IiB4MT0iMTA5NC4yNSIgeDI9IjEwOTQuMjUiIHkxPSI2NjcuMDYyNSIgeTI9IjY4NS4wNjI1Ii8+PGxpbmUgc3R5bGU9InN0cm9rZTojMTgxODE4O3N0cm9rZS13aWR0aDoxLjA7IiB4MT0iMTA5NC4yNSIgeDI9Ijc4OS42MjUiIHkxPSI2ODUuMDYyNSIgeTI9IjY4NS4wNjI1Ii8+PHBvbHlnb24gZmlsbD0iIzE4MTgxOCIgcG9pbnRzPSI3OTkuNjI1LDY4MS4wNjI1LDc4OS42MjUsNjg1LjA2MjUsNzk5LjYyNSw2ODkuMDYyNSw3OTUuNjI1LDY4NS4wNjI1IiBzdHlsZT0ic3Ryb2tlOiMxODE4MTg7c3Ryb2tlLXdpZHRoOjEuMDsiLz48bGluZSBzdHlsZT0ic3Ryb2tlOiMxODE4MTg7c3Ryb2tlLXdpZHRoOjEuMDsiIHgxPSIzNjcuNTYyNSIgeDI9IjE1NS41IiB5MT0iMTE0Ljg0MzgiIHkyPSIxMTQuODQzOCIvPjxsaW5lIHN0eWxlPSJzdHJva2U6IzE4MTgxODtzdHJva2Utd2lkdGg6MS4wOyIgeDE9IjE1NS41IiB4Mj0iMTU1LjUiIHkxPSIxMTQuODQzOCIgeTI9IjEzNi44NDM4Ii8+PHBvbHlnb24gZmlsbD0iIzE4MTgxOCIgcG9pbnRzPSIxNTEuNSwxMjYuODQzOCwxNTUuNSwxMzYuODQzOCwxNTkuNSwxMjYuODQzOCwxNTUuNSwxMzAuODQzOCIgc3R5bGU9InN0cm9rZTojMTgxODE4O3N0cm9rZS13aWR0aDoxLjA7Ii8+PGxpbmUgc3R5bGU9InN0cm9rZTojMTgxODE4O3N0cm9rZS13aWR0aDoxLjA7IiB4MT0iNTY1LjU2MjUiIHgyPSI3NzcuNjI1IiB5MT0iMTE0Ljg0MzgiIHkyPSIxMTQuODQzOCIvPjxsaW5lIHN0eWxlPSJzdHJva2U6IzE4MTgxODtzdHJva2Utd2lkdGg6MS4wOyIgeDE9Ijc3Ny42MjUiIHgyPSI3NzcuNjI1IiB5MT0iMTE0Ljg0MzgiIHkyPSIxMzYuODQzOCIvPjxwb2x5Z29uIGZpbGw9IiMxODE4MTgiIHBvaW50cz0iNzczLjYyNSwxMjYuODQzOCw3NzcuNjI1LDEzNi44NDM4LDc4MS42MjUsMTI2Ljg0MzgsNzc3LjYyNSwxMzAuODQzOCIgc3R5bGU9InN0cm9rZTojMTgxODE4O3N0cm9rZS13aWR0aDoxLjA7Ii8+PGxpbmUgc3R5bGU9InN0cm9rZTojMTgxODE4O3N0cm9rZS13aWR0aDoxLjA7IiB4MT0iMTU1LjUiIHgyPSIxNTUuNSIgeTE9IjQ0MS4wNjI1IiB5Mj0iNzE1LjA2MjUiLz48bGluZSBzdHlsZT0ic3Ryb2tlOiMxODE4MTg7c3Ryb2tlLXdpZHRoOjEuMDsiIHgxPSIxNTUuNSIgeDI9IjQ1NC41NjI1IiB5MT0iNzE1LjA2MjUiIHkyPSI3MTUuMDYyNSIvPjxwb2x5Z29uIGZpbGw9IiMxODE4MTgiIHBvaW50cz0iNDQ0LjU2MjUsNzExLjA2MjUsNDU0LjU2MjUsNzE1LjA2MjUsNDQ0LjU2MjUsNzE5LjA2MjUsNDQ4LjU2MjUsNzE1LjA2MjUiIHN0eWxlPSJzdHJva2U6IzE4MTgxODtzdHJva2Utd2lkdGg6MS4wOyIvPjxsaW5lIHN0eWxlPSJzdHJva2U6IzE4MTgxODtzdHJva2Utd2lkdGg6MS4wOyIgeDE9Ijc3Ny42MjUiIHgyPSI3NzcuNjI1IiB5MT0iNjk3LjA2MjUiIHkyPSI3MTUuMDYyNSIvPjxsaW5lIHN0eWxlPSJzdHJva2U6IzE4MTgxODtzdHJva2Utd2lkdGg6MS4wOyIgeDE9Ijc3Ny42MjUiIHgyPSI0NzguNTYyNSIgeTE9IjcxNS4wNjI1IiB5Mj0iNzE1LjA2MjUiLz48cG9seWdvbiBmaWxsPSIjMTgxODE4IiBwb2ludHM9IjQ4OC41NjI1LDcxMS4wNjI1LDQ3OC41NjI1LDcxNS4wNjI1LDQ4OC41NjI1LDcxOS4wNjI1LDQ4NC41NjI1LDcxNS4wNjI1IiBzdHlsZT0ic3Ryb2tlOiMxODE4MTg7c3Ryb2tlLXdpZHRoOjEuMDsiLz48bGluZSBzdHlsZT0ic3Ryb2tlOiMxODE4MTg7c3Ryb2tlLXdpZHRoOjEuMDsiIHgxPSI0NjYuNTYyNSIgeDI9IjQ2Ni41NjI1IiB5MT0iODIuODQzOCIgeTI9IjEwMi44NDM4Ii8+PHBvbHlnb24gZmlsbD0iIzE4MTgxOCIgcG9pbnRzPSI0NjIuNTYyNSw5Mi44NDM4LDQ2Ni41NjI1LDEwMi44NDM4LDQ3MC41NjI1LDkyLjg0MzgsNDY2LjU2MjUsOTYuODQzOCIgc3R5bGU9InN0cm9rZTojMTgxODE4O3N0cm9rZS13aWR0aDoxLjA7Ii8+PGxpbmUgc3R5bGU9InN0cm9rZTojMTgxODE4O3N0cm9rZS13aWR0aDoxLjA7IiB4MT0iNDY2LjU2MjUiIHgyPSI0NjYuNTYyNSIgeTE9IjcyNy4wNjI1IiB5Mj0iNzQ3LjA2MjUiLz48cG9seWdvbiBmaWxsPSIjMTgxODE4IiBwb2ludHM9IjQ2Mi41NjI1LDczNy4wNjI1LDQ2Ni41NjI1LDc0Ny4wNjI1LDQ3MC41NjI1LDczNy4wNjI1LDQ2Ni41NjI1LDc0MS4wNjI1IiBzdHlsZT0ic3Ryb2tlOiMxODE4MTg7c3Ryb2tlLXdpZHRoOjEuMDsiLz48bGluZSBzdHlsZT0ic3Ryb2tlOiMxODE4MTg7c3Ryb2tlLXdpZHRoOjEuMDsiIHgxPSI0NjYuNTYyNSIgeDI9IjQ2Ni41NjI1IiB5MT0iNzc5LjkwNjMiIHkyPSI3OTkuOTA2MyIvPjxwb2x5Z29uIGZpbGw9IiMxODE4MTgiIHBvaW50cz0iNDYyLjU2MjUsNzg5LjkwNjMsNDY2LjU2MjUsNzk5LjkwNjMsNDcwLjU2MjUsNzg5LjkwNjMsNDY2LjU2MjUsNzkzLjkwNjMiIHN0eWxlPSJzdHJva2U6IzE4MTgxODtzdHJva2Utd2lkdGg6MS4wOyIvPjwhLS1TUkM9W2JQSDFaemVtNDhObC1ITHBnZUE0YlppU0FXaEJXV0dCQWt0VUJKOTlsOWxPcjF4SnZqenRKMTltczQzTDJxd09EeXh4ZFlVbjkwbjVxTlh4SDBLX0JIaE82UHRBMGM2M29hc1lJQU9HeHg3MDB5Nmg5ZmRBV28yZjVVb0hJQWhDVlhxMHZUbVJMc1c3NFMyTzJ4MXBEa19BVG1QSkRBV0UyRjVNWlJQZkVmWXF3ZXZtT1YyTk9ydExOX3ZIN1Q3TTlONzJWYWxkeWRTYVBuSUdsVzcybWg4NWZSdE5XRXJESXhSc3VjSTJDQ2x6cElTb3RmR2hjampoeUxnZXA4YUM5cHFyUm5GWVpJWG1qQzJJYnE2WmNZUmxwWEJpWnVZN19CbWF5OE1SMmJVczZ0ZGNTeHpFT1FLaTZOVm1VMVJZRVA5V2FjSXFUc0tmSkRMa1VldVk5MFlKVTkwNUc5WDY5dS1MOFp1a0lwcWZONWJSNFNtNE9RUURIM1E5SnpkSjQ5UklhWlJMNEFRNjZmaURzZ0xmUG9JdEswTm5LY1J2UThFOVRFTGVoTnk3VVd6c2lOQnYtcHhGQkw2N1FTZXZkWUg5eDhNd09qTXBRbFhhaFhxanJwVnZtUzRFT1VDaWtqOVVoQlBjY3V1ZzY3V1JRMXV2Xy1venV0d1hqSC1Ma1A3Zzh6b3pkLUxBQ3ZTeURRUFpnOEx2bXFvZTA4NlJMa2hlY2NURFltOUQ5YUZfdm9FaXRPWUpGcG9pX1RuOFYxM3R4N1FLWi1GZTJ3SUV2RGNGMTJuSDU5SnBWQUp3TldXTmVhT3hxb2dIcFRqS1BwMnJiOVVZNHE5MEFLY1hqUjM2NG5RdDRheVBNQldmX21rajd1dVJOcExfV0ZaSm1pVXE0R2QtX3hQQ2M0UHpUelZoemdmVXd6emVfRm43S2wzZllGV0RGbHU1XS0tPjwvZz48L3N2Zz4=;" vertex="1" parent="1">
            <mxGeometry x="-2270" y="-2320" width="2774.79" height="1090" as="geometry" />
          </mxCell>
        </UserObject>
      </root>
    </mxGraphModel>
  </diagram>
  <diagram id="jymn0KND2XLUBc9GxZA1" name="Sequens diagram">
    <mxGraphModel dx="7277" dy="3954" grid="1" gridSize="10" guides="1" tooltips="1" connect="1" arrows="1" fold="1" page="1" pageScale="1" pageWidth="827" pageHeight="1169" math="0" shadow="0">
      <root>
        <mxCell id="0" />
        <mxCell id="1" parent="0" />
        <UserObject label="" plantUmlData="{&#xa;  &quot;data&quot;: &quot;@startuml\nactor User\nparticipant \&quot;Profile Menu\&quot; as ProfileMenu\nparticipant \&quot;Notification Settings\&quot; as NotifSettings\nparticipant \&quot;Voice Guide Settings\&quot; as VoiceSettings\nparticipant \&quot;Interest Settings\&quot; as InterestSettings\nparticipant \&quot;Activity Settings\&quot; as ActivitySettings\nparticipant \&quot;Food &amp; Drink Settings\&quot; as FoodSettings\nparticipant \&quot;Health Info Settings\&quot; as HealthInfo\nparticipant \&quot;System\&quot; as System\n\nUser -&gt; ProfileMenu : Open Profile Menu\nProfileMenu -&gt; User : Display options (Notifications, Voice Guide, Interests, etc.)\n\nUser -&gt; ProfileMenu : Select Notification Settings\nProfileMenu -&gt; NotifSettings : Open Notification Settings\nNotifSettings -&gt; User : Display notification options\nUser -&gt; NotifSettings : Set notification preferences\nNotifSettings -&gt; System : Save Notification Settings\nSystem -&gt; NotifSettings : Confirmation\nNotifSettings -&gt; ProfileMenu : Return to Profile Menu\n\nUser -&gt; ProfileMenu : Select Voice Guide Settings\nProfileMenu -&gt; VoiceSettings : Open Voice Guide Settings\nVoiceSettings -&gt; User : Display voice guide options\nUser -&gt; VoiceSettings : Set voice preferences\nVoiceSettings -&gt; System : Save Voice Guide Settings\nSystem -&gt; VoiceSettings : Confirmation\nVoiceSettings -&gt; ProfileMenu : Return to Profile Menu\n\nUser -&gt; ProfileMenu : Select Interests\nProfileMenu -&gt; InterestSettings : Open Interest Settings\nInterestSettings -&gt; User : Display interest options\nUser -&gt; InterestSettings : Set interest preferences\nInterestSettings -&gt; System : Save Interest Settings\nSystem -&gt; InterestSettings : Confirmation\nInterestSettings -&gt; ProfileMenu : Return to Profile Menu\n\nUser -&gt; ProfileMenu : Select Activity Settings\nProfileMenu -&gt; ActivitySettings : Open Activity Settings\nActivitySettings -&gt; User : Display activity options\nUser -&gt; ActivitySettings : Set activity preferences\nActivitySettings -&gt; System : Save Activity Settings\nSystem -&gt; ActivitySettings : Confirmation\nActivitySettings -&gt; ProfileMenu : Return to Profile Menu\n\nUser -&gt; ProfileMenu : Select Food &amp; Drink Settings\nProfileMenu -&gt; FoodSettings : Open Food &amp; Drink Settings\nFoodSettings -&gt; User : Display food &amp; drink options\nUser -&gt; FoodSettings : Set food preferences\nFoodSettings -&gt; System : Save Food &amp; Drink Settings\nSystem -&gt; FoodSettings : Confirmation\nFoodSettings -&gt; ProfileMenu : Return to Profile Menu\n\nUser -&gt; ProfileMenu : Select Health Info Settings\nProfileMenu -&gt; HealthInfo : Open Health Info Settings\nHealthInfo -&gt; User : Display\n&quot;,&#xa;  &quot;format&quot;: &quot;svg&quot;&#xa;}" id="O6M9N0oSw7eNrtPcRsOO-1">
          <mxCell style="shape=image;noLabel=1;verticalAlign=top;aspect=fixed;imageAspect=0;image=data:image/svg+xml,PD94bWwgdmVyc2lvbj0iMS4wIiBlbmNvZGluZz0idXMtYXNjaWkiIHN0YW5kYWxvbmU9Im5vIj8+PHN2ZyB4bWxucz0iaHR0cDovL3d3dy53My5vcmcvMjAwMC9zdmciIHhtbG5zOnhsaW5rPSJodHRwOi8vd3d3LnczLm9yZy8xOTk5L3hsaW5rIiBjb250ZW50U3R5bGVUeXBlPSJ0ZXh0L2NzcyIgaGVpZ2h0PSIxMjk2cHgiIHByZXNlcnZlQXNwZWN0UmF0aW89Im5vbmUiIHN0eWxlPSJ3aWR0aDoxNTg2cHg7aGVpZ2h0OjEyOTZweDtiYWNrZ3JvdW5kOiNGRkZGRkY7IiB2ZXJzaW9uPSIxLjEiIHZpZXdCb3g9IjAgMCAxNTg2IDEyOTYiIHdpZHRoPSIxNTg2cHgiIHpvb21BbmRQYW49Im1hZ25pZnkiPjxkZWZzLz48Zz48bGluZSBzdHlsZT0ic3Ryb2tlOiMxODE4MTg7c3Ryb2tlLXdpZHRoOjAuNTtzdHJva2UtZGFzaGFycmF5OjUuMCw1LjA7IiB4MT0iMjIiIHgyPSIyMiIgeTE9Ijc5Ljk4NDQiIHkyPSIxMjE2LjU0NjkiLz48bGluZSBzdHlsZT0ic3Ryb2tlOiMxODE4MTg7c3Ryb2tlLXdpZHRoOjAuNTtzdHJva2UtZGFzaGFycmF5OjUuMCw1LjA7IiB4MT0iNDUxIiB4Mj0iNDUxIiB5MT0iNzkuOTg0NCIgeTI9IjEyMTYuNTQ2OSIvPjxsaW5lIHN0eWxlPSJzdHJva2U6IzE4MTgxODtzdHJva2Utd2lkdGg6MC41O3N0cm9rZS1kYXNoYXJyYXk6NS4wLDUuMDsiIHgxPSI2NDcuNSIgeDI9IjY0Ny41IiB5MT0iNzkuOTg0NCIgeTI9IjEyMTYuNTQ2OSIvPjxsaW5lIHN0eWxlPSJzdHJva2U6IzE4MTgxODtzdHJva2Utd2lkdGg6MC41O3N0cm9rZS1kYXNoYXJyYXk6NS4wLDUuMDsiIHgxPSI4MTUuNSIgeDI9IjgxNS41IiB5MT0iNzkuOTg0NCIgeTI9IjEyMTYuNTQ2OSIvPjxsaW5lIHN0eWxlPSJzdHJva2U6IzE4MTgxODtzdHJva2Utd2lkdGg6MC41O3N0cm9rZS1kYXNoYXJyYXk6NS4wLDUuMDsiIHgxPSI5NjguNSIgeDI9Ijk2OC41IiB5MT0iNzkuOTg0NCIgeTI9IjEyMTYuNTQ2OSIvPjxsaW5lIHN0eWxlPSJzdHJva2U6IzE4MTgxODtzdHJva2Utd2lkdGg6MC41O3N0cm9rZS1kYXNoYXJyYXk6NS4wLDUuMDsiIHgxPSIxMTExLjUiIHgyPSIxMTExLjUiIHkxPSI3OS45ODQ0IiB5Mj0iMTIxNi41NDY5Ii8+PGxpbmUgc3R5bGU9InN0cm9rZTojMTgxODE4O3N0cm9rZS13aWR0aDowLjU7c3Ryb2tlLWRhc2hhcnJheTo1LjAsNS4wOyIgeDE9IjEyNjguNSIgeDI9IjEyNjguNSIgeTE9Ijc5Ljk4NDQiIHkyPSIxMjE2LjU0NjkiLz48bGluZSBzdHlsZT0ic3Ryb2tlOiMxODE4MTg7c3Ryb2tlLXdpZHRoOjAuNTtzdHJva2UtZGFzaGFycmF5OjUuMCw1LjA7IiB4MT0iMTQzNi41IiB4Mj0iMTQzNi41IiB5MT0iNzkuOTg0NCIgeTI9IjEyMTYuNTQ2OSIvPjxsaW5lIHN0eWxlPSJzdHJva2U6IzE4MTgxODtzdHJva2Utd2lkdGg6MC41O3N0cm9rZS1kYXNoYXJyYXk6NS4wLDUuMDsiIHgxPSIxNTUxLjUiIHgyPSIxNTUxLjUiIHkxPSI3OS45ODQ0IiB5Mj0iMTIxNi41NDY5Ii8+PHRleHQgZmlsbD0iIzAwMDAwMCIgZm9udC1mYW1pbHk9InNhbnMtc2VyaWYiIGZvbnQtc2l6ZT0iMTQiIGxlbmd0aEFkanVzdD0ic3BhY2luZyIgdGV4dExlbmd0aD0iMjgiIHg9IjUiIHk9Ijc4LjIzNDQiPlVzZXI8L3RleHQ+PGVsbGlwc2UgY3g9IjIyIiBjeT0iMTMuNSIgZmlsbD0iI0UyRTJGMCIgcng9IjgiIHJ5PSI4IiBzdHlsZT0ic3Ryb2tlOiMxODE4MTg7c3Ryb2tlLXdpZHRoOjAuNTsiLz48cGF0aCBkPSJNMjIsMjEuNSBMMjIsNDguNSBNOSwyOS41IEwzNSwyOS41IE0yMiw0OC41IEw5LDYzLjUgTTIyLDQ4LjUgTDM1LDYzLjUgIiBmaWxsPSJub25lIiBzdHlsZT0ic3Ryb2tlOiMxODE4MTg7c3Ryb2tlLXdpZHRoOjAuNTsiLz48dGV4dCBmaWxsPSIjMDAwMDAwIiBmb250LWZhbWlseT0ic2Fucy1zZXJpZiIgZm9udC1zaXplPSIxNCIgbGVuZ3RoQWRqdXN0PSJzcGFjaW5nIiB0ZXh0TGVuZ3RoPSIyOCIgeD0iNSIgeT0iMTIyOC43ODEzIj5Vc2VyPC90ZXh0PjxlbGxpcHNlIGN4PSIyMiIgY3k9IjEyMzkuMDMxMyIgZmlsbD0iI0UyRTJGMCIgcng9IjgiIHJ5PSI4IiBzdHlsZT0ic3Ryb2tlOiMxODE4MTg7c3Ryb2tlLXdpZHRoOjAuNTsiLz48cGF0aCBkPSJNMjIsMTI0Ny4wMzEzIEwyMiwxMjc0LjAzMTMgTTksMTI1NS4wMzEzIEwzNSwxMjU1LjAzMTMgTTIyLDEyNzQuMDMxMyBMOSwxMjg5LjAzMTMgTTIyLDEyNzQuMDMxMyBMMzUsMTI4OS4wMzEzICIgZmlsbD0ibm9uZSIgc3R5bGU9InN0cm9rZTojMTgxODE4O3N0cm9rZS13aWR0aDowLjU7Ii8+PHJlY3QgZmlsbD0iI0UyRTJGMCIgaGVpZ2h0PSIyOC45ODQ0IiByeD0iMi41IiByeT0iMi41IiBzdHlsZT0ic3Ryb2tlOiMxODE4MTg7c3Ryb2tlLXdpZHRoOjAuNTsiIHdpZHRoPSI5OCIgeD0iNDAyIiB5PSI1MCIvPjx0ZXh0IGZpbGw9IiMwMDAwMDAiIGZvbnQtZmFtaWx5PSJzYW5zLXNlcmlmIiBmb250LXNpemU9IjE0IiBsZW5ndGhBZGp1c3Q9InNwYWNpbmciIHRleHRMZW5ndGg9Ijg0IiB4PSI0MDkiIHk9IjcwLjIzNDQiPlByb2ZpbGUgTWVudTwvdGV4dD48cmVjdCBmaWxsPSIjRTJFMkYwIiBoZWlnaHQ9IjI4Ljk4NDQiIHJ4PSIyLjUiIHJ5PSIyLjUiIHN0eWxlPSJzdHJva2U6IzE4MTgxODtzdHJva2Utd2lkdGg6MC41OyIgd2lkdGg9Ijk4IiB4PSI0MDIiIHk9IjEyMTUuNTQ2OSIvPjx0ZXh0IGZpbGw9IiMwMDAwMDAiIGZvbnQtZmFtaWx5PSJzYW5zLXNlcmlmIiBmb250LXNpemU9IjE0IiBsZW5ndGhBZGp1c3Q9InNwYWNpbmciIHRleHRMZW5ndGg9Ijg0IiB4PSI0MDkiIHk9IjEyMzUuNzgxMyI+UHJvZmlsZSBNZW51PC90ZXh0PjxyZWN0IGZpbGw9IiNFMkUyRjAiIGhlaWdodD0iMjguOTg0NCIgcng9IjIuNSIgcnk9IjIuNSIgc3R5bGU9InN0cm9rZTojMTgxODE4O3N0cm9rZS13aWR0aDowLjU7IiB3aWR0aD0iMTYxIiB4PSI1NjcuNSIgeT0iNTAiLz48dGV4dCBmaWxsPSIjMDAwMDAwIiBmb250LWZhbWlseT0ic2Fucy1zZXJpZiIgZm9udC1zaXplPSIxNCIgbGVuZ3RoQWRqdXN0PSJzcGFjaW5nIiB0ZXh0TGVuZ3RoPSIxNDciIHg9IjU3NC41IiB5PSI3MC4yMzQ0Ij5Ob3RpZmljYXRpb24gU2V0dGluZ3M8L3RleHQ+PHJlY3QgZmlsbD0iI0UyRTJGMCIgaGVpZ2h0PSIyOC45ODQ0IiByeD0iMi41IiByeT0iMi41IiBzdHlsZT0ic3Ryb2tlOiMxODE4MTg7c3Ryb2tlLXdpZHRoOjAuNTsiIHdpZHRoPSIxNjEiIHg9IjU2Ny41IiB5PSIxMjE1LjU0NjkiLz48dGV4dCBmaWxsPSIjMDAwMDAwIiBmb250LWZhbWlseT0ic2Fucy1zZXJpZiIgZm9udC1zaXplPSIxNCIgbGVuZ3RoQWRqdXN0PSJzcGFjaW5nIiB0ZXh0TGVuZ3RoPSIxNDciIHg9IjU3NC41IiB5PSIxMjM1Ljc4MTMiPk5vdGlmaWNhdGlvbiBTZXR0aW5nczwvdGV4dD48cmVjdCBmaWxsPSIjRTJFMkYwIiBoZWlnaHQ9IjI4Ljk4NDQiIHJ4PSIyLjUiIHJ5PSIyLjUiIHN0eWxlPSJzdHJva2U6IzE4MTgxODtzdHJva2Utd2lkdGg6MC41OyIgd2lkdGg9IjE1NCIgeD0iNzM4LjUiIHk9IjUwIi8+PHRleHQgZmlsbD0iIzAwMDAwMCIgZm9udC1mYW1pbHk9InNhbnMtc2VyaWYiIGZvbnQtc2l6ZT0iMTQiIGxlbmd0aEFkanVzdD0ic3BhY2luZyIgdGV4dExlbmd0aD0iMTQwIiB4PSI3NDUuNSIgeT0iNzAuMjM0NCI+Vm9pY2UgR3VpZGUgU2V0dGluZ3M8L3RleHQ+PHJlY3QgZmlsbD0iI0UyRTJGMCIgaGVpZ2h0PSIyOC45ODQ0IiByeD0iMi41IiByeT0iMi41IiBzdHlsZT0ic3Ryb2tlOiMxODE4MTg7c3Ryb2tlLXdpZHRoOjAuNTsiIHdpZHRoPSIxNTQiIHg9IjczOC41IiB5PSIxMjE1LjU0NjkiLz48dGV4dCBmaWxsPSIjMDAwMDAwIiBmb250LWZhbWlseT0ic2Fucy1zZXJpZiIgZm9udC1zaXplPSIxNCIgbGVuZ3RoQWRqdXN0PSJzcGFjaW5nIiB0ZXh0TGVuZ3RoPSIxNDAiIHg9Ijc0NS41IiB5PSIxMjM1Ljc4MTMiPlZvaWNlIEd1aWRlIFNldHRpbmdzPC90ZXh0PjxyZWN0IGZpbGw9IiNFMkUyRjAiIGhlaWdodD0iMjguOTg0NCIgcng9IjIuNSIgcnk9IjIuNSIgc3R5bGU9InN0cm9rZTojMTgxODE4O3N0cm9rZS13aWR0aDowLjU7IiB3aWR0aD0iMTMzIiB4PSI5MDIuNSIgeT0iNTAiLz48dGV4dCBmaWxsPSIjMDAwMDAwIiBmb250LWZhbWlseT0ic2Fucy1zZXJpZiIgZm9udC1zaXplPSIxNCIgbGVuZ3RoQWRqdXN0PSJzcGFjaW5nIiB0ZXh0TGVuZ3RoPSIxMTkiIHg9IjkwOS41IiB5PSI3MC4yMzQ0Ij5JbnRlcmVzdCBTZXR0aW5nczwvdGV4dD48cmVjdCBmaWxsPSIjRTJFMkYwIiBoZWlnaHQ9IjI4Ljk4NDQiIHJ4PSIyLjUiIHJ5PSIyLjUiIHN0eWxlPSJzdHJva2U6IzE4MTgxODtzdHJva2Utd2lkdGg6MC41OyIgd2lkdGg9IjEzMyIgeD0iOTAyLjUiIHk9IjEyMTUuNTQ2OSIvPjx0ZXh0IGZpbGw9IiMwMDAwMDAiIGZvbnQtZmFtaWx5PSJzYW5zLXNlcmlmIiBmb250LXNpemU9IjE0IiBsZW5ndGhBZGp1c3Q9InNwYWNpbmciIHRleHRMZW5ndGg9IjExOSIgeD0iOTA5LjUiIHk9IjEyMzUuNzgxMyI+SW50ZXJlc3QgU2V0dGluZ3M8L3RleHQ+PHJlY3QgZmlsbD0iI0UyRTJGMCIgaGVpZ2h0PSIyOC45ODQ0IiByeD0iMi41IiByeT0iMi41IiBzdHlsZT0ic3Ryb2tlOiMxODE4MTg7c3Ryb2tlLXdpZHRoOjAuNTsiIHdpZHRoPSIxMzMiIHg9IjEwNDUuNSIgeT0iNTAiLz48dGV4dCBmaWxsPSIjMDAwMDAwIiBmb250LWZhbWlseT0ic2Fucy1zZXJpZiIgZm9udC1zaXplPSIxNCIgbGVuZ3RoQWRqdXN0PSJzcGFjaW5nIiB0ZXh0TGVuZ3RoPSIxMTkiIHg9IjEwNTIuNSIgeT0iNzAuMjM0NCI+QWN0aXZpdHkgU2V0dGluZ3M8L3RleHQ+PHJlY3QgZmlsbD0iI0UyRTJGMCIgaGVpZ2h0PSIyOC45ODQ0IiByeD0iMi41IiByeT0iMi41IiBzdHlsZT0ic3Ryb2tlOiMxODE4MTg7c3Ryb2tlLXdpZHRoOjAuNTsiIHdpZHRoPSIxMzMiIHg9IjEwNDUuNSIgeT0iMTIxNS41NDY5Ii8+PHRleHQgZmlsbD0iIzAwMDAwMCIgZm9udC1mYW1pbHk9InNhbnMtc2VyaWYiIGZvbnQtc2l6ZT0iMTQiIGxlbmd0aEFkanVzdD0ic3BhY2luZyIgdGV4dExlbmd0aD0iMTE5IiB4PSIxMDUyLjUiIHk9IjEyMzUuNzgxMyI+QWN0aXZpdHkgU2V0dGluZ3M8L3RleHQ+PHJlY3QgZmlsbD0iI0UyRTJGMCIgaGVpZ2h0PSIyOC45ODQ0IiByeD0iMi41IiByeT0iMi41IiBzdHlsZT0ic3Ryb2tlOiMxODE4MTg7c3Ryb2tlLXdpZHRoOjAuNTsiIHdpZHRoPSIxNjEiIHg9IjExODguNSIgeT0iNTAiLz48dGV4dCBmaWxsPSIjMDAwMDAwIiBmb250LWZhbWlseT0ic2Fucy1zZXJpZiIgZm9udC1zaXplPSIxNCIgbGVuZ3RoQWRqdXN0PSJzcGFjaW5nIiB0ZXh0TGVuZ3RoPSIxNDciIHg9IjExOTUuNSIgeT0iNzAuMjM0NCI+Rm9vZCAmYW1wOyBEcmluayBTZXR0aW5nczwvdGV4dD48cmVjdCBmaWxsPSIjRTJFMkYwIiBoZWlnaHQ9IjI4Ljk4NDQiIHJ4PSIyLjUiIHJ5PSIyLjUiIHN0eWxlPSJzdHJva2U6IzE4MTgxODtzdHJva2Utd2lkdGg6MC41OyIgd2lkdGg9IjE2MSIgeD0iMTE4OC41IiB5PSIxMjE1LjU0NjkiLz48dGV4dCBmaWxsPSIjMDAwMDAwIiBmb250LWZhbWlseT0ic2Fucy1zZXJpZiIgZm9udC1zaXplPSIxNCIgbGVuZ3RoQWRqdXN0PSJzcGFjaW5nIiB0ZXh0TGVuZ3RoPSIxNDciIHg9IjExOTUuNSIgeT0iMTIzNS43ODEzIj5Gb29kICZhbXA7IERyaW5rIFNldHRpbmdzPC90ZXh0PjxyZWN0IGZpbGw9IiNFMkUyRjAiIGhlaWdodD0iMjguOTg0NCIgcng9IjIuNSIgcnk9IjIuNSIgc3R5bGU9InN0cm9rZTojMTgxODE4O3N0cm9rZS13aWR0aDowLjU7IiB3aWR0aD0iMTU0IiB4PSIxMzU5LjUiIHk9IjUwIi8+PHRleHQgZmlsbD0iIzAwMDAwMCIgZm9udC1mYW1pbHk9InNhbnMtc2VyaWYiIGZvbnQtc2l6ZT0iMTQiIGxlbmd0aEFkanVzdD0ic3BhY2luZyIgdGV4dExlbmd0aD0iMTQwIiB4PSIxMzY2LjUiIHk9IjcwLjIzNDQiPkhlYWx0aCBJbmZvIFNldHRpbmdzPC90ZXh0PjxyZWN0IGZpbGw9IiNFMkUyRjAiIGhlaWdodD0iMjguOTg0NCIgcng9IjIuNSIgcnk9IjIuNSIgc3R5bGU9InN0cm9rZTojMTgxODE4O3N0cm9rZS13aWR0aDowLjU7IiB3aWR0aD0iMTU0IiB4PSIxMzU5LjUiIHk9IjEyMTUuNTQ2OSIvPjx0ZXh0IGZpbGw9IiMwMDAwMDAiIGZvbnQtZmFtaWx5PSJzYW5zLXNlcmlmIiBmb250LXNpemU9IjE0IiBsZW5ndGhBZGp1c3Q9InNwYWNpbmciIHRleHRMZW5ndGg9IjE0MCIgeD0iMTM2Ni41IiB5PSIxMjM1Ljc4MTMiPkhlYWx0aCBJbmZvIFNldHRpbmdzPC90ZXh0PjxyZWN0IGZpbGw9IiNFMkUyRjAiIGhlaWdodD0iMjguOTg0NCIgcng9IjIuNSIgcnk9IjIuNSIgc3R5bGU9InN0cm9rZTojMTgxODE4O3N0cm9rZS13aWR0aDowLjU7IiB3aWR0aD0iNTciIHg9IjE1MjMuNSIgeT0iNTAiLz48dGV4dCBmaWxsPSIjMDAwMDAwIiBmb250LWZhbWlseT0ic2Fucy1zZXJpZiIgZm9udC1zaXplPSIxNCIgbGVuZ3RoQWRqdXN0PSJzcGFjaW5nIiB0ZXh0TGVuZ3RoPSI0MyIgeD0iMTUzMC41IiB5PSI3MC4yMzQ0Ij5TeXN0ZW08L3RleHQ+PHJlY3QgZmlsbD0iI0UyRTJGMCIgaGVpZ2h0PSIyOC45ODQ0IiByeD0iMi41IiByeT0iMi41IiBzdHlsZT0ic3Ryb2tlOiMxODE4MTg7c3Ryb2tlLXdpZHRoOjAuNTsiIHdpZHRoPSI1NyIgeD0iMTUyMy41IiB5PSIxMjE1LjU0NjkiLz48dGV4dCBmaWxsPSIjMDAwMDAwIiBmb250LWZhbWlseT0ic2Fucy1zZXJpZiIgZm9udC1zaXplPSIxNCIgbGVuZ3RoQWRqdXN0PSJzcGFjaW5nIiB0ZXh0TGVuZ3RoPSI0MyIgeD0iMTUzMC41IiB5PSIxMjM1Ljc4MTMiPlN5c3RlbTwvdGV4dD48cG9seWdvbiBmaWxsPSIjMTgxODE4IiBwb2ludHM9IjQzOSwxMDUuODk4NCw0NDksMTA5Ljg5ODQsNDM5LDExMy44OTg0LDQ0MywxMDkuODk4NCIgc3R5bGU9InN0cm9rZTojMTgxODE4O3N0cm9rZS13aWR0aDoxLjA7Ii8+PGxpbmUgc3R5bGU9InN0cm9rZTojMTgxODE4O3N0cm9rZS13aWR0aDoxLjA7IiB4MT0iMjIiIHgyPSI0NDUiIHkxPSIxMDkuODk4NCIgeTI9IjEwOS44OTg0Ii8+PHRleHQgZmlsbD0iIzAwMDAwMCIgZm9udC1mYW1pbHk9InNhbnMtc2VyaWYiIGZvbnQtc2l6ZT0iMTMiIGxlbmd0aEFkanVzdD0ic3BhY2luZyIgdGV4dExlbmd0aD0iMTE2IiB4PSIyOSIgeT0iMTA2LjI3MzQiPk9wZW4gUHJvZmlsZSBNZW51PC90ZXh0Pjxwb2x5Z29uIGZpbGw9IiMxODE4MTgiIHBvaW50cz0iMzMsMTMzLjgxMjUsMjMsMTM3LjgxMjUsMzMsMTQxLjgxMjUsMjksMTM3LjgxMjUiIHN0eWxlPSJzdHJva2U6IzE4MTgxODtzdHJva2Utd2lkdGg6MS4wOyIvPjxsaW5lIHN0eWxlPSJzdHJva2U6IzE4MTgxODtzdHJva2Utd2lkdGg6MS4wOyIgeDE9IjI3IiB4Mj0iNDUwIiB5MT0iMTM3LjgxMjUiIHkyPSIxMzcuODEyNSIvPjx0ZXh0IGZpbGw9IiMwMDAwMDAiIGZvbnQtZmFtaWx5PSJzYW5zLXNlcmlmIiBmb250LXNpemU9IjEzIiBsZW5ndGhBZGp1c3Q9InNwYWNpbmciIHRleHRMZW5ndGg9IjQwNSIgeD0iMzkiIHk9IjEzNC4xODc1Ij5EaXNwbGF5IG9wdGlvbnMgKE5vdGlmaWNhdGlvbnMsIFZvaWNlIEd1aWRlLCBJbnRlcmVzdHMsIGV0Yy4pPC90ZXh0Pjxwb2x5Z29uIGZpbGw9IiMxODE4MTgiIHBvaW50cz0iNDM5LDE2MS43MjY2LDQ0OSwxNjUuNzI2Niw0MzksMTY5LjcyNjYsNDQzLDE2NS43MjY2IiBzdHlsZT0ic3Ryb2tlOiMxODE4MTg7c3Ryb2tlLXdpZHRoOjEuMDsiLz48bGluZSBzdHlsZT0ic3Ryb2tlOiMxODE4MTg7c3Ryb2tlLXdpZHRoOjEuMDsiIHgxPSIyMiIgeDI9IjQ0NSIgeTE9IjE2NS43MjY2IiB5Mj0iMTY1LjcyNjYiLz48dGV4dCBmaWxsPSIjMDAwMDAwIiBmb250LWZhbWlseT0ic2Fucy1zZXJpZiIgZm9udC1zaXplPSIxMyIgbGVuZ3RoQWRqdXN0PSJzcGFjaW5nIiB0ZXh0TGVuZ3RoPSIxODUiIHg9IjI5IiB5PSIxNjIuMTAxNiI+U2VsZWN0IE5vdGlmaWNhdGlvbiBTZXR0aW5nczwvdGV4dD48cG9seWdvbiBmaWxsPSIjMTgxODE4IiBwb2ludHM9IjYzNiwxODkuNjQwNiw2NDYsMTkzLjY0MDYsNjM2LDE5Ny42NDA2LDY0MCwxOTMuNjQwNiIgc3R5bGU9InN0cm9rZTojMTgxODE4O3N0cm9rZS13aWR0aDoxLjA7Ii8+PGxpbmUgc3R5bGU9InN0cm9rZTojMTgxODE4O3N0cm9rZS13aWR0aDoxLjA7IiB4MT0iNDUxIiB4Mj0iNjQyIiB5MT0iMTkzLjY0MDYiIHkyPSIxOTMuNjQwNiIvPjx0ZXh0IGZpbGw9IiMwMDAwMDAiIGZvbnQtZmFtaWx5PSJzYW5zLXNlcmlmIiBmb250LXNpemU9IjEzIiBsZW5ndGhBZGp1c3Q9InNwYWNpbmciIHRleHRMZW5ndGg9IjE3MyIgeD0iNDU4IiB5PSIxOTAuMDE1NiI+T3BlbiBOb3RpZmljYXRpb24gU2V0dGluZ3M8L3RleHQ+PHBvbHlnb24gZmlsbD0iIzE4MTgxOCIgcG9pbnRzPSIzMywyMTcuNTU0NywyMywyMjEuNTU0NywzMywyMjUuNTU0NywyOSwyMjEuNTU0NyIgc3R5bGU9InN0cm9rZTojMTgxODE4O3N0cm9rZS13aWR0aDoxLjA7Ii8+PGxpbmUgc3R5bGU9InN0cm9rZTojMTgxODE4O3N0cm9rZS13aWR0aDoxLjA7IiB4MT0iMjciIHgyPSI2NDciIHkxPSIyMjEuNTU0NyIgeTI9IjIyMS41NTQ3Ii8+PHRleHQgZmlsbD0iIzAwMDAwMCIgZm9udC1mYW1pbHk9InNhbnMtc2VyaWYiIGZvbnQtc2l6ZT0iMTMiIGxlbmd0aEFkanVzdD0ic3BhY2luZyIgdGV4dExlbmd0aD0iMTg2IiB4PSIzOSIgeT0iMjE3LjkyOTciPkRpc3BsYXkgbm90aWZpY2F0aW9uIG9wdGlvbnM8L3RleHQ+PHBvbHlnb24gZmlsbD0iIzE4MTgxOCIgcG9pbnRzPSI2MzYsMjQ1LjQ2ODgsNjQ2LDI0OS40Njg4LDYzNiwyNTMuNDY4OCw2NDAsMjQ5LjQ2ODgiIHN0eWxlPSJzdHJva2U6IzE4MTgxODtzdHJva2Utd2lkdGg6MS4wOyIvPjxsaW5lIHN0eWxlPSJzdHJva2U6IzE4MTgxODtzdHJva2Utd2lkdGg6MS4wOyIgeDE9IjIyIiB4Mj0iNjQyIiB5MT0iMjQ5LjQ2ODgiIHkyPSIyNDkuNDY4OCIvPjx0ZXh0IGZpbGw9IiMwMDAwMDAiIGZvbnQtZmFtaWx5PSJzYW5zLXNlcmlmIiBmb250LXNpemU9IjEzIiBsZW5ndGhBZGp1c3Q9InNwYWNpbmciIHRleHRMZW5ndGg9IjE4OCIgeD0iMjkiIHk9IjI0NS44NDM4Ij5TZXQgbm90aWZpY2F0aW9uIHByZWZlcmVuY2VzPC90ZXh0Pjxwb2x5Z29uIGZpbGw9IiMxODE4MTgiIHBvaW50cz0iMTU0MCwyNzMuMzgyOCwxNTUwLDI3Ny4zODI4LDE1NDAsMjgxLjM4MjgsMTU0NCwyNzcuMzgyOCIgc3R5bGU9InN0cm9rZTojMTgxODE4O3N0cm9rZS13aWR0aDoxLjA7Ii8+PGxpbmUgc3R5bGU9InN0cm9rZTojMTgxODE4O3N0cm9rZS13aWR0aDoxLjA7IiB4MT0iNjQ4IiB4Mj0iMTU0NiIgeTE9IjI3Ny4zODI4IiB5Mj0iMjc3LjM4MjgiLz48dGV4dCBmaWxsPSIjMDAwMDAwIiBmb250LWZhbWlseT0ic2Fucy1zZXJpZiIgZm9udC1zaXplPSIxMyIgbGVuZ3RoQWRqdXN0PSJzcGFjaW5nIiB0ZXh0TGVuZ3RoPSIxNzMiIHg9IjY1NSIgeT0iMjczLjc1NzgiPlNhdmUgTm90aWZpY2F0aW9uIFNldHRpbmdzPC90ZXh0Pjxwb2x5Z29uIGZpbGw9IiMxODE4MTgiIHBvaW50cz0iNjU5LDMwMS4yOTY5LDY0OSwzMDUuMjk2OSw2NTksMzA5LjI5NjksNjU1LDMwNS4yOTY5IiBzdHlsZT0ic3Ryb2tlOiMxODE4MTg7c3Ryb2tlLXdpZHRoOjEuMDsiLz48bGluZSBzdHlsZT0ic3Ryb2tlOiMxODE4MTg7c3Ryb2tlLXdpZHRoOjEuMDsiIHgxPSI2NTMiIHgyPSIxNTUxIiB5MT0iMzA1LjI5NjkiIHkyPSIzMDUuMjk2OSIvPjx0ZXh0IGZpbGw9IiMwMDAwMDAiIGZvbnQtZmFtaWx5PSJzYW5zLXNlcmlmIiBmb250LXNpemU9IjEzIiBsZW5ndGhBZGp1c3Q9InNwYWNpbmciIHRleHRMZW5ndGg9Ijc5IiB4PSI2NjUiIHk9IjMwMS42NzE5Ij5Db25maXJtYXRpb248L3RleHQ+PHBvbHlnb24gZmlsbD0iIzE4MTgxOCIgcG9pbnRzPSI0NjIsMzI5LjIxMDksNDUyLDMzMy4yMTA5LDQ2MiwzMzcuMjEwOSw0NTgsMzMzLjIxMDkiIHN0eWxlPSJzdHJva2U6IzE4MTgxODtzdHJva2Utd2lkdGg6MS4wOyIvPjxsaW5lIHN0eWxlPSJzdHJva2U6IzE4MTgxODtzdHJva2Utd2lkdGg6MS4wOyIgeDE9IjQ1NiIgeDI9IjY0NyIgeTE9IjMzMy4yMTA5IiB5Mj0iMzMzLjIxMDkiLz48dGV4dCBmaWxsPSIjMDAwMDAwIiBmb250LWZhbWlseT0ic2Fucy1zZXJpZiIgZm9udC1zaXplPSIxMyIgbGVuZ3RoQWRqdXN0PSJzcGFjaW5nIiB0ZXh0TGVuZ3RoPSIxNDkiIHg9IjQ2OCIgeT0iMzI5LjU4NTkiPlJldHVybiB0byBQcm9maWxlIE1lbnU8L3RleHQ+PHBvbHlnb24gZmlsbD0iIzE4MTgxOCIgcG9pbnRzPSI0MzksMzU3LjEyNSw0NDksMzYxLjEyNSw0MzksMzY1LjEyNSw0NDMsMzYxLjEyNSIgc3R5bGU9InN0cm9rZTojMTgxODE4O3N0cm9rZS13aWR0aDoxLjA7Ii8+PGxpbmUgc3R5bGU9InN0cm9rZTojMTgxODE4O3N0cm9rZS13aWR0aDoxLjA7IiB4MT0iMjIiIHgyPSI0NDUiIHkxPSIzNjEuMTI1IiB5Mj0iMzYxLjEyNSIvPjx0ZXh0IGZpbGw9IiMwMDAwMDAiIGZvbnQtZmFtaWx5PSJzYW5zLXNlcmlmIiBmb250LXNpemU9IjEzIiBsZW5ndGhBZGp1c3Q9InNwYWNpbmciIHRleHRMZW5ndGg9IjE4MiIgeD0iMjkiIHk9IjM1Ny41Ij5TZWxlY3QgVm9pY2UgR3VpZGUgU2V0dGluZ3M8L3RleHQ+PHBvbHlnb24gZmlsbD0iIzE4MTgxOCIgcG9pbnRzPSI4MDMuNSwzODUuMDM5MSw4MTMuNSwzODkuMDM5MSw4MDMuNSwzOTMuMDM5MSw4MDcuNSwzODkuMDM5MSIgc3R5bGU9InN0cm9rZTojMTgxODE4O3N0cm9rZS13aWR0aDoxLjA7Ii8+PGxpbmUgc3R5bGU9InN0cm9rZTojMTgxODE4O3N0cm9rZS13aWR0aDoxLjA7IiB4MT0iNDUxIiB4Mj0iODA5LjUiIHkxPSIzODkuMDM5MSIgeTI9IjM4OS4wMzkxIi8+PHRleHQgZmlsbD0iIzAwMDAwMCIgZm9udC1mYW1pbHk9InNhbnMtc2VyaWYiIGZvbnQtc2l6ZT0iMTMiIGxlbmd0aEFkanVzdD0ic3BhY2luZyIgdGV4dExlbmd0aD0iMTcwIiB4PSI0NTgiIHk9IjM4NS40MTQxIj5PcGVuIFZvaWNlIEd1aWRlIFNldHRpbmdzPC90ZXh0Pjxwb2x5Z29uIGZpbGw9IiMxODE4MTgiIHBvaW50cz0iMzMsNDEyLjk1MzEsMjMsNDE2Ljk1MzEsMzMsNDIwLjk1MzEsMjksNDE2Ljk1MzEiIHN0eWxlPSJzdHJva2U6IzE4MTgxODtzdHJva2Utd2lkdGg6MS4wOyIvPjxsaW5lIHN0eWxlPSJzdHJva2U6IzE4MTgxODtzdHJva2Utd2lkdGg6MS4wOyIgeDE9IjI3IiB4Mj0iODE0LjUiIHkxPSI0MTYuOTUzMSIgeTI9IjQxNi45NTMxIi8+PHRleHQgZmlsbD0iIzAwMDAwMCIgZm9udC1mYW1pbHk9InNhbnMtc2VyaWYiIGZvbnQtc2l6ZT0iMTMiIGxlbmd0aEFkanVzdD0ic3BhY2luZyIgdGV4dExlbmd0aD0iMTgzIiB4PSIzOSIgeT0iNDEzLjMyODEiPkRpc3BsYXkgdm9pY2UgZ3VpZGUgb3B0aW9uczwvdGV4dD48cG9seWdvbiBmaWxsPSIjMTgxODE4IiBwb2ludHM9IjgwMy41LDQ0MC44NjcyLDgxMy41LDQ0NC44NjcyLDgwMy41LDQ0OC44NjcyLDgwNy41LDQ0NC44NjcyIiBzdHlsZT0ic3Ryb2tlOiMxODE4MTg7c3Ryb2tlLXdpZHRoOjEuMDsiLz48bGluZSBzdHlsZT0ic3Ryb2tlOiMxODE4MTg7c3Ryb2tlLXdpZHRoOjEuMDsiIHgxPSIyMiIgeDI9IjgwOS41IiB5MT0iNDQ0Ljg2NzIiIHkyPSI0NDQuODY3MiIvPjx0ZXh0IGZpbGw9IiMwMDAwMDAiIGZvbnQtZmFtaWx5PSJzYW5zLXNlcmlmIiBmb250LXNpemU9IjEzIiBsZW5ndGhBZGp1c3Q9InNwYWNpbmciIHRleHRMZW5ndGg9IjE0NCIgeD0iMjkiIHk9IjQ0MS4yNDIyIj5TZXQgdm9pY2UgcHJlZmVyZW5jZXM8L3RleHQ+PHBvbHlnb24gZmlsbD0iIzE4MTgxOCIgcG9pbnRzPSIxNTQwLDQ2OC43ODEzLDE1NTAsNDcyLjc4MTMsMTU0MCw0NzYuNzgxMywxNTQ0LDQ3Mi43ODEzIiBzdHlsZT0ic3Ryb2tlOiMxODE4MTg7c3Ryb2tlLXdpZHRoOjEuMDsiLz48bGluZSBzdHlsZT0ic3Ryb2tlOiMxODE4MTg7c3Ryb2tlLXdpZHRoOjEuMDsiIHgxPSI4MTUuNSIgeDI9IjE1NDYiIHkxPSI0NzIuNzgxMyIgeTI9IjQ3Mi43ODEzIi8+PHRleHQgZmlsbD0iIzAwMDAwMCIgZm9udC1mYW1pbHk9InNhbnMtc2VyaWYiIGZvbnQtc2l6ZT0iMTMiIGxlbmd0aEFkanVzdD0ic3BhY2luZyIgdGV4dExlbmd0aD0iMTcwIiB4PSI4MjIuNSIgeT0iNDY5LjE1NjMiPlNhdmUgVm9pY2UgR3VpZGUgU2V0dGluZ3M8L3RleHQ+PHBvbHlnb24gZmlsbD0iIzE4MTgxOCIgcG9pbnRzPSI4MjYuNSw0OTYuNjk1Myw4MTYuNSw1MDAuNjk1Myw4MjYuNSw1MDQuNjk1Myw4MjIuNSw1MDAuNjk1MyIgc3R5bGU9InN0cm9rZTojMTgxODE4O3N0cm9rZS13aWR0aDoxLjA7Ii8+PGxpbmUgc3R5bGU9InN0cm9rZTojMTgxODE4O3N0cm9rZS13aWR0aDoxLjA7IiB4MT0iODIwLjUiIHgyPSIxNTUxIiB5MT0iNTAwLjY5NTMiIHkyPSI1MDAuNjk1MyIvPjx0ZXh0IGZpbGw9IiMwMDAwMDAiIGZvbnQtZmFtaWx5PSJzYW5zLXNlcmlmIiBmb250LXNpemU9IjEzIiBsZW5ndGhBZGp1c3Q9InNwYWNpbmciIHRleHRMZW5ndGg9Ijc5IiB4PSI4MzIuNSIgeT0iNDk3LjA3MDMiPkNvbmZpcm1hdGlvbjwvdGV4dD48cG9seWdvbiBmaWxsPSIjMTgxODE4IiBwb2ludHM9IjQ2Miw1MjQuNjA5NCw0NTIsNTI4LjYwOTQsNDYyLDUzMi42MDk0LDQ1OCw1MjguNjA5NCIgc3R5bGU9InN0cm9rZTojMTgxODE4O3N0cm9rZS13aWR0aDoxLjA7Ii8+PGxpbmUgc3R5bGU9InN0cm9rZTojMTgxODE4O3N0cm9rZS13aWR0aDoxLjA7IiB4MT0iNDU2IiB4Mj0iODE0LjUiIHkxPSI1MjguNjA5NCIgeTI9IjUyOC42MDk0Ii8+PHRleHQgZmlsbD0iIzAwMDAwMCIgZm9udC1mYW1pbHk9InNhbnMtc2VyaWYiIGZvbnQtc2l6ZT0iMTMiIGxlbmd0aEFkanVzdD0ic3BhY2luZyIgdGV4dExlbmd0aD0iMTQ5IiB4PSI0NjgiIHk9IjUyNC45ODQ0Ij5SZXR1cm4gdG8gUHJvZmlsZSBNZW51PC90ZXh0Pjxwb2x5Z29uIGZpbGw9IiMxODE4MTgiIHBvaW50cz0iNDM5LDU1Mi41MjM0LDQ0OSw1NTYuNTIzNCw0MzksNTYwLjUyMzQsNDQzLDU1Ni41MjM0IiBzdHlsZT0ic3Ryb2tlOiMxODE4MTg7c3Ryb2tlLXdpZHRoOjEuMDsiLz48bGluZSBzdHlsZT0ic3Ryb2tlOiMxODE4MTg7c3Ryb2tlLXdpZHRoOjEuMDsiIHgxPSIyMiIgeDI9IjQ0NSIgeTE9IjU1Ni41MjM0IiB5Mj0iNTU2LjUyMzQiLz48dGV4dCBmaWxsPSIjMDAwMDAwIiBmb250LWZhbWlseT0ic2Fucy1zZXJpZiIgZm9udC1zaXplPSIxMyIgbGVuZ3RoQWRqdXN0PSJzcGFjaW5nIiB0ZXh0TGVuZ3RoPSIxMDciIHg9IjI5IiB5PSI1NTIuODk4NCI+U2VsZWN0IEludGVyZXN0czwvdGV4dD48cG9seWdvbiBmaWxsPSIjMTgxODE4IiBwb2ludHM9Ijk1Nyw1ODAuNDM3NSw5NjcsNTg0LjQzNzUsOTU3LDU4OC40Mzc1LDk2MSw1ODQuNDM3NSIgc3R5bGU9InN0cm9rZTojMTgxODE4O3N0cm9rZS13aWR0aDoxLjA7Ii8+PGxpbmUgc3R5bGU9InN0cm9rZTojMTgxODE4O3N0cm9rZS13aWR0aDoxLjA7IiB4MT0iNDUxIiB4Mj0iOTYzIiB5MT0iNTg0LjQzNzUiIHkyPSI1ODQuNDM3NSIvPjx0ZXh0IGZpbGw9IiMwMDAwMDAiIGZvbnQtZmFtaWx5PSJzYW5zLXNlcmlmIiBmb250LXNpemU9IjEzIiBsZW5ndGhBZGp1c3Q9InNwYWNpbmciIHRleHRMZW5ndGg9IjE0OCIgeD0iNDU4IiB5PSI1ODAuODEyNSI+T3BlbiBJbnRlcmVzdCBTZXR0aW5nczwvdGV4dD48cG9seWdvbiBmaWxsPSIjMTgxODE4IiBwb2ludHM9IjMzLDYwOC4zNTE2LDIzLDYxMi4zNTE2LDMzLDYxNi4zNTE2LDI5LDYxMi4zNTE2IiBzdHlsZT0ic3Ryb2tlOiMxODE4MTg7c3Ryb2tlLXdpZHRoOjEuMDsiLz48bGluZSBzdHlsZT0ic3Ryb2tlOiMxODE4MTg7c3Ryb2tlLXdpZHRoOjEuMDsiIHgxPSIyNyIgeDI9Ijk2OCIgeTE9IjYxMi4zNTE2IiB5Mj0iNjEyLjM1MTYiLz48dGV4dCBmaWxsPSIjMDAwMDAwIiBmb250LWZhbWlseT0ic2Fucy1zZXJpZiIgZm9udC1zaXplPSIxMyIgbGVuZ3RoQWRqdXN0PSJzcGFjaW5nIiB0ZXh0TGVuZ3RoPSIxNjEiIHg9IjM5IiB5PSI2MDguNzI2NiI+RGlzcGxheSBpbnRlcmVzdCBvcHRpb25zPC90ZXh0Pjxwb2x5Z29uIGZpbGw9IiMxODE4MTgiIHBvaW50cz0iOTU3LDYzNi4yNjU2LDk2Nyw2NDAuMjY1Niw5NTcsNjQ0LjI2NTYsOTYxLDY0MC4yNjU2IiBzdHlsZT0ic3Ryb2tlOiMxODE4MTg7c3Ryb2tlLXdpZHRoOjEuMDsiLz48bGluZSBzdHlsZT0ic3Ryb2tlOiMxODE4MTg7c3Ryb2tlLXdpZHRoOjEuMDsiIHgxPSIyMiIgeDI9Ijk2MyIgeTE9IjY0MC4yNjU2IiB5Mj0iNjQwLjI2NTYiLz48dGV4dCBmaWxsPSIjMDAwMDAwIiBmb250LWZhbWlseT0ic2Fucy1zZXJpZiIgZm9udC1zaXplPSIxMyIgbGVuZ3RoQWRqdXN0PSJzcGFjaW5nIiB0ZXh0TGVuZ3RoPSIxNjMiIHg9IjI5IiB5PSI2MzYuNjQwNiI+U2V0IGludGVyZXN0IHByZWZlcmVuY2VzPC90ZXh0Pjxwb2x5Z29uIGZpbGw9IiMxODE4MTgiIHBvaW50cz0iMTU0MCw2NjQuMTc5NywxNTUwLDY2OC4xNzk3LDE1NDAsNjcyLjE3OTcsMTU0NCw2NjguMTc5NyIgc3R5bGU9InN0cm9rZTojMTgxODE4O3N0cm9rZS13aWR0aDoxLjA7Ii8+PGxpbmUgc3R5bGU9InN0cm9rZTojMTgxODE4O3N0cm9rZS13aWR0aDoxLjA7IiB4MT0iOTY5IiB4Mj0iMTU0NiIgeTE9IjY2OC4xNzk3IiB5Mj0iNjY4LjE3OTciLz48dGV4dCBmaWxsPSIjMDAwMDAwIiBmb250LWZhbWlseT0ic2Fucy1zZXJpZiIgZm9udC1zaXplPSIxMyIgbGVuZ3RoQWRqdXN0PSJzcGFjaW5nIiB0ZXh0TGVuZ3RoPSIxNDgiIHg9Ijk3NiIgeT0iNjY0LjU1NDciPlNhdmUgSW50ZXJlc3QgU2V0dGluZ3M8L3RleHQ+PHBvbHlnb24gZmlsbD0iIzE4MTgxOCIgcG9pbnRzPSI5ODAsNjkyLjA5MzgsOTcwLDY5Ni4wOTM4LDk4MCw3MDAuMDkzOCw5NzYsNjk2LjA5MzgiIHN0eWxlPSJzdHJva2U6IzE4MTgxODtzdHJva2Utd2lkdGg6MS4wOyIvPjxsaW5lIHN0eWxlPSJzdHJva2U6IzE4MTgxODtzdHJva2Utd2lkdGg6MS4wOyIgeDE9Ijk3NCIgeDI9IjE1NTEiIHkxPSI2OTYuMDkzOCIgeTI9IjY5Ni4wOTM4Ii8+PHRleHQgZmlsbD0iIzAwMDAwMCIgZm9udC1mYW1pbHk9InNhbnMtc2VyaWYiIGZvbnQtc2l6ZT0iMTMiIGxlbmd0aEFkanVzdD0ic3BhY2luZyIgdGV4dExlbmd0aD0iNzkiIHg9Ijk4NiIgeT0iNjkyLjQ2ODgiPkNvbmZpcm1hdGlvbjwvdGV4dD48cG9seWdvbiBmaWxsPSIjMTgxODE4IiBwb2ludHM9IjQ2Miw3MjAuMDA3OCw0NTIsNzI0LjAwNzgsNDYyLDcyOC4wMDc4LDQ1OCw3MjQuMDA3OCIgc3R5bGU9InN0cm9rZTojMTgxODE4O3N0cm9rZS13aWR0aDoxLjA7Ii8+PGxpbmUgc3R5bGU9InN0cm9rZTojMTgxODE4O3N0cm9rZS13aWR0aDoxLjA7IiB4MT0iNDU2IiB4Mj0iOTY4IiB5MT0iNzI0LjAwNzgiIHkyPSI3MjQuMDA3OCIvPjx0ZXh0IGZpbGw9IiMwMDAwMDAiIGZvbnQtZmFtaWx5PSJzYW5zLXNlcmlmIiBmb250LXNpemU9IjEzIiBsZW5ndGhBZGp1c3Q9InNwYWNpbmciIHRleHRMZW5ndGg9IjE0OSIgeD0iNDY4IiB5PSI3MjAuMzgyOCI+UmV0dXJuIHRvIFByb2ZpbGUgTWVudTwvdGV4dD48cG9seWdvbiBmaWxsPSIjMTgxODE4IiBwb2ludHM9IjQzOSw3NDcuOTIxOSw0NDksNzUxLjkyMTksNDM5LDc1NS45MjE5LDQ0Myw3NTEuOTIxOSIgc3R5bGU9InN0cm9rZTojMTgxODE4O3N0cm9rZS13aWR0aDoxLjA7Ii8+PGxpbmUgc3R5bGU9InN0cm9rZTojMTgxODE4O3N0cm9rZS13aWR0aDoxLjA7IiB4MT0iMjIiIHgyPSI0NDUiIHkxPSI3NTEuOTIxOSIgeTI9Ijc1MS45MjE5Ii8+PHRleHQgZmlsbD0iIzAwMDAwMCIgZm9udC1mYW1pbHk9InNhbnMtc2VyaWYiIGZvbnQtc2l6ZT0iMTMiIGxlbmd0aEFkanVzdD0ic3BhY2luZyIgdGV4dExlbmd0aD0iMTU5IiB4PSIyOSIgeT0iNzQ4LjI5NjkiPlNlbGVjdCBBY3Rpdml0eSBTZXR0aW5nczwvdGV4dD48cG9seWdvbiBmaWxsPSIjMTgxODE4IiBwb2ludHM9IjExMDAsNzc1LjgzNTksMTExMCw3NzkuODM1OSwxMTAwLDc4My44MzU5LDExMDQsNzc5LjgzNTkiIHN0eWxlPSJzdHJva2U6IzE4MTgxODtzdHJva2Utd2lkdGg6MS4wOyIvPjxsaW5lIHN0eWxlPSJzdHJva2U6IzE4MTgxODtzdHJva2Utd2lkdGg6MS4wOyIgeDE9IjQ1MSIgeDI9IjExMDYiIHkxPSI3NzkuODM1OSIgeTI9Ijc3OS44MzU5Ii8+PHRleHQgZmlsbD0iIzAwMDAwMCIgZm9udC1mYW1pbHk9InNhbnMtc2VyaWYiIGZvbnQtc2l6ZT0iMTMiIGxlbmd0aEFkanVzdD0ic3BhY2luZyIgdGV4dExlbmd0aD0iMTQ3IiB4PSI0NTgiIHk9Ijc3Ni4yMTA5Ij5PcGVuIEFjdGl2aXR5IFNldHRpbmdzPC90ZXh0Pjxwb2x5Z29uIGZpbGw9IiMxODE4MTgiIHBvaW50cz0iMzMsODAzLjc1LDIzLDgwNy43NSwzMyw4MTEuNzUsMjksODA3Ljc1IiBzdHlsZT0ic3Ryb2tlOiMxODE4MTg7c3Ryb2tlLXdpZHRoOjEuMDsiLz48bGluZSBzdHlsZT0ic3Ryb2tlOiMxODE4MTg7c3Ryb2tlLXdpZHRoOjEuMDsiIHgxPSIyNyIgeDI9IjExMTEiIHkxPSI4MDcuNzUiIHkyPSI4MDcuNzUiLz48dGV4dCBmaWxsPSIjMDAwMDAwIiBmb250LWZhbWlseT0ic2Fucy1zZXJpZiIgZm9udC1zaXplPSIxMyIgbGVuZ3RoQWRqdXN0PSJzcGFjaW5nIiB0ZXh0TGVuZ3RoPSIxNjAiIHg9IjM5IiB5PSI4MDQuMTI1Ij5EaXNwbGF5IGFjdGl2aXR5IG9wdGlvbnM8L3RleHQ+PHBvbHlnb24gZmlsbD0iIzE4MTgxOCIgcG9pbnRzPSIxMTAwLDgzMS42NjQxLDExMTAsODM1LjY2NDEsMTEwMCw4MzkuNjY0MSwxMTA0LDgzNS42NjQxIiBzdHlsZT0ic3Ryb2tlOiMxODE4MTg7c3Ryb2tlLXdpZHRoOjEuMDsiLz48bGluZSBzdHlsZT0ic3Ryb2tlOiMxODE4MTg7c3Ryb2tlLXdpZHRoOjEuMDsiIHgxPSIyMiIgeDI9IjExMDYiIHkxPSI4MzUuNjY0MSIgeTI9IjgzNS42NjQxIi8+PHRleHQgZmlsbD0iIzAwMDAwMCIgZm9udC1mYW1pbHk9InNhbnMtc2VyaWYiIGZvbnQtc2l6ZT0iMTMiIGxlbmd0aEFkanVzdD0ic3BhY2luZyIgdGV4dExlbmd0aD0iMTYyIiB4PSIyOSIgeT0iODMyLjAzOTEiPlNldCBhY3Rpdml0eSBwcmVmZXJlbmNlczwvdGV4dD48cG9seWdvbiBmaWxsPSIjMTgxODE4IiBwb2ludHM9IjE1NDAsODU5LjU3ODEsMTU1MCw4NjMuNTc4MSwxNTQwLDg2Ny41NzgxLDE1NDQsODYzLjU3ODEiIHN0eWxlPSJzdHJva2U6IzE4MTgxODtzdHJva2Utd2lkdGg6MS4wOyIvPjxsaW5lIHN0eWxlPSJzdHJva2U6IzE4MTgxODtzdHJva2Utd2lkdGg6MS4wOyIgeDE9IjExMTIiIHgyPSIxNTQ2IiB5MT0iODYzLjU3ODEiIHkyPSI4NjMuNTc4MSIvPjx0ZXh0IGZpbGw9IiMwMDAwMDAiIGZvbnQtZmFtaWx5PSJzYW5zLXNlcmlmIiBmb250LXNpemU9IjEzIiBsZW5ndGhBZGp1c3Q9InNwYWNpbmciIHRleHRMZW5ndGg9IjE0NyIgeD0iMTExOSIgeT0iODU5Ljk1MzEiPlNhdmUgQWN0aXZpdHkgU2V0dGluZ3M8L3RleHQ+PHBvbHlnb24gZmlsbD0iIzE4MTgxOCIgcG9pbnRzPSIxMTIzLDg4Ny40OTIyLDExMTMsODkxLjQ5MjIsMTEyMyw4OTUuNDkyMiwxMTE5LDg5MS40OTIyIiBzdHlsZT0ic3Ryb2tlOiMxODE4MTg7c3Ryb2tlLXdpZHRoOjEuMDsiLz48bGluZSBzdHlsZT0ic3Ryb2tlOiMxODE4MTg7c3Ryb2tlLXdpZHRoOjEuMDsiIHgxPSIxMTE3IiB4Mj0iMTU1MSIgeTE9Ijg5MS40OTIyIiB5Mj0iODkxLjQ5MjIiLz48dGV4dCBmaWxsPSIjMDAwMDAwIiBmb250LWZhbWlseT0ic2Fucy1zZXJpZiIgZm9udC1zaXplPSIxMyIgbGVuZ3RoQWRqdXN0PSJzcGFjaW5nIiB0ZXh0TGVuZ3RoPSI3OSIgeD0iMTEyOSIgeT0iODg3Ljg2NzIiPkNvbmZpcm1hdGlvbjwvdGV4dD48cG9seWdvbiBmaWxsPSIjMTgxODE4IiBwb2ludHM9IjQ2Miw5MTUuNDA2Myw0NTIsOTE5LjQwNjMsNDYyLDkyMy40MDYzLDQ1OCw5MTkuNDA2MyIgc3R5bGU9InN0cm9rZTojMTgxODE4O3N0cm9rZS13aWR0aDoxLjA7Ii8+PGxpbmUgc3R5bGU9InN0cm9rZTojMTgxODE4O3N0cm9rZS13aWR0aDoxLjA7IiB4MT0iNDU2IiB4Mj0iMTExMSIgeTE9IjkxOS40MDYzIiB5Mj0iOTE5LjQwNjMiLz48dGV4dCBmaWxsPSIjMDAwMDAwIiBmb250LWZhbWlseT0ic2Fucy1zZXJpZiIgZm9udC1zaXplPSIxMyIgbGVuZ3RoQWRqdXN0PSJzcGFjaW5nIiB0ZXh0TGVuZ3RoPSIxNDkiIHg9IjQ2OCIgeT0iOTE1Ljc4MTMiPlJldHVybiB0byBQcm9maWxlIE1lbnU8L3RleHQ+PHBvbHlnb24gZmlsbD0iIzE4MTgxOCIgcG9pbnRzPSI0MzksOTQzLjMyMDMsNDQ5LDk0Ny4zMjAzLDQzOSw5NTEuMzIwMyw0NDMsOTQ3LjMyMDMiIHN0eWxlPSJzdHJva2U6IzE4MTgxODtzdHJva2Utd2lkdGg6MS4wOyIvPjxsaW5lIHN0eWxlPSJzdHJva2U6IzE4MTgxODtzdHJva2Utd2lkdGg6MS4wOyIgeDE9IjIyIiB4Mj0iNDQ1IiB5MT0iOTQ3LjMyMDMiIHkyPSI5NDcuMzIwMyIvPjx0ZXh0IGZpbGw9IiMwMDAwMDAiIGZvbnQtZmFtaWx5PSJzYW5zLXNlcmlmIiBmb250LXNpemU9IjEzIiBsZW5ndGhBZGp1c3Q9InNwYWNpbmciIHRleHRMZW5ndGg9IjE5MCIgeD0iMjkiIHk9Ijk0My42OTUzIj5TZWxlY3QgRm9vZCAmYW1wOyBEcmluayBTZXR0aW5nczwvdGV4dD48cG9seWdvbiBmaWxsPSIjMTgxODE4IiBwb2ludHM9IjEyNTcsOTcxLjIzNDQsMTI2Nyw5NzUuMjM0NCwxMjU3LDk3OS4yMzQ0LDEyNjEsOTc1LjIzNDQiIHN0eWxlPSJzdHJva2U6IzE4MTgxODtzdHJva2Utd2lkdGg6MS4wOyIvPjxsaW5lIHN0eWxlPSJzdHJva2U6IzE4MTgxODtzdHJva2Utd2lkdGg6MS4wOyIgeDE9IjQ1MSIgeDI9IjEyNjMiIHkxPSI5NzUuMjM0NCIgeTI9Ijk3NS4yMzQ0Ii8+PHRleHQgZmlsbD0iIzAwMDAwMCIgZm9udC1mYW1pbHk9InNhbnMtc2VyaWYiIGZvbnQtc2l6ZT0iMTMiIGxlbmd0aEFkanVzdD0ic3BhY2luZyIgdGV4dExlbmd0aD0iMTc4IiB4PSI0NTgiIHk9Ijk3MS42MDk0Ij5PcGVuIEZvb2QgJmFtcDsgRHJpbmsgU2V0dGluZ3M8L3RleHQ+PHBvbHlnb24gZmlsbD0iIzE4MTgxOCIgcG9pbnRzPSIzMyw5OTkuMTQ4NCwyMywxMDAzLjE0ODQsMzMsMTAwNy4xNDg0LDI5LDEwMDMuMTQ4NCIgc3R5bGU9InN0cm9rZTojMTgxODE4O3N0cm9rZS13aWR0aDoxLjA7Ii8+PGxpbmUgc3R5bGU9InN0cm9rZTojMTgxODE4O3N0cm9rZS13aWR0aDoxLjA7IiB4MT0iMjciIHgyPSIxMjY4IiB5MT0iMTAwMy4xNDg0IiB5Mj0iMTAwMy4xNDg0Ii8+PHRleHQgZmlsbD0iIzAwMDAwMCIgZm9udC1mYW1pbHk9InNhbnMtc2VyaWYiIGZvbnQtc2l6ZT0iMTMiIGxlbmd0aEFkanVzdD0ic3BhY2luZyIgdGV4dExlbmd0aD0iMTkwIiB4PSIzOSIgeT0iOTk5LjUyMzQiPkRpc3BsYXkgZm9vZCAmYW1wOyBkcmluayBvcHRpb25zPC90ZXh0Pjxwb2x5Z29uIGZpbGw9IiMxODE4MTgiIHBvaW50cz0iMTI1NywxMDI3LjA2MjUsMTI2NywxMDMxLjA2MjUsMTI1NywxMDM1LjA2MjUsMTI2MSwxMDMxLjA2MjUiIHN0eWxlPSJzdHJva2U6IzE4MTgxODtzdHJva2Utd2lkdGg6MS4wOyIvPjxsaW5lIHN0eWxlPSJzdHJva2U6IzE4MTgxODtzdHJva2Utd2lkdGg6MS4wOyIgeDE9IjIyIiB4Mj0iMTI2MyIgeTE9IjEwMzEuMDYyNSIgeTI9IjEwMzEuMDYyNSIvPjx0ZXh0IGZpbGw9IiMwMDAwMDAiIGZvbnQtZmFtaWx5PSJzYW5zLXNlcmlmIiBmb250LXNpemU9IjEzIiBsZW5ndGhBZGp1c3Q9InNwYWNpbmciIHRleHRMZW5ndGg9IjEzNyIgeD0iMjkiIHk9IjEwMjcuNDM3NSI+U2V0IGZvb2QgcHJlZmVyZW5jZXM8L3RleHQ+PHBvbHlnb24gZmlsbD0iIzE4MTgxOCIgcG9pbnRzPSIxNTQwLDEwNTQuOTc2NiwxNTUwLDEwNTguOTc2NiwxNTQwLDEwNjIuOTc2NiwxNTQ0LDEwNTguOTc2NiIgc3R5bGU9InN0cm9rZTojMTgxODE4O3N0cm9rZS13aWR0aDoxLjA7Ii8+PGxpbmUgc3R5bGU9InN0cm9rZTojMTgxODE4O3N0cm9rZS13aWR0aDoxLjA7IiB4MT0iMTI2OSIgeDI9IjE1NDYiIHkxPSIxMDU4Ljk3NjYiIHkyPSIxMDU4Ljk3NjYiLz48dGV4dCBmaWxsPSIjMDAwMDAwIiBmb250LWZhbWlseT0ic2Fucy1zZXJpZiIgZm9udC1zaXplPSIxMyIgbGVuZ3RoQWRqdXN0PSJzcGFjaW5nIiB0ZXh0TGVuZ3RoPSIxNzgiIHg9IjEyNzYiIHk9IjEwNTUuMzUxNiI+U2F2ZSBGb29kICZhbXA7IERyaW5rIFNldHRpbmdzPC90ZXh0Pjxwb2x5Z29uIGZpbGw9IiMxODE4MTgiIHBvaW50cz0iMTI4MCwxMDgyLjg5MDYsMTI3MCwxMDg2Ljg5MDYsMTI4MCwxMDkwLjg5MDYsMTI3NiwxMDg2Ljg5MDYiIHN0eWxlPSJzdHJva2U6IzE4MTgxODtzdHJva2Utd2lkdGg6MS4wOyIvPjxsaW5lIHN0eWxlPSJzdHJva2U6IzE4MTgxODtzdHJva2Utd2lkdGg6MS4wOyIgeDE9IjEyNzQiIHgyPSIxNTUxIiB5MT0iMTA4Ni44OTA2IiB5Mj0iMTA4Ni44OTA2Ii8+PHRleHQgZmlsbD0iIzAwMDAwMCIgZm9udC1mYW1pbHk9InNhbnMtc2VyaWYiIGZvbnQtc2l6ZT0iMTMiIGxlbmd0aEFkanVzdD0ic3BhY2luZyIgdGV4dExlbmd0aD0iNzkiIHg9IjEyODYiIHk9IjEwODMuMjY1NiI+Q29uZmlybWF0aW9uPC90ZXh0Pjxwb2x5Z29uIGZpbGw9IiMxODE4MTgiIHBvaW50cz0iNDYyLDExMTAuODA0Nyw0NTIsMTExNC44MDQ3LDQ2MiwxMTE4LjgwNDcsNDU4LDExMTQuODA0NyIgc3R5bGU9InN0cm9rZTojMTgxODE4O3N0cm9rZS13aWR0aDoxLjA7Ii8+PGxpbmUgc3R5bGU9InN0cm9rZTojMTgxODE4O3N0cm9rZS13aWR0aDoxLjA7IiB4MT0iNDU2IiB4Mj0iMTI2OCIgeTE9IjExMTQuODA0NyIgeTI9IjExMTQuODA0NyIvPjx0ZXh0IGZpbGw9IiMwMDAwMDAiIGZvbnQtZmFtaWx5PSJzYW5zLXNlcmlmIiBmb250LXNpemU9IjEzIiBsZW5ndGhBZGp1c3Q9InNwYWNpbmciIHRleHRMZW5ndGg9IjE0OSIgeD0iNDY4IiB5PSIxMTExLjE3OTciPlJldHVybiB0byBQcm9maWxlIE1lbnU8L3RleHQ+PHBvbHlnb24gZmlsbD0iIzE4MTgxOCIgcG9pbnRzPSI0MzksMTEzOC43MTg4LDQ0OSwxMTQyLjcxODgsNDM5LDExNDYuNzE4OCw0NDMsMTE0Mi43MTg4IiBzdHlsZT0ic3Ryb2tlOiMxODE4MTg7c3Ryb2tlLXdpZHRoOjEuMDsiLz48bGluZSBzdHlsZT0ic3Ryb2tlOiMxODE4MTg7c3Ryb2tlLXdpZHRoOjEuMDsiIHgxPSIyMiIgeDI9IjQ0NSIgeTE9IjExNDIuNzE4OCIgeTI9IjExNDIuNzE4OCIvPjx0ZXh0IGZpbGw9IiMwMDAwMDAiIGZvbnQtZmFtaWx5PSJzYW5zLXNlcmlmIiBmb250LXNpemU9IjEzIiBsZW5ndGhBZGp1c3Q9InNwYWNpbmciIHRleHRMZW5ndGg9IjE4MCIgeD0iMjkiIHk9IjExMzkuMDkzOCI+U2VsZWN0IEhlYWx0aCBJbmZvIFNldHRpbmdzPC90ZXh0Pjxwb2x5Z29uIGZpbGw9IiMxODE4MTgiIHBvaW50cz0iMTQyNC41LDExNjYuNjMyOCwxNDM0LjUsMTE3MC42MzI4LDE0MjQuNSwxMTc0LjYzMjgsMTQyOC41LDExNzAuNjMyOCIgc3R5bGU9InN0cm9rZTojMTgxODE4O3N0cm9rZS13aWR0aDoxLjA7Ii8+PGxpbmUgc3R5bGU9InN0cm9rZTojMTgxODE4O3N0cm9rZS13aWR0aDoxLjA7IiB4MT0iNDUxIiB4Mj0iMTQzMC41IiB5MT0iMTE3MC42MzI4IiB5Mj0iMTE3MC42MzI4Ii8+PHRleHQgZmlsbD0iIzAwMDAwMCIgZm9udC1mYW1pbHk9InNhbnMtc2VyaWYiIGZvbnQtc2l6ZT0iMTMiIGxlbmd0aEFkanVzdD0ic3BhY2luZyIgdGV4dExlbmd0aD0iMTY4IiB4PSI0NTgiIHk9IjExNjcuMDA3OCI+T3BlbiBIZWFsdGggSW5mbyBTZXR0aW5nczwvdGV4dD48cG9seWdvbiBmaWxsPSIjMTgxODE4IiBwb2ludHM9IjMzLDExOTQuNTQ2OSwyMywxMTk4LjU0NjksMzMsMTIwMi41NDY5LDI5LDExOTguNTQ2OSIgc3R5bGU9InN0cm9rZTojMTgxODE4O3N0cm9rZS13aWR0aDoxLjA7Ii8+PGxpbmUgc3R5bGU9InN0cm9rZTojMTgxODE4O3N0cm9rZS13aWR0aDoxLjA7IiB4MT0iMjciIHgyPSIxNDM1LjUiIHkxPSIxMTk4LjU0NjkiIHkyPSIxMTk4LjU0NjkiLz48dGV4dCBmaWxsPSIjMDAwMDAwIiBmb250LWZhbWlseT0ic2Fucy1zZXJpZiIgZm9udC1zaXplPSIxMyIgbGVuZ3RoQWRqdXN0PSJzcGFjaW5nIiB0ZXh0TGVuZ3RoPSI0NyIgeD0iMzkiIHk9IjExOTQuOTIxOSI+RGlzcGxheTwvdGV4dD48IS0tU1JDPVtoUE5GUmppbTNDUmxWV2dZWHc0M2lacjAzbU02NVRqd3cxeXF3RXcyR3dWMjRpY0djRzF2LXJmb1A4aUtpckRrWmxIel9FV1ZPeWNxdjBFeTNuWVF0V0lvaFVzRDh4WHYzUndwRXVHZFQ4U1JDMEVTNS05bGhkcHNQM2xSNmhCVW1IZzloRGlFb1A5c3lXZXRfVk1zSFZYemkxbGFkaElYVW51VE9TMjFrMjZsd2Z1VkJUY1pmSEZ0djVOVHl5bHgzTm8xWHMzVEYtd0JFeGhkM3ZlVFZPcERUOXZSZmVzdXBXdGhxcTJ1SnZCZmlNZFk0RTNSVkthUXhrMmJIbVZiRDlmb1Z2R2RzbnF5c0E3VmNIRnVGV3ZZV0Rqb0JpQ0Eya0FoNlRndVpqSC1fdGVmVjhxeFIwZEs0U2ktc0JIcHV4Z0pJLWp0U0FOaF80OXBYcDlkVkVJNkZjMHRsZnJoS0tjUU80VVJFVUE1eml1UTlVa2RUdnFELXdJbFF0RHNScVk3dTgweWR6eF9JTWxWWEdKREZmNENNWkxvUFN0dmM0cFJQOUFPUEtoNEZFYkJsYksydndqc2pVMkw2R25sTFZlQVVFVl9sTUdnSnY2Q2pKZnBjYWZQT3hOUDk5YWdBSDdoaDJfOVFaYVNSanRSR2JQOU9kMnJ3YlZXTW5zdGFoQ3lVSkZkc2JXZlF5dWNjb0hkOUlMb2RsS2JQb3M3U3d2eE1wV2hJT29wTGxxQWRES2hJaDhrUndsQ01KU29QU3N2Y3FvUlA5QWlIS2hhZEZHYk9yY1Z5ekx4TVhZQjFDUE5MaHUyTS1xZ2JzWU5NcHMzTExzNWhBQncyRzAwXS0tPjwvZz48L3N2Zz4=;" vertex="1" parent="1">
            <mxGeometry x="-740" y="-1140" width="4992.96" height="4080" as="geometry" />
          </mxCell>
        </UserObject>
      </root>
    </mxGraphModel>
  </diagram>
  <diagram id="qlSB__xw0DfbX5OHFutv" name="Page-4">
    <mxGraphModel dx="1440" dy="655" grid="1" gridSize="10" guides="1" tooltips="1" connect="1" arrows="1" fold="1" page="1" pageScale="1" pageWidth="827" pageHeight="1169" math="0" shadow="0">
      <root>
        <mxCell id="0" />
        <mxCell id="1" parent="0" />
        <UserObject label="" plantUmlData="{&#xa;  &quot;data&quot;: &quot;@startuml\nactor User\nparticipant \&quot;Profile Menu\&quot; as ProfileMenu\nparticipant \&quot;Notification Settings\&quot; as NotifSettings\nparticipant \&quot;Voice Guide Settings\&quot; as VoiceSettings\nparticipant \&quot;Interest Settings\&quot; as InterestSettings\nparticipant \&quot;Activity Settings\&quot; as ActivitySettings\nparticipant \&quot;Food &amp; Drink Settings\&quot; as FoodSettings\nparticipant \&quot;Health Info Settings\&quot; as HealthInfo\nparticipant \&quot;System\&quot; as System\n\n== Profile Menu ==\n\nUser -&gt; ProfileMenu : Open Profile Menu\nProfileMenu -&gt; User : Display options\n\n== Notifications ==\n\nUser -&gt; ProfileMenu : Select Notification Settings\nProfileMenu -&gt; NotifSettings : Open Notification Settings\nNotifSettings -&gt; User : Display notification\n&quot;,&#xa;  &quot;format&quot;: &quot;svg&quot;&#xa;}" id="06EElB-48P58Vhlp45u--1">
          <mxCell style="shape=image;noLabel=1;verticalAlign=top;aspect=fixed;imageAspect=0;image=data:image/svg+xml,PD94bWwgdmVyc2lvbj0iMS4wIiBlbmNvZGluZz0idXMtYXNjaWkiIHN0YW5kYWxvbmU9Im5vIj8+PHN2ZyB4bWxucz0iaHR0cDovL3d3dy53My5vcmcvMjAwMC9zdmciIHhtbG5zOnhsaW5rPSJodHRwOi8vd3d3LnczLm9yZy8xOTk5L3hsaW5rIiBjb250ZW50U3R5bGVUeXBlPSJ0ZXh0L2NzcyIgaGVpZ2h0PSI0MDJweCIgcHJlc2VydmVBc3BlY3RSYXRpbz0ibm9uZSIgc3R5bGU9IndpZHRoOjEzNzJweDtoZWlnaHQ6NDAycHg7YmFja2dyb3VuZDojRkZGRkZGOyIgdmVyc2lvbj0iMS4xIiB2aWV3Qm94PSIwIDAgMTM3MiA0MDIiIHdpZHRoPSIxMzcycHgiIHpvb21BbmRQYW49Im1hZ25pZnkiPjxkZWZzLz48Zz48bGluZSBzdHlsZT0ic3Ryb2tlOiMxODE4MTg7c3Ryb2tlLXdpZHRoOjAuNTtzdHJva2UtZGFzaGFycmF5OjUuMCw1LjA7IiB4MT0iMjIiIHgyPSIyMiIgeTE9Ijc5Ljk4NDQiIHkyPSIzMjMuMzgyOCIvPjxsaW5lIHN0eWxlPSJzdHJva2U6IzE4MTgxODtzdHJva2Utd2lkdGg6MC41O3N0cm9rZS1kYXNoYXJyYXk6NS4wLDUuMDsiIHgxPSIyMzEiIHgyPSIyMzEiIHkxPSI3OS45ODQ0IiB5Mj0iMzIzLjM4MjgiLz48bGluZSBzdHlsZT0ic3Ryb2tlOiMxODE4MTg7c3Ryb2tlLXdpZHRoOjAuNTtzdHJva2UtZGFzaGFycmF5OjUuMCw1LjA7IiB4MT0iNDI3LjUiIHgyPSI0MjcuNSIgeTE9Ijc5Ljk4NDQiIHkyPSIzMjMuMzgyOCIvPjxsaW5lIHN0eWxlPSJzdHJva2U6IzE4MTgxODtzdHJva2Utd2lkdGg6MC41O3N0cm9rZS1kYXNoYXJyYXk6NS4wLDUuMDsiIHgxPSI1OTUuNSIgeDI9IjU5NS41IiB5MT0iNzkuOTg0NCIgeTI9IjMyMy4zODI4Ii8+PGxpbmUgc3R5bGU9InN0cm9rZTojMTgxODE4O3N0cm9rZS13aWR0aDowLjU7c3Ryb2tlLWRhc2hhcnJheTo1LjAsNS4wOyIgeDE9Ijc0OC41IiB4Mj0iNzQ4LjUiIHkxPSI3OS45ODQ0IiB5Mj0iMzIzLjM4MjgiLz48bGluZSBzdHlsZT0ic3Ryb2tlOiMxODE4MTg7c3Ryb2tlLXdpZHRoOjAuNTtzdHJva2UtZGFzaGFycmF5OjUuMCw1LjA7IiB4MT0iODkxLjUiIHgyPSI4OTEuNSIgeTE9Ijc5Ljk4NDQiIHkyPSIzMjMuMzgyOCIvPjxsaW5lIHN0eWxlPSJzdHJva2U6IzE4MTgxODtzdHJva2Utd2lkdGg6MC41O3N0cm9rZS1kYXNoYXJyYXk6NS4wLDUuMDsiIHgxPSIxMDQ4LjUiIHgyPSIxMDQ4LjUiIHkxPSI3OS45ODQ0IiB5Mj0iMzIzLjM4MjgiLz48bGluZSBzdHlsZT0ic3Ryb2tlOiMxODE4MTg7c3Ryb2tlLXdpZHRoOjAuNTtzdHJva2UtZGFzaGFycmF5OjUuMCw1LjA7IiB4MT0iMTIxNi41IiB4Mj0iMTIxNi41IiB5MT0iNzkuOTg0NCIgeTI9IjMyMy4zODI4Ii8+PGxpbmUgc3R5bGU9InN0cm9rZTojMTgxODE4O3N0cm9rZS13aWR0aDowLjU7c3Ryb2tlLWRhc2hhcnJheTo1LjAsNS4wOyIgeDE9IjEzMzEuNSIgeDI9IjEzMzEuNSIgeTE9Ijc5Ljk4NDQiIHkyPSIzMjMuMzgyOCIvPjx0ZXh0IGZpbGw9IiMwMDAwMDAiIGZvbnQtZmFtaWx5PSJzYW5zLXNlcmlmIiBmb250LXNpemU9IjE0IiBsZW5ndGhBZGp1c3Q9InNwYWNpbmciIHRleHRMZW5ndGg9IjI4IiB4PSI1IiB5PSI3OC4yMzQ0Ij5Vc2VyPC90ZXh0PjxlbGxpcHNlIGN4PSIyMiIgY3k9IjEzLjUiIGZpbGw9IiNFMkUyRjAiIHJ4PSI4IiByeT0iOCIgc3R5bGU9InN0cm9rZTojMTgxODE4O3N0cm9rZS13aWR0aDowLjU7Ii8+PHBhdGggZD0iTTIyLDIxLjUgTDIyLDQ4LjUgTTksMjkuNSBMMzUsMjkuNSBNMjIsNDguNSBMOSw2My41IE0yMiw0OC41IEwzNSw2My41ICIgZmlsbD0ibm9uZSIgc3R5bGU9InN0cm9rZTojMTgxODE4O3N0cm9rZS13aWR0aDowLjU7Ii8+PHRleHQgZmlsbD0iIzAwMDAwMCIgZm9udC1mYW1pbHk9InNhbnMtc2VyaWYiIGZvbnQtc2l6ZT0iMTQiIGxlbmd0aEFkanVzdD0ic3BhY2luZyIgdGV4dExlbmd0aD0iMjgiIHg9IjUiIHk9IjMzNS42MTcyIj5Vc2VyPC90ZXh0PjxlbGxpcHNlIGN4PSIyMiIgY3k9IjM0NS44NjcyIiBmaWxsPSIjRTJFMkYwIiByeD0iOCIgcnk9IjgiIHN0eWxlPSJzdHJva2U6IzE4MTgxODtzdHJva2Utd2lkdGg6MC41OyIvPjxwYXRoIGQ9Ik0yMiwzNTMuODY3MiBMMjIsMzgwLjg2NzIgTTksMzYxLjg2NzIgTDM1LDM2MS44NjcyIE0yMiwzODAuODY3MiBMOSwzOTUuODY3MiBNMjIsMzgwLjg2NzIgTDM1LDM5NS44NjcyICIgZmlsbD0ibm9uZSIgc3R5bGU9InN0cm9rZTojMTgxODE4O3N0cm9rZS13aWR0aDowLjU7Ii8+PHJlY3QgZmlsbD0iI0UyRTJGMCIgaGVpZ2h0PSIyOC45ODQ0IiByeD0iMi41IiByeT0iMi41IiBzdHlsZT0ic3Ryb2tlOiMxODE4MTg7c3Ryb2tlLXdpZHRoOjAuNTsiIHdpZHRoPSI5OCIgeD0iMTgyIiB5PSI1MCIvPjx0ZXh0IGZpbGw9IiMwMDAwMDAiIGZvbnQtZmFtaWx5PSJzYW5zLXNlcmlmIiBmb250LXNpemU9IjE0IiBsZW5ndGhBZGp1c3Q9InNwYWNpbmciIHRleHRMZW5ndGg9Ijg0IiB4PSIxODkiIHk9IjcwLjIzNDQiPlByb2ZpbGUgTWVudTwvdGV4dD48cmVjdCBmaWxsPSIjRTJFMkYwIiBoZWlnaHQ9IjI4Ljk4NDQiIHJ4PSIyLjUiIHJ5PSIyLjUiIHN0eWxlPSJzdHJva2U6IzE4MTgxODtzdHJva2Utd2lkdGg6MC41OyIgd2lkdGg9Ijk4IiB4PSIxODIiIHk9IjMyMi4zODI4Ii8+PHRleHQgZmlsbD0iIzAwMDAwMCIgZm9udC1mYW1pbHk9InNhbnMtc2VyaWYiIGZvbnQtc2l6ZT0iMTQiIGxlbmd0aEFkanVzdD0ic3BhY2luZyIgdGV4dExlbmd0aD0iODQiIHg9IjE4OSIgeT0iMzQyLjYxNzIiPlByb2ZpbGUgTWVudTwvdGV4dD48cmVjdCBmaWxsPSIjRTJFMkYwIiBoZWlnaHQ9IjI4Ljk4NDQiIHJ4PSIyLjUiIHJ5PSIyLjUiIHN0eWxlPSJzdHJva2U6IzE4MTgxODtzdHJva2Utd2lkdGg6MC41OyIgd2lkdGg9IjE2MSIgeD0iMzQ3LjUiIHk9IjUwIi8+PHRleHQgZmlsbD0iIzAwMDAwMCIgZm9udC1mYW1pbHk9InNhbnMtc2VyaWYiIGZvbnQtc2l6ZT0iMTQiIGxlbmd0aEFkanVzdD0ic3BhY2luZyIgdGV4dExlbmd0aD0iMTQ3IiB4PSIzNTQuNSIgeT0iNzAuMjM0NCI+Tm90aWZpY2F0aW9uIFNldHRpbmdzPC90ZXh0PjxyZWN0IGZpbGw9IiNFMkUyRjAiIGhlaWdodD0iMjguOTg0NCIgcng9IjIuNSIgcnk9IjIuNSIgc3R5bGU9InN0cm9rZTojMTgxODE4O3N0cm9rZS13aWR0aDowLjU7IiB3aWR0aD0iMTYxIiB4PSIzNDcuNSIgeT0iMzIyLjM4MjgiLz48dGV4dCBmaWxsPSIjMDAwMDAwIiBmb250LWZhbWlseT0ic2Fucy1zZXJpZiIgZm9udC1zaXplPSIxNCIgbGVuZ3RoQWRqdXN0PSJzcGFjaW5nIiB0ZXh0TGVuZ3RoPSIxNDciIHg9IjM1NC41IiB5PSIzNDIuNjE3MiI+Tm90aWZpY2F0aW9uIFNldHRpbmdzPC90ZXh0PjxyZWN0IGZpbGw9IiNFMkUyRjAiIGhlaWdodD0iMjguOTg0NCIgcng9IjIuNSIgcnk9IjIuNSIgc3R5bGU9InN0cm9rZTojMTgxODE4O3N0cm9rZS13aWR0aDowLjU7IiB3aWR0aD0iMTU0IiB4PSI1MTguNSIgeT0iNTAiLz48dGV4dCBmaWxsPSIjMDAwMDAwIiBmb250LWZhbWlseT0ic2Fucy1zZXJpZiIgZm9udC1zaXplPSIxNCIgbGVuZ3RoQWRqdXN0PSJzcGFjaW5nIiB0ZXh0TGVuZ3RoPSIxNDAiIHg9IjUyNS41IiB5PSI3MC4yMzQ0Ij5Wb2ljZSBHdWlkZSBTZXR0aW5nczwvdGV4dD48cmVjdCBmaWxsPSIjRTJFMkYwIiBoZWlnaHQ9IjI4Ljk4NDQiIHJ4PSIyLjUiIHJ5PSIyLjUiIHN0eWxlPSJzdHJva2U6IzE4MTgxODtzdHJva2Utd2lkdGg6MC41OyIgd2lkdGg9IjE1NCIgeD0iNTE4LjUiIHk9IjMyMi4zODI4Ii8+PHRleHQgZmlsbD0iIzAwMDAwMCIgZm9udC1mYW1pbHk9InNhbnMtc2VyaWYiIGZvbnQtc2l6ZT0iMTQiIGxlbmd0aEFkanVzdD0ic3BhY2luZyIgdGV4dExlbmd0aD0iMTQwIiB4PSI1MjUuNSIgeT0iMzQyLjYxNzIiPlZvaWNlIEd1aWRlIFNldHRpbmdzPC90ZXh0PjxyZWN0IGZpbGw9IiNFMkUyRjAiIGhlaWdodD0iMjguOTg0NCIgcng9IjIuNSIgcnk9IjIuNSIgc3R5bGU9InN0cm9rZTojMTgxODE4O3N0cm9rZS13aWR0aDowLjU7IiB3aWR0aD0iMTMzIiB4PSI2ODIuNSIgeT0iNTAiLz48dGV4dCBmaWxsPSIjMDAwMDAwIiBmb250LWZhbWlseT0ic2Fucy1zZXJpZiIgZm9udC1zaXplPSIxNCIgbGVuZ3RoQWRqdXN0PSJzcGFjaW5nIiB0ZXh0TGVuZ3RoPSIxMTkiIHg9IjY4OS41IiB5PSI3MC4yMzQ0Ij5JbnRlcmVzdCBTZXR0aW5nczwvdGV4dD48cmVjdCBmaWxsPSIjRTJFMkYwIiBoZWlnaHQ9IjI4Ljk4NDQiIHJ4PSIyLjUiIHJ5PSIyLjUiIHN0eWxlPSJzdHJva2U6IzE4MTgxODtzdHJva2Utd2lkdGg6MC41OyIgd2lkdGg9IjEzMyIgeD0iNjgyLjUiIHk9IjMyMi4zODI4Ii8+PHRleHQgZmlsbD0iIzAwMDAwMCIgZm9udC1mYW1pbHk9InNhbnMtc2VyaWYiIGZvbnQtc2l6ZT0iMTQiIGxlbmd0aEFkanVzdD0ic3BhY2luZyIgdGV4dExlbmd0aD0iMTE5IiB4PSI2ODkuNSIgeT0iMzQyLjYxNzIiPkludGVyZXN0IFNldHRpbmdzPC90ZXh0PjxyZWN0IGZpbGw9IiNFMkUyRjAiIGhlaWdodD0iMjguOTg0NCIgcng9IjIuNSIgcnk9IjIuNSIgc3R5bGU9InN0cm9rZTojMTgxODE4O3N0cm9rZS13aWR0aDowLjU7IiB3aWR0aD0iMTMzIiB4PSI4MjUuNSIgeT0iNTAiLz48dGV4dCBmaWxsPSIjMDAwMDAwIiBmb250LWZhbWlseT0ic2Fucy1zZXJpZiIgZm9udC1zaXplPSIxNCIgbGVuZ3RoQWRqdXN0PSJzcGFjaW5nIiB0ZXh0TGVuZ3RoPSIxMTkiIHg9IjgzMi41IiB5PSI3MC4yMzQ0Ij5BY3Rpdml0eSBTZXR0aW5nczwvdGV4dD48cmVjdCBmaWxsPSIjRTJFMkYwIiBoZWlnaHQ9IjI4Ljk4NDQiIHJ4PSIyLjUiIHJ5PSIyLjUiIHN0eWxlPSJzdHJva2U6IzE4MTgxODtzdHJva2Utd2lkdGg6MC41OyIgd2lkdGg9IjEzMyIgeD0iODI1LjUiIHk9IjMyMi4zODI4Ii8+PHRleHQgZmlsbD0iIzAwMDAwMCIgZm9udC1mYW1pbHk9InNhbnMtc2VyaWYiIGZvbnQtc2l6ZT0iMTQiIGxlbmd0aEFkanVzdD0ic3BhY2luZyIgdGV4dExlbmd0aD0iMTE5IiB4PSI4MzIuNSIgeT0iMzQyLjYxNzIiPkFjdGl2aXR5IFNldHRpbmdzPC90ZXh0PjxyZWN0IGZpbGw9IiNFMkUyRjAiIGhlaWdodD0iMjguOTg0NCIgcng9IjIuNSIgcnk9IjIuNSIgc3R5bGU9InN0cm9rZTojMTgxODE4O3N0cm9rZS13aWR0aDowLjU7IiB3aWR0aD0iMTYxIiB4PSI5NjguNSIgeT0iNTAiLz48dGV4dCBmaWxsPSIjMDAwMDAwIiBmb250LWZhbWlseT0ic2Fucy1zZXJpZiIgZm9udC1zaXplPSIxNCIgbGVuZ3RoQWRqdXN0PSJzcGFjaW5nIiB0ZXh0TGVuZ3RoPSIxNDciIHg9Ijk3NS41IiB5PSI3MC4yMzQ0Ij5Gb29kICZhbXA7IERyaW5rIFNldHRpbmdzPC90ZXh0PjxyZWN0IGZpbGw9IiNFMkUyRjAiIGhlaWdodD0iMjguOTg0NCIgcng9IjIuNSIgcnk9IjIuNSIgc3R5bGU9InN0cm9rZTojMTgxODE4O3N0cm9rZS13aWR0aDowLjU7IiB3aWR0aD0iMTYxIiB4PSI5NjguNSIgeT0iMzIyLjM4MjgiLz48dGV4dCBmaWxsPSIjMDAwMDAwIiBmb250LWZhbWlseT0ic2Fucy1zZXJpZiIgZm9udC1zaXplPSIxNCIgbGVuZ3RoQWRqdXN0PSJzcGFjaW5nIiB0ZXh0TGVuZ3RoPSIxNDciIHg9Ijk3NS41IiB5PSIzNDIuNjE3MiI+Rm9vZCAmYW1wOyBEcmluayBTZXR0aW5nczwvdGV4dD48cmVjdCBmaWxsPSIjRTJFMkYwIiBoZWlnaHQ9IjI4Ljk4NDQiIHJ4PSIyLjUiIHJ5PSIyLjUiIHN0eWxlPSJzdHJva2U6IzE4MTgxODtzdHJva2Utd2lkdGg6MC41OyIgd2lkdGg9IjE1NCIgeD0iMTEzOS41IiB5PSI1MCIvPjx0ZXh0IGZpbGw9IiMwMDAwMDAiIGZvbnQtZmFtaWx5PSJzYW5zLXNlcmlmIiBmb250LXNpemU9IjE0IiBsZW5ndGhBZGp1c3Q9InNwYWNpbmciIHRleHRMZW5ndGg9IjE0MCIgeD0iMTE0Ni41IiB5PSI3MC4yMzQ0Ij5IZWFsdGggSW5mbyBTZXR0aW5nczwvdGV4dD48cmVjdCBmaWxsPSIjRTJFMkYwIiBoZWlnaHQ9IjI4Ljk4NDQiIHJ4PSIyLjUiIHJ5PSIyLjUiIHN0eWxlPSJzdHJva2U6IzE4MTgxODtzdHJva2Utd2lkdGg6MC41OyIgd2lkdGg9IjE1NCIgeD0iMTEzOS41IiB5PSIzMjIuMzgyOCIvPjx0ZXh0IGZpbGw9IiMwMDAwMDAiIGZvbnQtZmFtaWx5PSJzYW5zLXNlcmlmIiBmb250LXNpemU9IjE0IiBsZW5ndGhBZGp1c3Q9InNwYWNpbmciIHRleHRMZW5ndGg9IjE0MCIgeD0iMTE0Ni41IiB5PSIzNDIuNjE3MiI+SGVhbHRoIEluZm8gU2V0dGluZ3M8L3RleHQ+PHJlY3QgZmlsbD0iI0UyRTJGMCIgaGVpZ2h0PSIyOC45ODQ0IiByeD0iMi41IiByeT0iMi41IiBzdHlsZT0ic3Ryb2tlOiMxODE4MTg7c3Ryb2tlLXdpZHRoOjAuNTsiIHdpZHRoPSI1NyIgeD0iMTMwMy41IiB5PSI1MCIvPjx0ZXh0IGZpbGw9IiMwMDAwMDAiIGZvbnQtZmFtaWx5PSJzYW5zLXNlcmlmIiBmb250LXNpemU9IjE0IiBsZW5ndGhBZGp1c3Q9InNwYWNpbmciIHRleHRMZW5ndGg9IjQzIiB4PSIxMzEwLjUiIHk9IjcwLjIzNDQiPlN5c3RlbTwvdGV4dD48cmVjdCBmaWxsPSIjRTJFMkYwIiBoZWlnaHQ9IjI4Ljk4NDQiIHJ4PSIyLjUiIHJ5PSIyLjUiIHN0eWxlPSJzdHJva2U6IzE4MTgxODtzdHJva2Utd2lkdGg6MC41OyIgd2lkdGg9IjU3IiB4PSIxMzAzLjUiIHk9IjMyMi4zODI4Ii8+PHRleHQgZmlsbD0iIzAwMDAwMCIgZm9udC1mYW1pbHk9InNhbnMtc2VyaWYiIGZvbnQtc2l6ZT0iMTQiIGxlbmd0aEFkanVzdD0ic3BhY2luZyIgdGV4dExlbmd0aD0iNDMiIHg9IjEzMTAuNSIgeT0iMzQyLjYxNzIiPlN5c3RlbTwvdGV4dD48cmVjdCBmaWxsPSIjRUVFRUVFIiBoZWlnaHQ9IjMiIHN0eWxlPSJzdHJva2U6I0VFRUVFRTtzdHJva2Utd2lkdGg6MS4wOyIgd2lkdGg9IjEzNjUuNSIgeD0iMCIgeT0iMTA5Ljk0MTQiLz48bGluZSBzdHlsZT0ic3Ryb2tlOiMwMDAwMDA7c3Ryb2tlLXdpZHRoOjEuMDsiIHgxPSIwIiB4Mj0iMTM2NS41IiB5MT0iMTA5Ljk0MTQiIHkyPSIxMDkuOTQxNCIvPjxsaW5lIHN0eWxlPSJzdHJva2U6IzAwMDAwMDtzdHJva2Utd2lkdGg6MS4wOyIgeDE9IjAiIHgyPSIxMzY1LjUiIHkxPSIxMTIuOTQxNCIgeTI9IjExMi45NDE0Ii8+PHJlY3QgZmlsbD0iI0VFRUVFRSIgaGVpZ2h0PSIyMS45MTQxIiBzdHlsZT0ic3Ryb2tlOiMwMDAwMDA7c3Ryb2tlLXdpZHRoOjIuMDsiIHdpZHRoPSIxMDIiIHg9IjYzMS43NSIgeT0iOTkuOTg0NCIvPjx0ZXh0IGZpbGw9IiMwMDAwMDAiIGZvbnQtZmFtaWx5PSJzYW5zLXNlcmlmIiBmb250LXNpemU9IjEzIiBmb250LXdlaWdodD0iYm9sZCIgbGVuZ3RoQWRqdXN0PSJzcGFjaW5nIiB0ZXh0TGVuZ3RoPSI4MSIgeD0iNjM3Ljc1IiB5PSIxMTYuMjczNCI+UHJvZmlsZSBNZW51PC90ZXh0Pjxwb2x5Z29uIGZpbGw9IiMxODE4MTgiIHBvaW50cz0iMjE5LDE0Ny44MTI1LDIyOSwxNTEuODEyNSwyMTksMTU1LjgxMjUsMjIzLDE1MS44MTI1IiBzdHlsZT0ic3Ryb2tlOiMxODE4MTg7c3Ryb2tlLXdpZHRoOjEuMDsiLz48bGluZSBzdHlsZT0ic3Ryb2tlOiMxODE4MTg7c3Ryb2tlLXdpZHRoOjEuMDsiIHgxPSIyMiIgeDI9IjIyNSIgeTE9IjE1MS44MTI1IiB5Mj0iMTUxLjgxMjUiLz48dGV4dCBmaWxsPSIjMDAwMDAwIiBmb250LWZhbWlseT0ic2Fucy1zZXJpZiIgZm9udC1zaXplPSIxMyIgbGVuZ3RoQWRqdXN0PSJzcGFjaW5nIiB0ZXh0TGVuZ3RoPSIxMTYiIHg9IjI5IiB5PSIxNDguMTg3NSI+T3BlbiBQcm9maWxlIE1lbnU8L3RleHQ+PHBvbHlnb24gZmlsbD0iIzE4MTgxOCIgcG9pbnRzPSIzMywxNzUuNzI2NiwyMywxNzkuNzI2NiwzMywxODMuNzI2NiwyOSwxNzkuNzI2NiIgc3R5bGU9InN0cm9rZTojMTgxODE4O3N0cm9rZS13aWR0aDoxLjA7Ii8+PGxpbmUgc3R5bGU9InN0cm9rZTojMTgxODE4O3N0cm9rZS13aWR0aDoxLjA7IiB4MT0iMjciIHgyPSIyMzAiIHkxPSIxNzkuNzI2NiIgeTI9IjE3OS43MjY2Ii8+PHRleHQgZmlsbD0iIzAwMDAwMCIgZm9udC1mYW1pbHk9InNhbnMtc2VyaWYiIGZvbnQtc2l6ZT0iMTMiIGxlbmd0aEFkanVzdD0ic3BhY2luZyIgdGV4dExlbmd0aD0iMTAxIiB4PSIzOSIgeT0iMTc2LjEwMTYiPkRpc3BsYXkgb3B0aW9uczwvdGV4dD48cmVjdCBmaWxsPSIjRUVFRUVFIiBoZWlnaHQ9IjMiIHN0eWxlPSJzdHJva2U6I0VFRUVFRTtzdHJva2Utd2lkdGg6MS4wOyIgd2lkdGg9IjEzNjUuNSIgeD0iMCIgeT0iMjA3LjY4MzYiLz48bGluZSBzdHlsZT0ic3Ryb2tlOiMwMDAwMDA7c3Ryb2tlLXdpZHRoOjEuMDsiIHgxPSIwIiB4Mj0iMTM2NS41IiB5MT0iMjA3LjY4MzYiIHkyPSIyMDcuNjgzNiIvPjxsaW5lIHN0eWxlPSJzdHJva2U6IzAwMDAwMDtzdHJva2Utd2lkdGg6MS4wOyIgeDE9IjAiIHgyPSIxMzY1LjUiIHkxPSIyMTAuNjgzNiIgeTI9IjIxMC42ODM2Ii8+PHJlY3QgZmlsbD0iI0VFRUVFRSIgaGVpZ2h0PSIyMS45MTQxIiBzdHlsZT0ic3Ryb2tlOiMwMDAwMDA7c3Ryb2tlLXdpZHRoOjIuMDsiIHdpZHRoPSIxMDYiIHg9IjYyOS43NSIgeT0iMTk3LjcyNjYiLz48dGV4dCBmaWxsPSIjMDAwMDAwIiBmb250LWZhbWlseT0ic2Fucy1zZXJpZiIgZm9udC1zaXplPSIxMyIgZm9udC13ZWlnaHQ9ImJvbGQiIGxlbmd0aEFkanVzdD0ic3BhY2luZyIgdGV4dExlbmd0aD0iODUiIHg9IjYzNS43NSIgeT0iMjE0LjAxNTYiPk5vdGlmaWNhdGlvbnM8L3RleHQ+PHBvbHlnb24gZmlsbD0iIzE4MTgxOCIgcG9pbnRzPSIyMTksMjQ1LjU1NDcsMjI5LDI0OS41NTQ3LDIxOSwyNTMuNTU0NywyMjMsMjQ5LjU1NDciIHN0eWxlPSJzdHJva2U6IzE4MTgxODtzdHJva2Utd2lkdGg6MS4wOyIvPjxsaW5lIHN0eWxlPSJzdHJva2U6IzE4MTgxODtzdHJva2Utd2lkdGg6MS4wOyIgeDE9IjIyIiB4Mj0iMjI1IiB5MT0iMjQ5LjU1NDciIHkyPSIyNDkuNTU0NyIvPjx0ZXh0IGZpbGw9IiMwMDAwMDAiIGZvbnQtZmFtaWx5PSJzYW5zLXNlcmlmIiBmb250LXNpemU9IjEzIiBsZW5ndGhBZGp1c3Q9InNwYWNpbmciIHRleHRMZW5ndGg9IjE4NSIgeD0iMjkiIHk9IjI0NS45Mjk3Ij5TZWxlY3QgTm90aWZpY2F0aW9uIFNldHRpbmdzPC90ZXh0Pjxwb2x5Z29uIGZpbGw9IiMxODE4MTgiIHBvaW50cz0iNDE2LDI3My40Njg4LDQyNiwyNzcuNDY4OCw0MTYsMjgxLjQ2ODgsNDIwLDI3Ny40Njg4IiBzdHlsZT0ic3Ryb2tlOiMxODE4MTg7c3Ryb2tlLXdpZHRoOjEuMDsiLz48bGluZSBzdHlsZT0ic3Ryb2tlOiMxODE4MTg7c3Ryb2tlLXdpZHRoOjEuMDsiIHgxPSIyMzEiIHgyPSI0MjIiIHkxPSIyNzcuNDY4OCIgeTI9IjI3Ny40Njg4Ii8+PHRleHQgZmlsbD0iIzAwMDAwMCIgZm9udC1mYW1pbHk9InNhbnMtc2VyaWYiIGZvbnQtc2l6ZT0iMTMiIGxlbmd0aEFkanVzdD0ic3BhY2luZyIgdGV4dExlbmd0aD0iMTczIiB4PSIyMzgiIHk9IjI3My44NDM4Ij5PcGVuIE5vdGlmaWNhdGlvbiBTZXR0aW5nczwvdGV4dD48cG9seWdvbiBmaWxsPSIjMTgxODE4IiBwb2ludHM9IjMzLDMwMS4zODI4LDIzLDMwNS4zODI4LDMzLDMwOS4zODI4LDI5LDMwNS4zODI4IiBzdHlsZT0ic3Ryb2tlOiMxODE4MTg7c3Ryb2tlLXdpZHRoOjEuMDsiLz48bGluZSBzdHlsZT0ic3Ryb2tlOiMxODE4MTg7c3Ryb2tlLXdpZHRoOjEuMDsiIHgxPSIyNyIgeDI9IjQyNyIgeTE9IjMwNS4zODI4IiB5Mj0iMzA1LjM4MjgiLz48dGV4dCBmaWxsPSIjMDAwMDAwIiBmb250LWZhbWlseT0ic2Fucy1zZXJpZiIgZm9udC1zaXplPSIxMyIgbGVuZ3RoQWRqdXN0PSJzcGFjaW5nIiB0ZXh0TGVuZ3RoPSIxMzIiIHg9IjM5IiB5PSIzMDEuNzU3OCI+RGlzcGxheSBub3RpZmljYXRpb248L3RleHQ+PCEtLVNSQz1bVlA3MVFXQ24zNEpsX1dnSEdzeHpXUzBNMGc1RDNzcTNJdGV0WlpPTHRMaDZMV0J4enVjVEJiWURvU3NVY09VNG5aaFgyRms0cUdHUlhIbTV3bUtNa3lXM1pHWmx3NHlCaTBkLVhGcE5vR3lNNmlYUDhWUkdlbVp2T29mOFNNUDVHcnpDM2s3ckgwVktKMzdRcDlpTlo5WDQweEZRUGpQRXc0bW9RTVBNc3ltQnltNk1pOGRhVnBJTmRKUXBISmxBenRNUFdKTG9DeEFrV052QVdoeWJTZGlRcXRMR05uc3dwZlhTMzNtenJ6VTc1Tm02ejJmaFFseVFCeldBRGZKMlEyVldhQ2o5UEtIVEx0ZW1leVNIZEsycHRWX1pMRDdwVmNySUgtek56SExyMEcwMF0tLT48L2c+PC9zdmc+;" vertex="1" parent="1">
            <mxGeometry x="-410" y="90" width="1372" height="402" as="geometry" />
          </mxCell>
        </UserObject>
      </root>
    </mxGraphModel>
  </diagram>
  <diagram id="Qe36UOn1hQ4tTsEsj9qL" name="Page-5">
    <mxGraphModel dx="2977" dy="928" grid="1" gridSize="10" guides="1" tooltips="1" connect="1" arrows="1" fold="1" page="1" pageScale="1" pageWidth="827" pageHeight="1169" math="0" shadow="0">
      <root>
        <mxCell id="0" />
        <mxCell id="1" parent="0" />
        <UserObject label="" plantUmlData="{&#xa;  &quot;data&quot;: &quot;@startuml\ntitle User Preferences Diagram\n\npackage \&quot;User Preferences\&quot; {\n    [Notification Settings] --&gt; [Enable/Disable Notifications]\n    [Notification Settings] --&gt; [Notification Frequency]\n\n    [Voice Guide Choices] --&gt; [Select Voice Type]\n    [Voice Guide Choices] --&gt; [Adjust Voice Speed]\n\n    [Choose Interests] --&gt; [Select Interests]\n    [Choose Interests] --&gt; [Customize Interest Topics]\n\n    [Choose Activities] --&gt; [Select Activity Types]\n    [Choose Activities] --&gt; [Activity Difficulty Level]\n\n    [Choose Food &amp; Drink Preferences] --&gt; [Choose Food Preferences]\n    [Choose Food &amp; Drink Preferences] --&gt; [Dietary Restrictions]\n\n    [Health Information] --&gt; [Input Health Data]\n    [Health Information] --&gt; [Adjust Health Goals]\n}\n\n@enduml\n&quot;,&#xa;  &quot;format&quot;: &quot;svg&quot;&#xa;}" id="2A4367JEDUrqK6FzEg_f-56">
          <mxCell style="shape=image;noLabel=1;verticalAlign=top;aspect=fixed;imageAspect=0;image=data:image/svg+xml,PD94bWwgdmVyc2lvbj0iMS4wIiBlbmNvZGluZz0idXMtYXNjaWkiIHN0YW5kYWxvbmU9Im5vIj8+PHN2ZyB4bWxucz0iaHR0cDovL3d3dy53My5vcmcvMjAwMC9zdmciIHhtbG5zOnhsaW5rPSJodHRwOi8vd3d3LnczLm9yZy8xOTk5L3hsaW5rIiBjb250ZW50U3R5bGVUeXBlPSJ0ZXh0L2NzcyIgaGVpZ2h0PSIyNDdweCIgcHJlc2VydmVBc3BlY3RSYXRpbz0ibm9uZSIgc3R5bGU9IndpZHRoOjI2NzBweDtoZWlnaHQ6MjQ3cHg7YmFja2dyb3VuZDojRkZGRkZGOyIgdmVyc2lvbj0iMS4xIiB2aWV3Qm94PSIwIDAgMjY3MCAyNDciIHdpZHRoPSIyNjcwcHgiIHpvb21BbmRQYW49Im1hZ25pZnkiPjxkZWZzLz48Zz48dGV4dCBmaWxsPSIjMDAwMDAwIiBmb250LWZhbWlseT0ic2Fucy1zZXJpZiIgZm9udC1zaXplPSIxNCIgZm9udC13ZWlnaHQ9ImJvbGQiIGxlbmd0aEFkanVzdD0ic3BhY2luZyIgdGV4dExlbmd0aD0iMTY5IiB4PSIxMjQzLjUiIHk9IjIzLjIzNDQiPlVzZXIgUHJlZmVyZW5jZXMgRGlhZ3JhbTwvdGV4dD48IS0tY2x1c3RlciBVc2VyIFByZWZlcmVuY2VzLS0+PGcgaWQ9ImNsdXN0ZXJfVXNlciBQcmVmZXJlbmNlcyI+PHBhdGggZD0iTTguNSw0MS45ODQ0IEwxMjEuNSw0MS45ODQ0IEEzLjc1LDMuNzUgMCAwIDEgMTI0LDQ0LjQ4NDQgTDEzMSw2Mi45Njg4IEwyNjYwLjUsNjIuOTY4OCBBMi41LDIuNSAwIDAgMSAyNjYzLDY1LjQ2ODggTDI2NjMsMjM4LjQ4NDQgQTIuNSwyLjUgMCAwIDEgMjY2MC41LDI0MC45ODQ0IEw4LjUsMjQwLjk4NDQgQTIuNSwyLjUgMCAwIDEgNiwyMzguNDg0NCBMNiw0NC40ODQ0IEEyLjUsMi41IDAgMCAxIDguNSw0MS45ODQ0ICIgZmlsbD0ibm9uZSIgc3R5bGU9InN0cm9rZTojMDAwMDAwO3N0cm9rZS13aWR0aDoxLjU7Ii8+PGxpbmUgc3R5bGU9InN0cm9rZTojMDAwMDAwO3N0cm9rZS13aWR0aDoxLjU7IiB4MT0iNiIgeDI9IjEzMSIgeTE9IjYyLjk2ODgiIHkyPSI2Mi45Njg4Ii8+PHRleHQgZmlsbD0iIzAwMDAwMCIgZm9udC1mYW1pbHk9InNhbnMtc2VyaWYiIGZvbnQtc2l6ZT0iMTQiIGZvbnQtd2VpZ2h0PSJib2xkIiBsZW5ndGhBZGp1c3Q9InNwYWNpbmciIHRleHRMZW5ndGg9IjExMiIgeD0iMTAiIHk9IjU3LjIxODgiPlVzZXIgUHJlZmVyZW5jZXM8L3RleHQ+PC9nPjwhLS1lbnRpdHkgTm90aWZpY2F0aW9uIFNldHRpbmdzLS0+PGcgaWQ9ImVsZW1fTm90aWZpY2F0aW9uIFNldHRpbmdzIj48cmVjdCBmaWxsPSIjRjFGMUYxIiBoZWlnaHQ9IjQ0Ljk4NDQiIHJ4PSIyLjUiIHJ5PSIyLjUiIHN0eWxlPSJzdHJva2U6IzE4MTgxODtzdHJva2Utd2lkdGg6MC41OyIgd2lkdGg9IjE4NyIgeD0iMjMzMS41IiB5PSI3NC45ODQ0Ii8+PHJlY3QgZmlsbD0iI0YxRjFGMSIgaGVpZ2h0PSIxMCIgc3R5bGU9InN0cm9rZTojMTgxODE4O3N0cm9rZS13aWR0aDowLjU7IiB3aWR0aD0iMTUiIHg9IjI0OTguNSIgeT0iNzkuOTg0NCIvPjxyZWN0IGZpbGw9IiNGMUYxRjEiIGhlaWdodD0iMiIgc3R5bGU9InN0cm9rZTojMTgxODE4O3N0cm9rZS13aWR0aDowLjU7IiB3aWR0aD0iNCIgeD0iMjQ5Ni41IiB5PSI4MS45ODQ0Ii8+PHJlY3QgZmlsbD0iI0YxRjFGMSIgaGVpZ2h0PSIyIiBzdHlsZT0ic3Ryb2tlOiMxODE4MTg7c3Ryb2tlLXdpZHRoOjAuNTsiIHdpZHRoPSI0IiB4PSIyNDk2LjUiIHk9Ijg1Ljk4NDQiLz48dGV4dCBmaWxsPSIjMDAwMDAwIiBmb250LWZhbWlseT0ic2Fucy1zZXJpZiIgZm9udC1zaXplPSIxNCIgbGVuZ3RoQWRqdXN0PSJzcGFjaW5nIiB0ZXh0TGVuZ3RoPSIxNDciIHg9IjIzNDYuNSIgeT0iMTA4LjIxODgiPk5vdGlmaWNhdGlvbiBTZXR0aW5nczwvdGV4dD48L2c+PCEtLWVudGl0eSBFbmFibGUvRGlzYWJsZSBOb3RpZmljYXRpb25zLS0+PGcgaWQ9ImVsZW1fRW5hYmxlL0Rpc2FibGUgTm90aWZpY2F0aW9ucyI+PHJlY3QgZmlsbD0iI0YxRjFGMSIgaGVpZ2h0PSI0NC45ODQ0IiByeD0iMi41IiByeT0iMi41IiBzdHlsZT0ic3Ryb2tlOiMxODE4MTg7c3Ryb2tlLXdpZHRoOjAuNTsiIHdpZHRoPSIyMzYiIHg9IjIxODIiIHk9IjE3OS45ODQ0Ii8+PHJlY3QgZmlsbD0iI0YxRjFGMSIgaGVpZ2h0PSIxMCIgc3R5bGU9InN0cm9rZTojMTgxODE4O3N0cm9rZS13aWR0aDowLjU7IiB3aWR0aD0iMTUiIHg9IjIzOTgiIHk9IjE4NC45ODQ0Ii8+PHJlY3QgZmlsbD0iI0YxRjFGMSIgaGVpZ2h0PSIyIiBzdHlsZT0ic3Ryb2tlOiMxODE4MTg7c3Ryb2tlLXdpZHRoOjAuNTsiIHdpZHRoPSI0IiB4PSIyMzk2IiB5PSIxODYuOTg0NCIvPjxyZWN0IGZpbGw9IiNGMUYxRjEiIGhlaWdodD0iMiIgc3R5bGU9InN0cm9rZTojMTgxODE4O3N0cm9rZS13aWR0aDowLjU7IiB3aWR0aD0iNCIgeD0iMjM5NiIgeT0iMTkwLjk4NDQiLz48dGV4dCBmaWxsPSIjMDAwMDAwIiBmb250LWZhbWlseT0ic2Fucy1zZXJpZiIgZm9udC1zaXplPSIxNCIgbGVuZ3RoQWRqdXN0PSJzcGFjaW5nIiB0ZXh0TGVuZ3RoPSIxOTYiIHg9IjIxOTciIHk9IjIxMy4yMTg4Ij5FbmFibGUvRGlzYWJsZSBOb3RpZmljYXRpb25zPC90ZXh0PjwvZz48IS0tZW50aXR5IE5vdGlmaWNhdGlvbiBGcmVxdWVuY3ktLT48ZyBpZD0iZWxlbV9Ob3RpZmljYXRpb24gRnJlcXVlbmN5Ij48cmVjdCBmaWxsPSIjRjFGMUYxIiBoZWlnaHQ9IjQ0Ljk4NDQiIHJ4PSIyLjUiIHJ5PSIyLjUiIHN0eWxlPSJzdHJva2U6IzE4MTgxODtzdHJva2Utd2lkdGg6MC41OyIgd2lkdGg9IjE5NCIgeD0iMjQ1MyIgeT0iMTc5Ljk4NDQiLz48cmVjdCBmaWxsPSIjRjFGMUYxIiBoZWlnaHQ9IjEwIiBzdHlsZT0ic3Ryb2tlOiMxODE4MTg7c3Ryb2tlLXdpZHRoOjAuNTsiIHdpZHRoPSIxNSIgeD0iMjYyNyIgeT0iMTg0Ljk4NDQiLz48cmVjdCBmaWxsPSIjRjFGMUYxIiBoZWlnaHQ9IjIiIHN0eWxlPSJzdHJva2U6IzE4MTgxODtzdHJva2Utd2lkdGg6MC41OyIgd2lkdGg9IjQiIHg9IjI2MjUiIHk9IjE4Ni45ODQ0Ii8+PHJlY3QgZmlsbD0iI0YxRjFGMSIgaGVpZ2h0PSIyIiBzdHlsZT0ic3Ryb2tlOiMxODE4MTg7c3Ryb2tlLXdpZHRoOjAuNTsiIHdpZHRoPSI0IiB4PSIyNjI1IiB5PSIxOTAuOTg0NCIvPjx0ZXh0IGZpbGw9IiMwMDAwMDAiIGZvbnQtZmFtaWx5PSJzYW5zLXNlcmlmIiBmb250LXNpemU9IjE0IiBsZW5ndGhBZGp1c3Q9InNwYWNpbmciIHRleHRMZW5ndGg9IjE1NCIgeD0iMjQ2OCIgeT0iMjEzLjIxODgiPk5vdGlmaWNhdGlvbiBGcmVxdWVuY3k8L3RleHQ+PC9nPjwhLS1lbnRpdHkgVm9pY2UgR3VpZGUgQ2hvaWNlcy0tPjxnIGlkPSJlbGVtX1ZvaWNlIEd1aWRlIENob2ljZXMiPjxyZWN0IGZpbGw9IiNGMUYxRjEiIGhlaWdodD0iNDQuOTg0NCIgcng9IjIuNSIgcnk9IjIuNSIgc3R5bGU9InN0cm9rZTojMTgxODE4O3N0cm9rZS13aWR0aDowLjU7IiB3aWR0aD0iMTczIiB4PSIxODc4LjUiIHk9Ijc0Ljk4NDQiLz48cmVjdCBmaWxsPSIjRjFGMUYxIiBoZWlnaHQ9IjEwIiBzdHlsZT0ic3Ryb2tlOiMxODE4MTg7c3Ryb2tlLXdpZHRoOjAuNTsiIHdpZHRoPSIxNSIgeD0iMjAzMS41IiB5PSI3OS45ODQ0Ii8+PHJlY3QgZmlsbD0iI0YxRjFGMSIgaGVpZ2h0PSIyIiBzdHlsZT0ic3Ryb2tlOiMxODE4MTg7c3Ryb2tlLXdpZHRoOjAuNTsiIHdpZHRoPSI0IiB4PSIyMDI5LjUiIHk9IjgxLjk4NDQiLz48cmVjdCBmaWxsPSIjRjFGMUYxIiBoZWlnaHQ9IjIiIHN0eWxlPSJzdHJva2U6IzE4MTgxODtzdHJva2Utd2lkdGg6MC41OyIgd2lkdGg9IjQiIHg9IjIwMjkuNSIgeT0iODUuOTg0NCIvPjx0ZXh0IGZpbGw9IiMwMDAwMDAiIGZvbnQtZmFtaWx5PSJzYW5zLXNlcmlmIiBmb250LXNpemU9IjE0IiBsZW5ndGhBZGp1c3Q9InNwYWNpbmciIHRleHRMZW5ndGg9IjEzMyIgeD0iMTg5My41IiB5PSIxMDguMjE4OCI+Vm9pY2UgR3VpZGUgQ2hvaWNlczwvdGV4dD48L2c+PCEtLWVudGl0eSBTZWxlY3QgVm9pY2UgVHlwZS0tPjxnIGlkPSJlbGVtX1NlbGVjdCBWb2ljZSBUeXBlIj48cmVjdCBmaWxsPSIjRjFGMUYxIiBoZWlnaHQ9IjQ0Ljk4NDQiIHJ4PSIyLjUiIHJ5PSIyLjUiIHN0eWxlPSJzdHJva2U6IzE4MTgxODtzdHJva2Utd2lkdGg6MC41OyIgd2lkdGg9IjE1OSIgeD0iMTc4Ni41IiB5PSIxNzkuOTg0NCIvPjxyZWN0IGZpbGw9IiNGMUYxRjEiIGhlaWdodD0iMTAiIHN0eWxlPSJzdHJva2U6IzE4MTgxODtzdHJva2Utd2lkdGg6MC41OyIgd2lkdGg9IjE1IiB4PSIxOTI1LjUiIHk9IjE4NC45ODQ0Ii8+PHJlY3QgZmlsbD0iI0YxRjFGMSIgaGVpZ2h0PSIyIiBzdHlsZT0ic3Ryb2tlOiMxODE4MTg7c3Ryb2tlLXdpZHRoOjAuNTsiIHdpZHRoPSI0IiB4PSIxOTIzLjUiIHk9IjE4Ni45ODQ0Ii8+PHJlY3QgZmlsbD0iI0YxRjFGMSIgaGVpZ2h0PSIyIiBzdHlsZT0ic3Ryb2tlOiMxODE4MTg7c3Ryb2tlLXdpZHRoOjAuNTsiIHdpZHRoPSI0IiB4PSIxOTIzLjUiIHk9IjE5MC45ODQ0Ii8+PHRleHQgZmlsbD0iIzAwMDAwMCIgZm9udC1mYW1pbHk9InNhbnMtc2VyaWYiIGZvbnQtc2l6ZT0iMTQiIGxlbmd0aEFkanVzdD0ic3BhY2luZyIgdGV4dExlbmd0aD0iMTE5IiB4PSIxODAxLjUiIHk9IjIxMy4yMTg4Ij5TZWxlY3QgVm9pY2UgVHlwZTwvdGV4dD48L2c+PCEtLWVudGl0eSBBZGp1c3QgVm9pY2UgU3BlZWQtLT48ZyBpZD0iZWxlbV9BZGp1c3QgVm9pY2UgU3BlZWQiPjxyZWN0IGZpbGw9IiNGMUYxRjEiIGhlaWdodD0iNDQuOTg0NCIgcng9IjIuNSIgcnk9IjIuNSIgc3R5bGU9InN0cm9rZTojMTgxODE4O3N0cm9rZS13aWR0aDowLjU7IiB3aWR0aD0iMTY2IiB4PSIxOTgxIiB5PSIxNzkuOTg0NCIvPjxyZWN0IGZpbGw9IiNGMUYxRjEiIGhlaWdodD0iMTAiIHN0eWxlPSJzdHJva2U6IzE4MTgxODtzdHJva2Utd2lkdGg6MC41OyIgd2lkdGg9IjE1IiB4PSIyMTI3IiB5PSIxODQuOTg0NCIvPjxyZWN0IGZpbGw9IiNGMUYxRjEiIGhlaWdodD0iMiIgc3R5bGU9InN0cm9rZTojMTgxODE4O3N0cm9rZS13aWR0aDowLjU7IiB3aWR0aD0iNCIgeD0iMjEyNSIgeT0iMTg2Ljk4NDQiLz48cmVjdCBmaWxsPSIjRjFGMUYxIiBoZWlnaHQ9IjIiIHN0eWxlPSJzdHJva2U6IzE4MTgxODtzdHJva2Utd2lkdGg6MC41OyIgd2lkdGg9IjQiIHg9IjIxMjUiIHk9IjE5MC45ODQ0Ii8+PHRleHQgZmlsbD0iIzAwMDAwMCIgZm9udC1mYW1pbHk9InNhbnMtc2VyaWYiIGZvbnQtc2l6ZT0iMTQiIGxlbmd0aEFkanVzdD0ic3BhY2luZyIgdGV4dExlbmd0aD0iMTI2IiB4PSIxOTk2IiB5PSIyMTMuMjE4OCI+QWRqdXN0IFZvaWNlIFNwZWVkPC90ZXh0PjwvZz48IS0tZW50aXR5IENob29zZSBJbnRlcmVzdHMtLT48ZyBpZD0iZWxlbV9DaG9vc2UgSW50ZXJlc3RzIj48cmVjdCBmaWxsPSIjRjFGMUYxIiBoZWlnaHQ9IjQ0Ljk4NDQiIHJ4PSIyLjUiIHJ5PSIyLjUiIHN0eWxlPSJzdHJva2U6IzE4MTgxODtzdHJva2Utd2lkdGg6MC41OyIgd2lkdGg9IjE1MiIgeD0iMTQ1NyIgeT0iNzQuOTg0NCIvPjxyZWN0IGZpbGw9IiNGMUYxRjEiIGhlaWdodD0iMTAiIHN0eWxlPSJzdHJva2U6IzE4MTgxODtzdHJva2Utd2lkdGg6MC41OyIgd2lkdGg9IjE1IiB4PSIxNTg5IiB5PSI3OS45ODQ0Ii8+PHJlY3QgZmlsbD0iI0YxRjFGMSIgaGVpZ2h0PSIyIiBzdHlsZT0ic3Ryb2tlOiMxODE4MTg7c3Ryb2tlLXdpZHRoOjAuNTsiIHdpZHRoPSI0IiB4PSIxNTg3IiB5PSI4MS45ODQ0Ii8+PHJlY3QgZmlsbD0iI0YxRjFGMSIgaGVpZ2h0PSIyIiBzdHlsZT0ic3Ryb2tlOiMxODE4MTg7c3Ryb2tlLXdpZHRoOjAuNTsiIHdpZHRoPSI0IiB4PSIxNTg3IiB5PSI4NS45ODQ0Ii8+PHRleHQgZmlsbD0iIzAwMDAwMCIgZm9udC1mYW1pbHk9InNhbnMtc2VyaWYiIGZvbnQtc2l6ZT0iMTQiIGxlbmd0aEFkanVzdD0ic3BhY2luZyIgdGV4dExlbmd0aD0iMTEyIiB4PSIxNDcyIiB5PSIxMDguMjE4OCI+Q2hvb3NlIEludGVyZXN0czwvdGV4dD48L2c+PCEtLWVudGl0eSBTZWxlY3QgSW50ZXJlc3RzLS0+PGcgaWQ9ImVsZW1fU2VsZWN0IEludGVyZXN0cyI+PHJlY3QgZmlsbD0iI0YxRjFGMSIgaGVpZ2h0PSI0NC45ODQ0IiByeD0iMi41IiByeT0iMi41IiBzdHlsZT0ic3Ryb2tlOiMxODE4MTg7c3Ryb2tlLXdpZHRoOjAuNTsiIHdpZHRoPSIxNTIiIHg9IjEzNDgiIHk9IjE3OS45ODQ0Ii8+PHJlY3QgZmlsbD0iI0YxRjFGMSIgaGVpZ2h0PSIxMCIgc3R5bGU9InN0cm9rZTojMTgxODE4O3N0cm9rZS13aWR0aDowLjU7IiB3aWR0aD0iMTUiIHg9IjE0ODAiIHk9IjE4NC45ODQ0Ii8+PHJlY3QgZmlsbD0iI0YxRjFGMSIgaGVpZ2h0PSIyIiBzdHlsZT0ic3Ryb2tlOiMxODE4MTg7c3Ryb2tlLXdpZHRoOjAuNTsiIHdpZHRoPSI0IiB4PSIxNDc4IiB5PSIxODYuOTg0NCIvPjxyZWN0IGZpbGw9IiNGMUYxRjEiIGhlaWdodD0iMiIgc3R5bGU9InN0cm9rZTojMTgxODE4O3N0cm9rZS13aWR0aDowLjU7IiB3aWR0aD0iNCIgeD0iMTQ3OCIgeT0iMTkwLjk4NDQiLz48dGV4dCBmaWxsPSIjMDAwMDAwIiBmb250LWZhbWlseT0ic2Fucy1zZXJpZiIgZm9udC1zaXplPSIxNCIgbGVuZ3RoQWRqdXN0PSJzcGFjaW5nIiB0ZXh0TGVuZ3RoPSIxMTIiIHg9IjEzNjMiIHk9IjIxMy4yMTg4Ij5TZWxlY3QgSW50ZXJlc3RzPC90ZXh0PjwvZz48IS0tZW50aXR5IEN1c3RvbWl6ZSBJbnRlcmVzdCBUb3BpY3MtLT48ZyBpZD0iZWxlbV9DdXN0b21pemUgSW50ZXJlc3QgVG9waWNzIj48cmVjdCBmaWxsPSIjRjFGMUYxIiBoZWlnaHQ9IjQ0Ljk4NDQiIHJ4PSIyLjUiIHJ5PSIyLjUiIHN0eWxlPSJzdHJva2U6IzE4MTgxODtzdHJva2Utd2lkdGg6MC41OyIgd2lkdGg9IjIxNiIgeD0iMTUzNSIgeT0iMTc5Ljk4NDQiLz48cmVjdCBmaWxsPSIjRjFGMUYxIiBoZWlnaHQ9IjEwIiBzdHlsZT0ic3Ryb2tlOiMxODE4MTg7c3Ryb2tlLXdpZHRoOjAuNTsiIHdpZHRoPSIxNSIgeD0iMTczMSIgeT0iMTg0Ljk4NDQiLz48cmVjdCBmaWxsPSIjRjFGMUYxIiBoZWlnaHQ9IjIiIHN0eWxlPSJzdHJva2U6IzE4MTgxODtzdHJva2Utd2lkdGg6MC41OyIgd2lkdGg9IjQiIHg9IjE3MjkiIHk9IjE4Ni45ODQ0Ii8+PHJlY3QgZmlsbD0iI0YxRjFGMSIgaGVpZ2h0PSIyIiBzdHlsZT0ic3Ryb2tlOiMxODE4MTg7c3Ryb2tlLXdpZHRoOjAuNTsiIHdpZHRoPSI0IiB4PSIxNzI5IiB5PSIxOTAuOTg0NCIvPjx0ZXh0IGZpbGw9IiMwMDAwMDAiIGZvbnQtZmFtaWx5PSJzYW5zLXNlcmlmIiBmb250LXNpemU9IjE0IiBsZW5ndGhBZGp1c3Q9InNwYWNpbmciIHRleHRMZW5ndGg9IjE3NiIgeD0iMTU1MCIgeT0iMjEzLjIxODgiPkN1c3RvbWl6ZSBJbnRlcmVzdCBUb3BpY3M8L3RleHQ+PC9nPjwhLS1lbnRpdHkgQ2hvb3NlIEFjdGl2aXRpZXMtLT48ZyBpZD0iZWxlbV9DaG9vc2UgQWN0aXZpdGllcyI+PHJlY3QgZmlsbD0iI0YxRjFGMSIgaGVpZ2h0PSI0NC45ODQ0IiByeD0iMi41IiByeT0iMi41IiBzdHlsZT0ic3Ryb2tlOiMxODE4MTg7c3Ryb2tlLXdpZHRoOjAuNTsiIHdpZHRoPSIxNTkiIHg9IjEwMDcuNSIgeT0iNzQuOTg0NCIvPjxyZWN0IGZpbGw9IiNGMUYxRjEiIGhlaWdodD0iMTAiIHN0eWxlPSJzdHJva2U6IzE4MTgxODtzdHJva2Utd2lkdGg6MC41OyIgd2lkdGg9IjE1IiB4PSIxMTQ2LjUiIHk9Ijc5Ljk4NDQiLz48cmVjdCBmaWxsPSIjRjFGMUYxIiBoZWlnaHQ9IjIiIHN0eWxlPSJzdHJva2U6IzE4MTgxODtzdHJva2Utd2lkdGg6MC41OyIgd2lkdGg9IjQiIHg9IjExNDQuNSIgeT0iODEuOTg0NCIvPjxyZWN0IGZpbGw9IiNGMUYxRjEiIGhlaWdodD0iMiIgc3R5bGU9InN0cm9rZTojMTgxODE4O3N0cm9rZS13aWR0aDowLjU7IiB3aWR0aD0iNCIgeD0iMTE0NC41IiB5PSI4NS45ODQ0Ii8+PHRleHQgZmlsbD0iIzAwMDAwMCIgZm9udC1mYW1pbHk9InNhbnMtc2VyaWYiIGZvbnQtc2l6ZT0iMTQiIGxlbmd0aEFkanVzdD0ic3BhY2luZyIgdGV4dExlbmd0aD0iMTE5IiB4PSIxMDIyLjUiIHk9IjEwOC4yMTg4Ij5DaG9vc2UgQWN0aXZpdGllczwvdGV4dD48L2c+PCEtLWVudGl0eSBTZWxlY3QgQWN0aXZpdHkgVHlwZXMtLT48ZyBpZD0iZWxlbV9TZWxlY3QgQWN0aXZpdHkgVHlwZXMiPjxyZWN0IGZpbGw9IiNGMUYxRjEiIGhlaWdodD0iNDQuOTg0NCIgcng9IjIuNSIgcnk9IjIuNSIgc3R5bGU9InN0cm9rZTojMTgxODE4O3N0cm9rZS13aWR0aDowLjU7IiB3aWR0aD0iMTg3IiB4PSI4NzUuNSIgeT0iMTc5Ljk4NDQiLz48cmVjdCBmaWxsPSIjRjFGMUYxIiBoZWlnaHQ9IjEwIiBzdHlsZT0ic3Ryb2tlOiMxODE4MTg7c3Ryb2tlLXdpZHRoOjAuNTsiIHdpZHRoPSIxNSIgeD0iMTA0Mi41IiB5PSIxODQuOTg0NCIvPjxyZWN0IGZpbGw9IiNGMUYxRjEiIGhlaWdodD0iMiIgc3R5bGU9InN0cm9rZTojMTgxODE4O3N0cm9rZS13aWR0aDowLjU7IiB3aWR0aD0iNCIgeD0iMTA0MC41IiB5PSIxODYuOTg0NCIvPjxyZWN0IGZpbGw9IiNGMUYxRjEiIGhlaWdodD0iMiIgc3R5bGU9InN0cm9rZTojMTgxODE4O3N0cm9rZS13aWR0aDowLjU7IiB3aWR0aD0iNCIgeD0iMTA0MC41IiB5PSIxOTAuOTg0NCIvPjx0ZXh0IGZpbGw9IiMwMDAwMDAiIGZvbnQtZmFtaWx5PSJzYW5zLXNlcmlmIiBmb250LXNpemU9IjE0IiBsZW5ndGhBZGp1c3Q9InNwYWNpbmciIHRleHRMZW5ndGg9IjE0NyIgeD0iODkwLjUiIHk9IjIxMy4yMTg4Ij5TZWxlY3QgQWN0aXZpdHkgVHlwZXM8L3RleHQ+PC9nPjwhLS1lbnRpdHkgQWN0aXZpdHkgRGlmZmljdWx0eSBMZXZlbC0tPjxnIGlkPSJlbGVtX0FjdGl2aXR5IERpZmZpY3VsdHkgTGV2ZWwiPjxyZWN0IGZpbGw9IiNGMUYxRjEiIGhlaWdodD0iNDQuOTg0NCIgcng9IjIuNSIgcnk9IjIuNSIgc3R5bGU9InN0cm9rZTojMTgxODE4O3N0cm9rZS13aWR0aDowLjU7IiB3aWR0aD0iMjE1IiB4PSIxMDk3LjUiIHk9IjE3OS45ODQ0Ii8+PHJlY3QgZmlsbD0iI0YxRjFGMSIgaGVpZ2h0PSIxMCIgc3R5bGU9InN0cm9rZTojMTgxODE4O3N0cm9rZS13aWR0aDowLjU7IiB3aWR0aD0iMTUiIHg9IjEyOTIuNSIgeT0iMTg0Ljk4NDQiLz48cmVjdCBmaWxsPSIjRjFGMUYxIiBoZWlnaHQ9IjIiIHN0eWxlPSJzdHJva2U6IzE4MTgxODtzdHJva2Utd2lkdGg6MC41OyIgd2lkdGg9IjQiIHg9IjEyOTAuNSIgeT0iMTg2Ljk4NDQiLz48cmVjdCBmaWxsPSIjRjFGMUYxIiBoZWlnaHQ9IjIiIHN0eWxlPSJzdHJva2U6IzE4MTgxODtzdHJva2Utd2lkdGg6MC41OyIgd2lkdGg9IjQiIHg9IjEyOTAuNSIgeT0iMTkwLjk4NDQiLz48dGV4dCBmaWxsPSIjMDAwMDAwIiBmb250LWZhbWlseT0ic2Fucy1zZXJpZiIgZm9udC1zaXplPSIxNCIgbGVuZ3RoQWRqdXN0PSJzcGFjaW5nIiB0ZXh0TGVuZ3RoPSIxNzUiIHg9IjExMTIuNSIgeT0iMjEzLjIxODgiPkFjdGl2aXR5IERpZmZpY3VsdHkgTGV2ZWw8L3RleHQ+PC9nPjwhLS1lbnRpdHkgQ2hvb3NlIEZvb2QgJiBEcmluayBQcmVmZXJlbmNlcy0tPjxnIGlkPSJlbGVtX0Nob29zZSBGb29kICZhbXA7IERyaW5rIFByZWZlcmVuY2VzIj48cmVjdCBmaWxsPSIjRjFGMUYxIiBoZWlnaHQ9IjQ0Ljk4NDQiIHJ4PSIyLjUiIHJ5PSIyLjUiIHN0eWxlPSJzdHJva2U6IzE4MTgxODtzdHJva2Utd2lkdGg6MC41OyIgd2lkdGg9IjI1NyIgeD0iNDUwLjUiIHk9Ijc0Ljk4NDQiLz48cmVjdCBmaWxsPSIjRjFGMUYxIiBoZWlnaHQ9IjEwIiBzdHlsZT0ic3Ryb2tlOiMxODE4MTg7c3Ryb2tlLXdpZHRoOjAuNTsiIHdpZHRoPSIxNSIgeD0iNjg3LjUiIHk9Ijc5Ljk4NDQiLz48cmVjdCBmaWxsPSIjRjFGMUYxIiBoZWlnaHQ9IjIiIHN0eWxlPSJzdHJva2U6IzE4MTgxODtzdHJva2Utd2lkdGg6MC41OyIgd2lkdGg9IjQiIHg9IjY4NS41IiB5PSI4MS45ODQ0Ii8+PHJlY3QgZmlsbD0iI0YxRjFGMSIgaGVpZ2h0PSIyIiBzdHlsZT0ic3Ryb2tlOiMxODE4MTg7c3Ryb2tlLXdpZHRoOjAuNTsiIHdpZHRoPSI0IiB4PSI2ODUuNSIgeT0iODUuOTg0NCIvPjx0ZXh0IGZpbGw9IiMwMDAwMDAiIGZvbnQtZmFtaWx5PSJzYW5zLXNlcmlmIiBmb250LXNpemU9IjE0IiBsZW5ndGhBZGp1c3Q9InNwYWNpbmciIHRleHRMZW5ndGg9IjIxNyIgeD0iNDY1LjUiIHk9IjEwOC4yMTg4Ij5DaG9vc2UgRm9vZCAmYW1wOyBEcmluayBQcmVmZXJlbmNlczwvdGV4dD48L2c+PCEtLWVudGl0eSBDaG9vc2UgRm9vZCBQcmVmZXJlbmNlcy0tPjxnIGlkPSJlbGVtX0Nob29zZSBGb29kIFByZWZlcmVuY2VzIj48cmVjdCBmaWxsPSIjRjFGMUYxIiBoZWlnaHQ9IjQ0Ljk4NDQiIHJ4PSIyLjUiIHJ5PSIyLjUiIHN0eWxlPSJzdHJva2U6IzE4MTgxODtzdHJva2Utd2lkdGg6MC41OyIgd2lkdGg9IjIwMSIgeD0iNDIzLjUiIHk9IjE3OS45ODQ0Ii8+PHJlY3QgZmlsbD0iI0YxRjFGMSIgaGVpZ2h0PSIxMCIgc3R5bGU9InN0cm9rZTojMTgxODE4O3N0cm9rZS13aWR0aDowLjU7IiB3aWR0aD0iMTUiIHg9IjYwNC41IiB5PSIxODQuOTg0NCIvPjxyZWN0IGZpbGw9IiNGMUYxRjEiIGhlaWdodD0iMiIgc3R5bGU9InN0cm9rZTojMTgxODE4O3N0cm9rZS13aWR0aDowLjU7IiB3aWR0aD0iNCIgeD0iNjAyLjUiIHk9IjE4Ni45ODQ0Ii8+PHJlY3QgZmlsbD0iI0YxRjFGMSIgaGVpZ2h0PSIyIiBzdHlsZT0ic3Ryb2tlOiMxODE4MTg7c3Ryb2tlLXdpZHRoOjAuNTsiIHdpZHRoPSI0IiB4PSI2MDIuNSIgeT0iMTkwLjk4NDQiLz48dGV4dCBmaWxsPSIjMDAwMDAwIiBmb250LWZhbWlseT0ic2Fucy1zZXJpZiIgZm9udC1zaXplPSIxNCIgbGVuZ3RoQWRqdXN0PSJzcGFjaW5nIiB0ZXh0TGVuZ3RoPSIxNjEiIHg9IjQzOC41IiB5PSIyMTMuMjE4OCI+Q2hvb3NlIEZvb2QgUHJlZmVyZW5jZXM8L3RleHQ+PC9nPjwhLS1lbnRpdHkgRGlldGFyeSBSZXN0cmljdGlvbnMtLT48ZyBpZD0iZWxlbV9EaWV0YXJ5IFJlc3RyaWN0aW9ucyI+PHJlY3QgZmlsbD0iI0YxRjFGMSIgaGVpZ2h0PSI0NC45ODQ0IiByeD0iMi41IiByeT0iMi41IiBzdHlsZT0ic3Ryb2tlOiMxODE4MTg7c3Ryb2tlLXdpZHRoOjAuNTsiIHdpZHRoPSIxODAiIHg9IjY2MCIgeT0iMTc5Ljk4NDQiLz48cmVjdCBmaWxsPSIjRjFGMUYxIiBoZWlnaHQ9IjEwIiBzdHlsZT0ic3Ryb2tlOiMxODE4MTg7c3Ryb2tlLXdpZHRoOjAuNTsiIHdpZHRoPSIxNSIgeD0iODIwIiB5PSIxODQuOTg0NCIvPjxyZWN0IGZpbGw9IiNGMUYxRjEiIGhlaWdodD0iMiIgc3R5bGU9InN0cm9rZTojMTgxODE4O3N0cm9rZS13aWR0aDowLjU7IiB3aWR0aD0iNCIgeD0iODE4IiB5PSIxODYuOTg0NCIvPjxyZWN0IGZpbGw9IiNGMUYxRjEiIGhlaWdodD0iMiIgc3R5bGU9InN0cm9rZTojMTgxODE4O3N0cm9rZS13aWR0aDowLjU7IiB3aWR0aD0iNCIgeD0iODE4IiB5PSIxOTAuOTg0NCIvPjx0ZXh0IGZpbGw9IiMwMDAwMDAiIGZvbnQtZmFtaWx5PSJzYW5zLXNlcmlmIiBmb250LXNpemU9IjE0IiBsZW5ndGhBZGp1c3Q9InNwYWNpbmciIHRleHRMZW5ndGg9IjE0MCIgeD0iNjc1IiB5PSIyMTMuMjE4OCI+RGlldGFyeSBSZXN0cmljdGlvbnM8L3RleHQ+PC9nPjwhLS1lbnRpdHkgSGVhbHRoIEluZm9ybWF0aW9uLS0+PGcgaWQ9ImVsZW1fSGVhbHRoIEluZm9ybWF0aW9uIj48cmVjdCBmaWxsPSIjRjFGMUYxIiBoZWlnaHQ9IjQ0Ljk4NDQiIHJ4PSIyLjUiIHJ5PSIyLjUiIHN0eWxlPSJzdHJva2U6IzE4MTgxODtzdHJva2Utd2lkdGg6MC41OyIgd2lkdGg9IjE2NyIgeD0iMTYyLjUiIHk9Ijc0Ljk4NDQiLz48cmVjdCBmaWxsPSIjRjFGMUYxIiBoZWlnaHQ9IjEwIiBzdHlsZT0ic3Ryb2tlOiMxODE4MTg7c3Ryb2tlLXdpZHRoOjAuNTsiIHdpZHRoPSIxNSIgeD0iMzA5LjUiIHk9Ijc5Ljk4NDQiLz48cmVjdCBmaWxsPSIjRjFGMUYxIiBoZWlnaHQ9IjIiIHN0eWxlPSJzdHJva2U6IzE4MTgxODtzdHJva2Utd2lkdGg6MC41OyIgd2lkdGg9IjQiIHg9IjMwNy41IiB5PSI4MS45ODQ0Ii8+PHJlY3QgZmlsbD0iI0YxRjFGMSIgaGVpZ2h0PSIyIiBzdHlsZT0ic3Ryb2tlOiMxODE4MTg7c3Ryb2tlLXdpZHRoOjAuNTsiIHdpZHRoPSI0IiB4PSIzMDcuNSIgeT0iODUuOTg0NCIvPjx0ZXh0IGZpbGw9IiMwMDAwMDAiIGZvbnQtZmFtaWx5PSJzYW5zLXNlcmlmIiBmb250LXNpemU9IjE0IiBsZW5ndGhBZGp1c3Q9InNwYWNpbmciIHRleHRMZW5ndGg9IjEyNyIgeD0iMTc3LjUiIHk9IjEwOC4yMTg4Ij5IZWFsdGggSW5mb3JtYXRpb248L3RleHQ+PC9nPjwhLS1lbnRpdHkgSW5wdXQgSGVhbHRoIERhdGEtLT48ZyBpZD0iZWxlbV9JbnB1dCBIZWFsdGggRGF0YSI+PHJlY3QgZmlsbD0iI0YxRjFGMSIgaGVpZ2h0PSI0NC45ODQ0IiByeD0iMi41IiByeT0iMi41IiBzdHlsZT0ic3Ryb2tlOiMxODE4MTg7c3Ryb2tlLXdpZHRoOjAuNTsiIHdpZHRoPSIxNTkiIHg9IjIxLjUiIHk9IjE3OS45ODQ0Ii8+PHJlY3QgZmlsbD0iI0YxRjFGMSIgaGVpZ2h0PSIxMCIgc3R5bGU9InN0cm9rZTojMTgxODE4O3N0cm9rZS13aWR0aDowLjU7IiB3aWR0aD0iMTUiIHg9IjE2MC41IiB5PSIxODQuOTg0NCIvPjxyZWN0IGZpbGw9IiNGMUYxRjEiIGhlaWdodD0iMiIgc3R5bGU9InN0cm9rZTojMTgxODE4O3N0cm9rZS13aWR0aDowLjU7IiB3aWR0aD0iNCIgeD0iMTU4LjUiIHk9IjE4Ni45ODQ0Ii8+PHJlY3QgZmlsbD0iI0YxRjFGMSIgaGVpZ2h0PSIyIiBzdHlsZT0ic3Ryb2tlOiMxODE4MTg7c3Ryb2tlLXdpZHRoOjAuNTsiIHdpZHRoPSI0IiB4PSIxNTguNSIgeT0iMTkwLjk4NDQiLz48dGV4dCBmaWxsPSIjMDAwMDAwIiBmb250LWZhbWlseT0ic2Fucy1zZXJpZiIgZm9udC1zaXplPSIxNCIgbGVuZ3RoQWRqdXN0PSJzcGFjaW5nIiB0ZXh0TGVuZ3RoPSIxMTkiIHg9IjM2LjUiIHk9IjIxMy4yMTg4Ij5JbnB1dCBIZWFsdGggRGF0YTwvdGV4dD48L2c+PCEtLWVudGl0eSBBZGp1c3QgSGVhbHRoIEdvYWxzLS0+PGcgaWQ9ImVsZW1fQWRqdXN0IEhlYWx0aCBHb2FscyI+PHJlY3QgZmlsbD0iI0YxRjFGMSIgaGVpZ2h0PSI0NC45ODQ0IiByeD0iMi41IiByeT0iMi41IiBzdHlsZT0ic3Ryb2tlOiMxODE4MTg7c3Ryb2tlLXdpZHRoOjAuNTsiIHdpZHRoPSIxNzMiIHg9IjIxNS41IiB5PSIxNzkuOTg0NCIvPjxyZWN0IGZpbGw9IiNGMUYxRjEiIGhlaWdodD0iMTAiIHN0eWxlPSJzdHJva2U6IzE4MTgxODtzdHJva2Utd2lkdGg6MC41OyIgd2lkdGg9IjE1IiB4PSIzNjguNSIgeT0iMTg0Ljk4NDQiLz48cmVjdCBmaWxsPSIjRjFGMUYxIiBoZWlnaHQ9IjIiIHN0eWxlPSJzdHJva2U6IzE4MTgxODtzdHJva2Utd2lkdGg6MC41OyIgd2lkdGg9IjQiIHg9IjM2Ni41IiB5PSIxODYuOTg0NCIvPjxyZWN0IGZpbGw9IiNGMUYxRjEiIGhlaWdodD0iMiIgc3R5bGU9InN0cm9rZTojMTgxODE4O3N0cm9rZS13aWR0aDowLjU7IiB3aWR0aD0iNCIgeD0iMzY2LjUiIHk9IjE5MC45ODQ0Ii8+PHRleHQgZmlsbD0iIzAwMDAwMCIgZm9udC1mYW1pbHk9InNhbnMtc2VyaWYiIGZvbnQtc2l6ZT0iMTQiIGxlbmd0aEFkanVzdD0ic3BhY2luZyIgdGV4dExlbmd0aD0iMTMzIiB4PSIyMzAuNSIgeT0iMjEzLjIxODgiPkFkanVzdCBIZWFsdGggR29hbHM8L3RleHQ+PC9nPjwhLS1saW5rIE5vdGlmaWNhdGlvbiBTZXR0aW5ncyB0byBFbmFibGUvRGlzYWJsZSBOb3RpZmljYXRpb25zLS0+PGcgaWQ9ImxpbmtfTm90aWZpY2F0aW9uIFNldHRpbmdzX0VuYWJsZS9EaXNhYmxlIE5vdGlmaWNhdGlvbnMiPjxwYXRoIGQ9Ik0yMzk4LjgsMTIwLjA3NDQgQzIzNzcuNDYsMTM3LjY1NDQgMjM1Mi4xMTkyLDE1OC41MjcyIDIzMzAuNzk5MiwxNzYuMTA3MiAiIGZpbGw9Im5vbmUiIGlkPSJOb3RpZmljYXRpb24gU2V0dGluZ3MtdG8tRW5hYmxlL0Rpc2FibGUgTm90aWZpY2F0aW9ucyIgc3R5bGU9InN0cm9rZTojMTgxODE4O3N0cm9rZS13aWR0aDoxLjA7Ii8+PHBvbHlnb24gZmlsbD0iIzE4MTgxOCIgcG9pbnRzPSIyMzI2LjE3LDE3OS45MjQ0LDIzMzUuNjU4NiwxNzcuMjg0OCwyMzMwLjAyNzcsMTc2Ljc0MzQsMjMzMC41NjksMTcxLjExMjUsMjMyNi4xNywxNzkuOTI0NCIgc3R5bGU9InN0cm9rZTojMTgxODE4O3N0cm9rZS13aWR0aDoxLjA7Ii8+PC9nPjwhLS1saW5rIE5vdGlmaWNhdGlvbiBTZXR0aW5ncyB0byBOb3RpZmljYXRpb24gRnJlcXVlbmN5LS0+PGcgaWQ9ImxpbmtfTm90aWZpY2F0aW9uIFNldHRpbmdzX05vdGlmaWNhdGlvbiBGcmVxdWVuY3kiPjxwYXRoIGQ9Ik0yNDUxLjIsMTIwLjA3NDQgQzI0NzIuNTQsMTM3LjY1NDQgMjQ5Ny44ODA4LDE1OC41MjcyIDI1MTkuMjAwOCwxNzYuMTA3MiAiIGZpbGw9Im5vbmUiIGlkPSJOb3RpZmljYXRpb24gU2V0dGluZ3MtdG8tTm90aWZpY2F0aW9uIEZyZXF1ZW5jeSIgc3R5bGU9InN0cm9rZTojMTgxODE4O3N0cm9rZS13aWR0aDoxLjA7Ii8+PHBvbHlnb24gZmlsbD0iIzE4MTgxOCIgcG9pbnRzPSIyNTIzLjgzLDE3OS45MjQ0LDI1MTkuNDMxLDE3MS4xMTI1LDI1MTkuOTcyMywxNzYuNzQzNCwyNTE0LjM0MTQsMTc3LjI4NDgsMjUyMy44MywxNzkuOTI0NCIgc3R5bGU9InN0cm9rZTojMTgxODE4O3N0cm9rZS13aWR0aDoxLjA7Ii8+PC9nPjwhLS1saW5rIFZvaWNlIEd1aWRlIENob2ljZXMgdG8gU2VsZWN0IFZvaWNlIFR5cGUtLT48ZyBpZD0ibGlua19Wb2ljZSBHdWlkZSBDaG9pY2VzX1NlbGVjdCBWb2ljZSBUeXBlIj48cGF0aCBkPSJNMTk0NCwxMjAuMzI0NCBDMTkyNy4yLDEzNy44MDQ0IDE5MDcuOTE3NiwxNTcuODc4NCAxODkxLjEyNzYsMTc1LjM0ODQgIiBmaWxsPSJub25lIiBpZD0iVm9pY2UgR3VpZGUgQ2hvaWNlcy10by1TZWxlY3QgVm9pY2UgVHlwZSIgc3R5bGU9InN0cm9rZTojMTgxODE4O3N0cm9rZS13aWR0aDoxLjA7Ii8+PHBvbHlnb24gZmlsbD0iIzE4MTgxOCIgcG9pbnRzPSIxODg2Ljk3LDE3OS42NzQ0LDE4OTYuMDkwNCwxNzUuOTU3MSwxODkwLjQzNDcsMTc2LjA2OTQsMTg5MC4zMjI0LDE3MC40MTM2LDE4ODYuOTcsMTc5LjY3NDQiIHN0eWxlPSJzdHJva2U6IzE4MTgxODtzdHJva2Utd2lkdGg6MS4wOyIvPjwvZz48IS0tbGluayBWb2ljZSBHdWlkZSBDaG9pY2VzIHRvIEFkanVzdCBWb2ljZSBTcGVlZC0tPjxnIGlkPSJsaW5rX1ZvaWNlIEd1aWRlIENob2ljZXNfQWRqdXN0IFZvaWNlIFNwZWVkIj48cGF0aCBkPSJNMTk4NiwxMjAuMzI0NCBDMjAwMi44LDEzNy44MDQ0IDIwMjIuMDgyNCwxNTcuODc4NCAyMDM4Ljg3MjQsMTc1LjM0ODQgIiBmaWxsPSJub25lIiBpZD0iVm9pY2UgR3VpZGUgQ2hvaWNlcy10by1BZGp1c3QgVm9pY2UgU3BlZWQiIHN0eWxlPSJzdHJva2U6IzE4MTgxODtzdHJva2Utd2lkdGg6MS4wOyIvPjxwb2x5Z29uIGZpbGw9IiMxODE4MTgiIHBvaW50cz0iMjA0My4wMywxNzkuNjc0NCwyMDM5LjY3NzYsMTcwLjQxMzYsMjAzOS41NjUzLDE3Ni4wNjk0LDIwMzMuOTA5NiwxNzUuOTU3MSwyMDQzLjAzLDE3OS42NzQ0IiBzdHlsZT0ic3Ryb2tlOiMxODE4MTg7c3Ryb2tlLXdpZHRoOjEuMDsiLz48L2c+PCEtLWxpbmsgQ2hvb3NlIEludGVyZXN0cyB0byBTZWxlY3QgSW50ZXJlc3RzLS0+PGcgaWQ9ImxpbmtfQ2hvb3NlIEludGVyZXN0c19TZWxlY3QgSW50ZXJlc3RzIj48cGF0aCBkPSJNMTUxMC4xNSwxMjAuMDc0NCBDMTQ5MS41NSwxMzcuNjU0NCAxNDY5Ljc2OTQsMTU4LjIyMTggMTQ1MS4xNzk0LDE3NS44MDE4ICIgZmlsbD0ibm9uZSIgaWQ9IkNob29zZSBJbnRlcmVzdHMtdG8tU2VsZWN0IEludGVyZXN0cyIgc3R5bGU9InN0cm9rZTojMTgxODE4O3N0cm9rZS13aWR0aDoxLjA7Ii8+PHBvbHlnb24gZmlsbD0iIzE4MTgxOCIgcG9pbnRzPSIxNDQ2LjgyLDE3OS45MjQ0LDE0NTYuMTA3NSwxNzYuNjQ2OCwxNDUwLjQ1MjgsMTc2LjQ4ODksMTQ1MC42MTA3LDE3MC44MzQzLDE0NDYuODIsMTc5LjkyNDQiIHN0eWxlPSJzdHJva2U6IzE4MTgxODtzdHJva2Utd2lkdGg6MS4wOyIvPjwvZz48IS0tbGluayBDaG9vc2UgSW50ZXJlc3RzIHRvIEN1c3RvbWl6ZSBJbnRlcmVzdCBUb3BpY3MtLT48ZyBpZD0ibGlua19DaG9vc2UgSW50ZXJlc3RzX0N1c3RvbWl6ZSBJbnRlcmVzdCBUb3BpY3MiPjxwYXRoIGQ9Ik0xNTU2LjA2LDEyMC4wNzQ0IEMxNTc0LjgzLDEzNy42NTQ0IDE1OTYuODMxOSwxNTguMjQxNyAxNjE1LjU5MTksMTc1LjgyMTcgIiBmaWxsPSJub25lIiBpZD0iQ2hvb3NlIEludGVyZXN0cy10by1DdXN0b21pemUgSW50ZXJlc3QgVG9waWNzIiBzdHlsZT0ic3Ryb2tlOiMxODE4MTg7c3Ryb2tlLXdpZHRoOjEuMDsiLz48cG9seWdvbiBmaWxsPSIjMTgxODE4IiBwb2ludHM9IjE2MTkuOTcsMTc5LjkyNDQsMTYxNi4xMzgsMTcwLjg1MTYsMTYxNi4zMjE2LDE3Ni41MDU0LDE2MTAuNjY3NywxNzYuNjg5LDE2MTkuOTcsMTc5LjkyNDQiIHN0eWxlPSJzdHJva2U6IzE4MTgxODtzdHJva2Utd2lkdGg6MS4wOyIvPjwvZz48IS0tbGluayBDaG9vc2UgQWN0aXZpdGllcyB0byBTZWxlY3QgQWN0aXZpdHkgVHlwZXMtLT48ZyBpZD0ibGlua19DaG9vc2UgQWN0aXZpdGllc19TZWxlY3QgQWN0aXZpdHkgVHlwZXMiPjxwYXRoIGQ9Ik0xMDYyLjI2LDEyMC4wNzQ0IEMxMDQyLjEyLDEzNy42NTQ0IDEwMTguMzQ5MiwxNTguMzk3NiA5OTguMjE5MiwxNzUuOTc3NiAiIGZpbGw9Im5vbmUiIGlkPSJDaG9vc2UgQWN0aXZpdGllcy10by1TZWxlY3QgQWN0aXZpdHkgVHlwZXMiIHN0eWxlPSJzdHJva2U6IzE4MTgxODtzdHJva2Utd2lkdGg6MS4wOyIvPjxwb2x5Z29uIGZpbGw9IiMxODE4MTgiIHBvaW50cz0iOTkzLjcsMTc5LjkyNDQsMTAwMy4xMSwxNzcuMDE3MSw5OTcuNDY2LDE3Ni42MzU0LDk5Ny44NDc3LDE3MC45OTE1LDk5My43LDE3OS45MjQ0IiBzdHlsZT0ic3Ryb2tlOiMxODE4MTg7c3Ryb2tlLXdpZHRoOjEuMDsiLz48L2c+PCEtLWxpbmsgQ2hvb3NlIEFjdGl2aXRpZXMgdG8gQWN0aXZpdHkgRGlmZmljdWx0eSBMZXZlbC0tPjxnIGlkPSJsaW5rX0Nob29zZSBBY3Rpdml0aWVzX0FjdGl2aXR5IERpZmZpY3VsdHkgTGV2ZWwiPjxwYXRoIGQ9Ik0xMTExLjc0LDEyMC4wNzQ0IEMxMTMxLjg4LDEzNy42NTQ0IDExNTUuNjUwOCwxNTguMzk3NiAxMTc1Ljc4MDgsMTc1Ljk3NzYgIiBmaWxsPSJub25lIiBpZD0iQ2hvb3NlIEFjdGl2aXRpZXMtdG8tQWN0aXZpdHkgRGlmZmljdWx0eSBMZXZlbCIgc3R5bGU9InN0cm9rZTojMTgxODE4O3N0cm9rZS13aWR0aDoxLjA7Ii8+PHBvbHlnb24gZmlsbD0iIzE4MTgxOCIgcG9pbnRzPSIxMTgwLjMsMTc5LjkyNDQsMTE3Ni4xNTIzLDE3MC45OTE1LDExNzYuNTM0LDE3Ni42MzU0LDExNzAuODksMTc3LjAxNzEsMTE4MC4zLDE3OS45MjQ0IiBzdHlsZT0ic3Ryb2tlOiMxODE4MTg7c3Ryb2tlLXdpZHRoOjEuMDsiLz48L2c+PCEtLWxpbmsgQ2hvb3NlIEZvb2QgJiBEcmluayBQcmVmZXJlbmNlcyB0byBDaG9vc2UgRm9vZCBQcmVmZXJlbmNlcy0tPjxnIGlkPSJsaW5rX0Nob29zZSBGb29kICZhbXA7IERyaW5rIFByZWZlcmVuY2VzX0Nob29zZSBGb29kIFByZWZlcmVuY2VzIj48cGF0aCBkPSJNNTY3LjM0LDEyMC4zMjQ0IEM1NTgsMTM3LjgwNDQgNTQ3LjgwNjUsMTU2LjkxMTkgNTM4LjQ3NjUsMTc0LjM4MTkgIiBmaWxsPSJub25lIiBpZD0iQ2hvb3NlIEZvb2QgJmFtcDsgRHJpbmsgUHJlZmVyZW5jZXMtdG8tQ2hvb3NlIEZvb2QgUHJlZmVyZW5jZXMiIHN0eWxlPSJzdHJva2U6IzE4MTgxODtzdHJva2Utd2lkdGg6MS4wOyIvPjxwb2x5Z29uIGZpbGw9IiMxODE4MTgiIHBvaW50cz0iNTM1LjY1LDE3OS42NzQ0LDU0My40MTgxLDE3My42MTk5LDUzOC4wMDU0LDE3NS4yNjM5LDUzNi4zNjE0LDE2OS44NTEyLDUzNS42NSwxNzkuNjc0NCIgc3R5bGU9InN0cm9rZTojMTgxODE4O3N0cm9rZS13aWR0aDoxLjA7Ii8+PC9nPjwhLS1saW5rIENob29zZSBGb29kICYgRHJpbmsgUHJlZmVyZW5jZXMgdG8gRGlldGFyeSBSZXN0cmljdGlvbnMtLT48ZyBpZD0ibGlua19DaG9vc2UgRm9vZCAmYW1wOyBEcmluayBQcmVmZXJlbmNlc19EaWV0YXJ5IFJlc3RyaWN0aW9ucyI+PHBhdGggZD0iTTYxNC44NSwxMjAuMDc0NCBDNjQ0LjAzLDEzNy42NTQ0IDY3OS44OTExLDE1OS4yNDczIDcwOS4wNjExLDE3Ni44MjczICIgZmlsbD0ibm9uZSIgaWQ9IkNob29zZSBGb29kICZhbXA7IERyaW5rIFByZWZlcmVuY2VzLXRvLURpZXRhcnkgUmVzdHJpY3Rpb25zIiBzdHlsZT0ic3Ryb2tlOiMxODE4MTg7c3Ryb2tlLXdpZHRoOjEuMDsiLz48cG9seWdvbiBmaWxsPSIjMTgxODE4IiBwb2ludHM9IjcxNC4yLDE3OS45MjQ0LDcwOC41NTY0LDE3MS44NTI4LDcwOS45MTc2LDE3Ny4zNDM1LDcwNC40MjcsMTc4LjcwNDcsNzE0LjIsMTc5LjkyNDQiIHN0eWxlPSJzdHJva2U6IzE4MTgxODtzdHJva2Utd2lkdGg6MS4wOyIvPjwvZz48IS0tbGluayBIZWFsdGggSW5mb3JtYXRpb24gdG8gSW5wdXQgSGVhbHRoIERhdGEtLT48ZyBpZD0ibGlua19IZWFsdGggSW5mb3JtYXRpb25fSW5wdXQgSGVhbHRoIERhdGEiPjxwYXRoIGQ9Ik0yMTUuNiwxMjAuMDc0NCBDMTkwLjg2LDEzNy42NTQ0IDE2MC45ODAzLDE1OC44NjggMTM2LjI1MDMsMTc2LjQ0OCAiIGZpbGw9Im5vbmUiIGlkPSJIZWFsdGggSW5mb3JtYXRpb24tdG8tSW5wdXQgSGVhbHRoIERhdGEiIHN0eWxlPSJzdHJva2U6IzE4MTgxODtzdHJva2Utd2lkdGg6MS4wOyIvPjxwb2x5Z29uIGZpbGw9IiMxODE4MTgiIHBvaW50cz0iMTMxLjM2LDE3OS45MjQ0LDE0MS4wMTMsMTc3Ljk3LDEzNS40MzUyLDE3Ny4wMjc0LDEzNi4zNzc4LDE3MS40NDk2LDEzMS4zNiwxNzkuOTI0NCIgc3R5bGU9InN0cm9rZTojMTgxODE4O3N0cm9rZS13aWR0aDoxLjA7Ii8+PC9nPjwhLS1saW5rIEhlYWx0aCBJbmZvcm1hdGlvbiB0byBBZGp1c3QgSGVhbHRoIEdvYWxzLS0+PGcgaWQ9ImxpbmtfSGVhbHRoIEluZm9ybWF0aW9uX0FkanVzdCBIZWFsdGggR29hbHMiPjxwYXRoIGQ9Ik0yNTcuODgsMTIwLjMyNDQgQzI2Ny4zOCwxMzcuODA0NCAyNzcuNzczNywxNTYuOTMzMyAyODcuMjczNywxNzQuNDAzMyAiIGZpbGw9Im5vbmUiIGlkPSJIZWFsdGggSW5mb3JtYXRpb24tdG8tQWRqdXN0IEhlYWx0aCBHb2FscyIgc3R5bGU9InN0cm9rZTojMTgxODE4O3N0cm9rZS13aWR0aDoxLjA7Ii8+PHBvbHlnb24gZmlsbD0iIzE4MTgxOCIgcG9pbnRzPSIyOTAuMTQsMTc5LjY3NDQsMjg5LjM1NDUsMTY5Ljg1NjksMjg3Ljc1MTQsMTc1LjI4MTgsMjgyLjMyNjQsMTczLjY3ODcsMjkwLjE0LDE3OS42NzQ0IiBzdHlsZT0ic3Ryb2tlOiMxODE4MTg7c3Ryb2tlLXdpZHRoOjEuMDsiLz48L2c+PCEtLVNSQz1bYkw1MUppQ200QnBkNVFpVWs1TnkwQWJnUUFjNDQyQTVJdk0zU0pSZktpU0V6Z1BJR0ZtVGp0TGVDNThaVkI2ekN4Rlp5SkFuR2RYc1FFN0hPZWFNaktHN0FPZEFZWmY5Nlk1dGVhQU9uOUc5VjJSV3ItUjFDOUthMVBGSGEyNHB3U2hiQzl0VW1FUE1ZclU1cm9jdm1tdjNnaWw3dlItbVhTTnRyYmp0VU45SWxYWUkyQ2tNMmVKdnpkM2ZUSGFnYjBtZG1oZmhDMXpKcDhndHJsTUFoNDRpVVhWRkNtdlhmVGE3VG5uUGRDaU5zTkZWdERKcVNLUFdSSGdJQmRBUElRT3pDU0w5R2hxeFhlY3lfY1gtbzJjTF9sVFF2T190azRTTGNJc0NBVTBBS2Fqd0R2bmlfLU8xUXVaLWZxVEFvQzlzeUVHSk12OVh4Z1NFVG9XS1JfczdiQ1JNbm40N3FLZXRCS0UwS3k0WTduNjR1R0x5UU9KbzliX1ZdLS0+PC9nPjwvc3ZnPg==;" vertex="1" parent="1">
            <mxGeometry x="-700" y="180" width="2670" height="247" as="geometry" />
          </mxCell>
        </UserObject>
      </root>
    </mxGraphModel>
  </diagram>
</mxfile>
